<?xml version="1.0" encoding="utf-8"?>
<!-- Generator: Adobe Illustrator 25.3.1, SVG Export Plug-In . SVG Version: 6.00 Build 0)  -->
<svg version="1.1" id="Layer_1" xmlns="http://www.w3.org/2000/svg" xmlns:xlink="http://www.w3.org/1999/xlink" x="0px" y="0px"
	 viewBox="0 0 650 589" style="enable-background:new 0 0 650 589;" xml:space="preserve">
<style type="text/css">
	.st0{fill:#F8C9AF;}
	.st1{fill:#D8B89F;}
	.st2{fill:#212123;}
	.st3{fill:#D7B9A1;}
	.st4{fill:#D8BCA7;}
	.st5{fill:#C9A58D;}
	.st6{fill:#352321;}
	.st7{fill:#E6E6E6;}
	.st8{fill:#2B1A12;}
	.st9{fill:#C19081;}
	.st10{fill:#452624;}
	.st11{fill:#EDCFC5;}
	.st12{fill:#574545;}
	.st13{fill:#B18C7A;}
	.st14{fill:#C9A084;}
	.st15{fill:#E6C6AD;}
	.st16{fill:#483A39;}
	.st17{fill:#C09181;}
	.st18{fill:#BE9926;}
	.st19{fill:#E3C92C;}
	.st20{fill:#43130F;}
	.st21{fill:#B13535;}
	.st22{opacity:0.21;}
	.st23{fill:#D54141;}
	.st24{fill:#331A1E;}
	.st25{fill:#9F2D2C;}
	.st26{fill:#CC3E3C;}
	.st27{fill:#201614;}
	.st28{fill:#29292B;}
	.st29{fill:#A73736;}
	.st30{fill:#4D4D4D;}
	.st31{fill:#89807B;}
	.st32{fill:#21141B;}
	.st33{fill:#403030;}
	.st34{fill:#D23E3E;}
	.st35{fill:#FFFFFF;}
	.st36{opacity:0.18;}
	.st37{fill:#63636B;}
	.st38{fill:#484A50;}
	.st39{fill:#090E14;}
	.st40{fill:#131B24;}
	.st41{fill:#DC2614;}
	.st42{fill:#080C17;}
	.st43{fill:#151D24;}
</style>
<g>
	<path class="st0" d="M444.64,302.38c0,0-6.37,22.11-21.74,26.29c0,0-0.01,0.01-0.04,0.02c-0.82,0.42-15.4,7.76-22.88,2.39
		c-2.38-1.71-4.05-4.72-4.31-9.65c0,0-9,46.77-19.54,61.92c0,0-8.78,16.03-30.96,22.17c0,0-6.64,2.76-16.19,6.15
		c-10.44,3.71-24.37,8.16-36.9,10.59h0c-6.85,1.32-13.27,2.05-18.49,1.7c0,0-20.87,1.12-38.3-2.55v0
		c-10.32-2.18-16.92-7.55-22.29-12.82c0,0-19.76-20.35-32.49-69.97c0,0-19.16-38.75-16.4-73.11c0.29-3.68,0.84-7.31,1.69-10.83
		c0,0,0.05-0.31,0.15-0.88c0.82-4.89,2.84-26.13,2.05-40.62c0,0-1.1-65.87,26.35-82.11c0,0,52.91-57.52,146.88-14.05
		c0,0,67.18,36.01,64.11,86.06c0,0-2.6,44.23,0.03,62.16c0.43,2.9,0.99,5.12,1.73,6.34c0,0,17.74-35.47,35-32.03
		c2.79,0.56,5.57,2.13,8.25,5.03C450.35,244.58,458.03,273.68,444.64,302.38z"/>
	<path class="st1" d="M442.08,472.79c0,0.11,0,0.22-0.01,0.32v0.01c-0.01,0.65-0.04,1.3-0.08,1.95
		c-0.81,14.16-6.76,25.97-12.68,34.38c-2.82,4-5.63,7.24-7.87,9.59c-2.78,2.91-4.69,4.47-4.69,4.47
		c-27.66,44.46-69.49,66.13-69.49,66.13h-75.36c-0.15-0.8-0.31-1.59-0.46-2.37c11.32-4.54,30.88-15.97,16.66-37.3
		c0,0-25.29-3.23-38.17-37.9c-3.58-9.63-6.2-21.67-7.06-36.75c0,0-0.16,0.1-0.45,0.29c0.29-0.34,0.44-0.51,0.44-0.51
		c0.48-5.36,0.39-10.97-0.06-16.45c-0.17-2.08-0.39-4.13-0.64-6.15c-0.12-0.91-0.24-1.82-0.37-2.72c-0.51-3.54-1.12-6.93-1.76-10.06
		c-0.55-2.66-1.11-5.12-1.66-7.33c0,0,0,0,0-0.01c-0.33-1.34-0.65-2.57-0.95-3.7c-0.2-0.76-0.4-1.47-0.58-2.12
		c-0.81-2.9-1.41-4.74-1.53-5.11c-0.01-0.01-0.01-0.03-0.01-0.04c0-0.01-0.01-0.02-0.01-0.03c0.51,0.11,1.03,0.21,1.55,0.31
		c1.64,0.32,3.3,0.59,4.97,0.83c0.13,0.02,0.27,0.04,0.4,0.06c0.02,0,0.04,0.01,0.06,0.01c0.1,0.01,0.19,0.03,0.28,0.04
		c0.09,0.01,0.18,0.03,0.26,0.04c0.27,0.04,0.54,0.07,0.81,0.11c0.21,0.03,0.42,0.06,0.64,0.08c0.06,0.01,0.11,0.01,0.17,0.02
		c0.27,0.03,0.54,0.07,0.8,0.1c1.34,0.16,2.67,0.29,3.99,0.41c0.24,0.02,0.48,0.04,0.72,0.06c0.56,0.04,1.11,0.09,1.66,0.13
		c0.48,0.04,0.95,0.07,1.43,0.1c0.54,0.03,1.07,0.07,1.6,0.1c0.17,0.01,0.35,0.02,0.52,0.03c0.16,0.01,0.33,0.02,0.49,0.03
		c2.54,0.13,4.93,0.2,7.1,0.24c0.21,0,0.42,0.01,0.63,0.01c6.12,0.08,10.25-0.15,10.25-0.15c0.87,0.06,1.78,0.08,2.72,0.08
		c0.27,0,0.55,0,0.82-0.01c0.3,0,0.6-0.01,0.9-0.02c0.13,0,0.27-0.01,0.4-0.01c0.2-0.01,0.4-0.02,0.61-0.03
		c0.26-0.01,0.53-0.03,0.79-0.04c0.08-0.01,0.15-0.01,0.23-0.02c0.27-0.02,0.54-0.04,0.81-0.06c0.32-0.03,0.64-0.05,0.96-0.08
		c1.46-0.13,2.97-0.32,4.51-0.54c0.31-0.04,0.62-0.09,0.93-0.14c0.19-0.03,0.39-0.06,0.58-0.09c0.3-0.05,0.6-0.1,0.9-0.15
		c1.09-0.18,2.2-0.38,3.31-0.6c0.1-0.02,0.19-0.04,0.28-0.06c0.47-0.09,0.93-0.19,1.4-0.28c0.26-0.05,0.52-0.1,0.77-0.16
		c0.18-0.04,0.36-0.08,0.55-0.12s0.37-0.08,0.55-0.12c0.08-0.02,0.17-0.04,0.25-0.05c0.32-0.07,0.63-0.14,0.95-0.21
		c0.19-0.04,0.38-0.09,0.58-0.13c0.29-0.07,0.58-0.13,0.88-0.2c0.05-0.01,0.11-0.03,0.16-0.04c0.33-0.08,0.66-0.16,1-0.24
		c0.34-0.08,0.67-0.16,1.01-0.25c0.38-0.09,0.76-0.19,1.14-0.29c0.48-0.12,0.96-0.24,1.44-0.37c0.24-0.06,0.48-0.12,0.72-0.19
		c0.3-0.08,0.61-0.16,0.91-0.24c0.42-0.11,0.83-0.22,1.24-0.34c0.61-0.17,1.21-0.33,1.81-0.5c0.35-0.1,0.7-0.2,1.05-0.3
		c0.05-0.01,0.1-0.03,0.16-0.04c0.31-0.09,0.63-0.18,0.94-0.27c0.03-0.01,0.05-0.01,0.08-0.02c0.42-0.12,0.83-0.24,1.24-0.36
		c1.23-0.36,2.46-0.74,3.67-1.11c0.31-0.1,0.62-0.19,0.92-0.29c0.35-0.11,0.69-0.22,1.03-0.33c0.66-0.21,1.32-0.42,1.97-0.63
		c0.36-0.11,0.71-0.23,1.06-0.35c0.44-0.15,0.88-0.29,1.32-0.43c2.75-0.91,5.38-1.82,7.82-2.68c0.2-0.07,0.4-0.14,0.59-0.21
		c0.19-0.06,0.37-0.13,0.55-0.2c0.21-0.07,0.41-0.15,0.62-0.22c0.14-0.05,0.29-0.1,0.43-0.15c0.1-0.04,0.19-0.07,0.29-0.1
		c0.18-0.07,0.36-0.13,0.54-0.2c0.42-0.15,0.83-0.3,1.23-0.45c0.2-0.07,0.4-0.15,0.6-0.22c0.2-0.07,0.39-0.14,0.58-0.22
		c0.06-0.02,0.12-0.04,0.18-0.06c0.29-0.11,0.57-0.21,0.85-0.32c0.9-0.34,1.75-0.66,2.54-0.96c0.51-0.2,1-0.38,1.47-0.56
		c0.26-0.1,0.5-0.2,0.75-0.29c0.34-0.13,0.67-0.26,0.98-0.38c0.89-0.35,1.65-0.65,2.26-0.89c0.08-0.03,0.15-0.06,0.22-0.09
		c0.22-0.09,0.42-0.17,0.6-0.24c0.07-0.03,0.13-0.05,0.2-0.08c0.41-0.17,0.65-0.27,0.71-0.29c0,0,0.01,0,0.01,0c0,0,0,0,0,0
		c22.17-6.15,30.96-22.17,30.96-22.17c0.11-0.15,0.21-0.31,0.32-0.47c0.06-0.1,0.13-0.2,0.19-0.3c0.06-0.1,0.13-0.2,0.19-0.29
		c0.16-0.24,0.31-0.5,0.47-0.76c0.08-0.12,0.15-0.25,0.23-0.38c0.07-0.12,0.14-0.24,0.21-0.36c0.09-0.15,0.17-0.31,0.26-0.46
		c0.02-0.03,0.04-0.07,0.06-0.1c0.1-0.18,0.2-0.37,0.3-0.56c0.11-0.2,0.22-0.42,0.33-0.63c0.08-0.15,0.15-0.3,0.23-0.45
		c0.08-0.15,0.15-0.3,0.23-0.45c0.08-0.15,0.15-0.31,0.23-0.46c0.3-0.62,0.6-1.26,0.9-1.92c0.22-0.5,0.45-1,0.66-1.52
		c0.4-0.93,0.79-1.88,1.17-2.86c0.12-0.3,0.23-0.59,0.35-0.89c0.14-0.37,0.28-0.74,0.42-1.12c0.07-0.19,0.14-0.38,0.21-0.57
		c0.07-0.19,0.14-0.38,0.21-0.57c0.07-0.19,0.14-0.38,0.21-0.58c0.23-0.64,0.45-1.28,0.68-1.93c0.1-0.3,0.21-0.6,0.31-0.91
		c0.08-0.24,0.16-0.47,0.24-0.71c0.07-0.2,0.13-0.4,0.2-0.6c0.07-0.2,0.13-0.4,0.2-0.61c0.13-0.38,0.25-0.76,0.37-1.14
		c0.14-0.43,0.28-0.86,0.42-1.3c0.71-2.25,1.39-4.54,2.04-6.82c0.1-0.35,0.2-0.7,0.3-1.05c0.02-0.08,0.04-0.16,0.06-0.24
		c0.06-0.19,0.11-0.38,0.16-0.58c0.11-0.41,0.23-0.83,0.34-1.24c0.06-0.21,0.11-0.41,0.17-0.62c0.23-0.82,0.45-1.64,0.66-2.45
		c0.11-0.4,0.22-0.81,0.32-1.21c0.07-0.27,0.14-0.54,0.21-0.81c0.09-0.33,0.17-0.66,0.26-1c0.29-1.13,0.57-2.24,0.84-3.33
		c0.1-0.4,0.2-0.8,0.29-1.2c0.1-0.41,0.2-0.82,0.3-1.23c0.09-0.37,0.18-0.73,0.26-1.09c0.26-1.09,0.5-2.14,0.74-3.15
		c0.08-0.34,0.15-0.67,0.23-1c0.49-2.13,0.91-4.06,1.27-5.72c0.05-0.26,0.11-0.5,0.16-0.74c0.07-0.33,0.14-0.65,0.2-0.96
		c0.03-0.13,0.06-0.27,0.08-0.4c0.03-0.11,0.05-0.22,0.07-0.33c0.02-0.1,0.04-0.2,0.06-0.31c0.02-0.09,0.03-0.17,0.05-0.26
		c0.01-0.06,0.03-0.13,0.04-0.2c0.07-0.32,0.13-0.62,0.19-0.9c0.03-0.13,0.05-0.25,0.08-0.37c0.05-0.24,0.1-0.46,0.13-0.66
		c0.01-0.06,0.02-0.12,0.04-0.18c0.03-0.14,0.05-0.27,0.08-0.38c0.01-0.06,0.02-0.11,0.03-0.15c0.01-0.05,0.02-0.1,0.03-0.13
		c0.04-0.21,0.06-0.32,0.06-0.32c0.01,0.1,0.01,0.21,0.02,0.31c0.01,0.15,0.02,0.29,0.03,0.44c0.01,0.13,0.02,0.25,0.03,0.38
		c0.01,0.1,0.02,0.2,0.03,0.3c0,0.01,0,0.02,0.01,0.03c0.01,0.1,0.02,0.2,0.04,0.3c0.01,0.1,0.03,0.2,0.04,0.31
		c0.01,0.11,0.03,0.23,0.05,0.34c0.02,0.13,0.04,0.26,0.07,0.38c0.02,0.09,0.03,0.17,0.05,0.26c0.02,0.1,0.04,0.21,0.07,0.31
		c0.03,0.13,0.06,0.25,0.09,0.37c0,0.01,0.01,0.03,0.01,0.04c0.01,0.04,0.02,0.09,0.04,0.14c0.01,0.04,0.02,0.08,0.03,0.12
		c0.04,0.15,0.08,0.29,0.13,0.43c0.03,0.11,0.07,0.22,0.1,0.32c0.02,0.06,0.04,0.13,0.07,0.19c0.03,0.09,0.06,0.17,0.09,0.25
		c0.03,0.07,0.05,0.14,0.08,0.21c0.04,0.09,0.07,0.18,0.11,0.27c0.01,0.02,0.02,0.04,0.03,0.06c0.04,0.09,0.08,0.18,0.12,0.27
		c0.04,0.08,0.08,0.17,0.12,0.25c0.1,0.21,0.21,0.41,0.33,0.61c0.05,0.09,0.11,0.18,0.16,0.27c0.03,0.04,0.05,0.09,0.08,0.13
		c0.03,0.04,0.06,0.08,0.08,0.13c0.06,0.08,0.11,0.17,0.17,0.25c0.06,0.08,0.12,0.16,0.18,0.24c0.06,0.08,0.12,0.15,0.18,0.23
		c0.06,0.07,0.12,0.15,0.19,0.22c0.09,0.1,0.17,0.19,0.26,0.29c0.05,0.05,0.1,0.1,0.15,0.15c0.13,0.13,0.27,0.26,0.4,0.37
		c0.06,0.06,0.13,0.11,0.2,0.17c0.14,0.12,0.29,0.23,0.44,0.34c-6.91,5.02-7.57,40.62-7.33,62.01c0.01,1.19,0.03,2.33,0.05,3.42
		c0,0,0,0,0,0c0.12,7.62,0.34,12.74,0.34,12.74c0.59,18.55,12.32,28.78,19.86,33.45v0c3.61,2.24,6.26,3.21,6.26,3.21
		c2.14-0.97,4.68-1.17,7.15-1l8.3,4.64c0.98,16.53,3.79,18.02,3.79,18.02c0,2.01-3.02,3.35-6.42,4.21
		C435.25,471.96,438.63,472.31,442.08,472.79z"/>
	<path class="st1" d="M271.91,589.65h-6.64c-0.09-0.05-0.19-0.1-0.27-0.16c-1.33-0.77-2.61-1.6-3.85-2.48
		c-0.39-0.28-0.77-0.57-1.16-0.86c-0.99-0.76-1.95-1.55-2.88-2.38c-0.14-0.13-0.29-0.26-0.43-0.38c-1.33-1.21-2.6-2.49-3.81-3.82
		c-0.15-0.16-0.29-0.32-0.43-0.49c-0.27-0.31-0.54-0.62-0.81-0.93c-0.13-0.15-0.26-0.31-0.39-0.47c-0.2-0.23-0.39-0.47-0.58-0.7
		c-0.13-0.15-0.25-0.31-0.38-0.47c-0.16-0.2-0.31-0.4-0.47-0.59c-0.93-1.19-1.82-2.41-2.67-3.66c-0.13-0.19-0.27-0.39-0.4-0.58
		c-0.02-0.03-0.04-0.06-0.06-0.09c-0.13-0.19-0.25-0.38-0.38-0.57c-0.15-0.23-0.3-0.45-0.44-0.68c-0.12-0.19-0.25-0.39-0.37-0.58
		c-0.13-0.2-0.26-0.41-0.38-0.61c-0.14-0.23-0.28-0.45-0.42-0.68c-0.13-0.21-0.25-0.42-0.37-0.63c-0.11-0.19-0.22-0.37-0.33-0.56
		c-0.27-0.46-0.53-0.91-0.78-1.37c-0.12-0.22-0.24-0.43-0.36-0.65c-0.83-1.51-1.6-3.04-2.34-4.56c-0.1-0.22-0.21-0.43-0.31-0.65
		c-0.72-1.52-1.39-3.04-2.01-4.55c-0.09-0.22-0.18-0.43-0.27-0.65c-0.1-0.24-0.2-0.49-0.29-0.73c-0.08-0.21-0.17-0.42-0.25-0.63
		c-0.52-1.32-1.01-2.63-1.47-3.91c-0.2-0.55-0.38-1.09-0.57-1.63c-0.21-0.61-0.41-1.21-0.6-1.8c-0.15-0.45-0.29-0.9-0.43-1.34
		c-0.12-0.39-0.24-0.78-0.36-1.16c-0.06-0.19-0.12-0.38-0.17-0.57c-0.14-0.48-0.28-0.95-0.42-1.42c-0.03-0.09-0.05-0.17-0.07-0.26
		c-0.05-0.18-0.1-0.36-0.15-0.54c-0.15-0.54-0.29-1.07-0.43-1.59c-0.07-0.26-0.14-0.52-0.2-0.77c-0.07-0.25-0.13-0.5-0.19-0.75
		c-0.04-0.16-0.08-0.33-0.12-0.49c-0.02-0.08-0.04-0.17-0.06-0.25c-0.08-0.31-0.15-0.63-0.23-0.93c-0.02-0.08-0.04-0.16-0.06-0.24
		c-0.07-0.31-0.14-0.6-0.21-0.89c-0.02-0.06-0.03-0.13-0.04-0.19c-0.05-0.22-0.1-0.45-0.15-0.66c-0.04-0.19-0.08-0.39-0.13-0.57
		c-0.14-0.62-0.26-1.2-0.37-1.73c-0.03-0.12-0.05-0.23-0.07-0.35c-0.52-2.58-0.74-4.1-0.74-4.1c-1.08-4.86-1.5-9.5-1.43-13.85
		c0-0.13,0-0.26,0.01-0.4c0-0.24,0.01-0.48,0.02-0.72c0-0.01,0-0.02,0-0.03c0.01-0.27,0.02-0.53,0.03-0.79
		c0.02-0.41,0.04-0.82,0.07-1.23c0.02-0.28,0.04-0.56,0.06-0.84c0.03-0.31,0.05-0.63,0.08-0.94c0.03-0.35,0.07-0.7,0.11-1.05
		c0.05-0.44,0.1-0.87,0.17-1.3c0.05-0.38,0.11-0.76,0.17-1.13c0.04-0.24,0.08-0.47,0.12-0.71c0.03-0.2,0.07-0.4,0.11-0.61
		s0.07-0.4,0.11-0.6c0.05-0.29,0.11-0.58,0.17-0.86v-0.01c0.12-0.57,0.24-1.13,0.37-1.69c0.21-0.91,0.45-1.8,0.69-2.67
		c0.06-0.19,0.11-0.39,0.17-0.58c0.15-0.53,0.31-1.05,0.48-1.55c0.08-0.26,0.17-0.51,0.25-0.76c0.07-0.2,0.14-0.4,0.21-0.6
		c0.47-1.35,0.97-2.65,1.49-3.88c0.01-0.03,0.02-0.05,0.04-0.08c0.01,0.08,0.02,0.16,0.03,0.24c2.08,20.16,7.13,37.07,7.13,37.07
		c6.02,3.56,24.9,36.12,24.9,36.12c1.48,2.85,3.62,12.36,5.77,23.37C271.6,588.07,271.75,588.86,271.91,589.65z"/>
	<path class="st2" d="M445.08,224.77c-3.62,4.61-3,14.78-3,14.78c-17.26-3.44-34.98,32.31-34.98,32.31l-1.73-6.34
		c-2.63-17.93-0.03-62.16-0.03-62.16c3.07-50.06-64.11-86.06-64.11-86.06c-6.56-3.04-12.93-5.58-19.09-7.69
		c-82.01-28.03-127.79,21.74-127.79,21.74s0,0,0,0c-21.49,12.73-25.48,55.88-26.19,74c-0.2,5.01-0.15,8.11-0.15,8.11
		c1.65,12.23-1.23,35.74-2.05,40.62c-0.1,0.57-0.15,0.88-0.15,0.88c-0.85,3.53-1.4,7.16-1.69,10.83l-0.02,0.04
		c0.01-0.1,0.01-0.21,0.02-0.31l-0.27,0.47c-3.87,0.86-6.2-8.13-7.35-14.46c0,0-0.01,0.03-0.04,0.09c-0.59-3.26-0.86-5.77-0.86-5.77
		c-1.53-17.4-4.93-19.63-4.93-19.63c-0.33,7.24,2.95,12.84,2.95,12.84c-8.56-2.31-11.31-24.63-11.31-24.63
		c-1.84,12.46,1.15,16.21,1.15,16.21c-13.17-16.8-12.24-48.35-12.24-48.35c9.33-76.9,55-59.94,55-59.94
		c-18.77-57.3,46.43-78.38,46.43-78.38c54.01-35.9,104.73-7.57,104.73-7.57c57.96,7.25,84.31,66.85,84.31,66.85
		c9.95,4.84,17.73,24.51,20.6,32.02c-1.86-2.78-4.72-4.54-5.03-4.78c5.4,4.7,4.83,19.52,4.83,19.52
		C456.23,173.72,445.08,224.77,445.08,224.77z"/>
	<path class="st3" d="M180.52,338.62c-11.97,3.8-13.06-10.06-13.06-10.06c0.33-9.22-10.97-59.28-10.97-59.28
		c-5.75-2.52-0.52-16.41-0.04-17.67c0.03-0.06,0.04-0.09,0.04-0.09c1.15,6.33,3.48,15.32,7.35,14.46l0.27-0.47
		c-0.01,0.1-0.02,0.21-0.02,0.31C161.47,300.1,180.52,338.62,180.52,338.62z"/>
	<path class="st4" d="M333.18,212.2l0.69-2.12c0,0,17.09,5.64,26.86,15.42c0,0-9.26-2.95-18.48,2.9l-10.28-0.85c0,0,1.14-0.49,0-2
		L333.18,212.2z"/>
	<path class="st5" d="M308.19,418.34c-16.15,5.73-19.82,6.58-34.58,5.61c0,0-20.87,1.12-38.3-2.55v0
		c-10.32-2.18-17.17-7.62-22.29-12.82c0,0-19.76-20.35-32.49-69.97c0,0-19.16-38.75-16.4-73.11c0,0,19.94,109.75,52.72,90.13
		l12.22,7.23c0,0-14.51,26.83,3.93,43.95C232.99,406.83,253.38,426.73,308.19,418.34z"/>
	<path class="st4" d="M176.93,258.01c0,0-5.35-21.69,1.98-30.18c0,0,25.39-17.4,43.11-12.65c0,0,6.21,1.47,3.23,14.52
		c0,0-16.56,7.64-38.11,7.56C187.13,237.25,176.07,248.15,176.93,258.01z"/>
	<path class="st1" d="M285.94,287.82L285.94,287.82c-2.07,2.55-4.13,4.83-6.17,6.86c-9.96,4.76-26.69-2.03-26.69-2.03
		c-7.2-6.95-14.87,1.13-15.04,1.31l0,0c-6.7,4.85-11.42,4.39-11.42,4.39c-3.95,0.24-6.62-0.73-8.38-2.38
		c-0.03-0.03-0.04-0.04-0.04-0.04c-6.4-6.11-0.59-21.53-0.59-21.53c1.82,4.99,8.03,5.39,8.03,5.39c7.12-2.37,6.33-8.2,6.33-8.2
		c2.25-2.51,5.47,3.2,5.47,3.2c5.42,6.58,11.05,3.67,11.05,3.67c6.66-2.21,11.27-9.96,11.27-9.96c5.49-2.07,10.24,0,10.24,0
		c7.2,1.95,9.43,11.86,9.43,11.86c3.3,5.18,6.33-8.78,6.33-8.78c0.13,0.57,0.25,1.13,0.36,1.68
		C287.42,279.65,287.19,284.38,285.94,287.82z"/>
	<path class="st1" d="M285.94,287.83c-1.23,3.4-3.45,5.56-6.17,6.86C281.81,292.65,283.87,290.37,285.94,287.83z"/>
	<path class="st6" d="M290.24,220.3c0,0,9.09-15.23,37.05-10.09c0,0,14.97,3.62,17.13,11.53c0,0-2.16,3.07-13.94,3.94
		C319.38,226.5,297.05,228,290.24,220.3z"/>
	<path class="st6" d="M223.66,226.41c0,0,1.87-9.74-4.94-10.23c0,0-20.86-3.71-35.57,14.87
		C183.15,231.05,203.97,235.77,223.66,226.41z"/>
	<path class="st7" d="M311.93,224.04c0,0-8.7,0.22-15.16-1.87c-1.5-0.49-2.89-1.1-4.01-1.87c0,0,2.03-2.71,5.96-5.18
		c0.01,0,0.01-0.01,0.01-0.01c3.18-1.99,7.61-3.82,13.21-3.92C311.93,211.21,306.08,220.82,311.93,224.04z"/>
	<path class="st7" d="M342.26,221.38c-0.34,0.54-1.02,0.97-1.9,1.32h0c-3.65,1.43-10.67,1.37-10.67,1.37c3.79-2.57,2.59-9.5,1.34-10
		c4.07,0.63,7.38,3.25,9.33,5.18h0c0,0,0.01,0,0.01,0.01c0.01,0.01,0.01,0.01,0.03,0.03C341.59,220.46,342.26,221.38,342.26,221.38z
		"/>
	<path class="st1" d="M238.04,201.33l-25.69-0.88c0,0-35.42,2.16-44.35,13.01c0.72-18.12,2.34-67.59,26.34-82.11
		c-0.29,0.41-19.28,25.06-16.9,41.05c0,0,19.91-13.82,47.57,4.19C225.01,176.59,236.86,192.22,238.04,201.33z"/>
	<path class="st7" d="M204.38,230.89c0,0-6.99,0.37-12.15-0.01l0,0c-2.74-0.2-4.96-0.61-5.34-1.39c0,0,2.22-2.6,5.33-5.02
		c0,0,0-0.01,0.01-0.01c0,0,0.01-0.01,0.01-0.01c3.03-2.36,6.83-4.59,10.29-4.7C202.52,219.75,199.4,228.55,204.38,230.89z"/>
	<path class="st8" d="M223.84,285.34c0,0,2.34-8.78,9.95-4.68c0,0,6.88,3.37,0,6.15C233.8,286.8,223.55,289.88,223.84,285.34z"/>
	<path class="st8" d="M253.56,283.69c0,0,8.64-0.26,9.81,3.11c0,0,8.78,2.2,9.07-4.1c0,0-7.03-8.18-16.83-3.14
		C255.61,279.57,250.78,280.59,253.56,283.69z"/>
	<path class="st9" d="M291.61,350.77l-0.01,0.01l-11.47,5.76c0,0,0,0-0.01,0c-8.59,3.73-20.26,7.51-28.67,5.26
		c-0.01,0-0.02-0.01-0.03-0.01c-0.66-0.19-1.12-0.35-1.35-0.43c-0.1-0.04-0.16-0.06-0.16-0.06s-9.54-1.18-14.81,1.17
		c0,0-16.39,4.17-20.56-12.51c0,0-15.81-7.83,22.31-25.69c0,0,5.43,5.78,12.46-0.15c0,0,12.39-1.04,24.11,8.05
		c0,0,13.28,14.99,18.4,16.02C291.82,348.19,294.34,348.8,291.61,350.77z"/>
	<path class="st9" d="M251.43,361.79c-0.41-0.11-0.81-0.24-1.21-0.38C250.48,361.5,250.88,361.63,251.43,361.79z"/>
	<path class="st9" d="M250.08,361.36c0.05,0.02,0.1,0.03,0.14,0.05C250.17,361.39,250.12,361.38,250.08,361.36z"/>
	<path class="st10" d="M291.61,350.77c0,0-38.22-9.95-47.64-5.19c0,0-7.12-1.14-19.52,1.63c-3,0.67-6.3,1.57-9.89,2.76
		c0.28-0.16,9.89-2.76,14.14-9.11c0,0,9.27,4.8,14.76-2.23c0,0,9.37,4.47,18,0.66C261.46,339.28,283.26,344.22,291.61,350.77z"/>
	<path class="st5" d="M398.46,295.29c-1.61-10.25-3.22-76.79-3.22-76.79c0.44-49.57-50.5-75.14-50.5-75.14
		c-1.32-1.32-22.61-34.03-22.61-34.03c6.16,2.1,12.53,4.65,19.09,7.69c0,0,67.18,36.01,64.11,86.06c0,0-3.81,57.74,1.75,68.78
		L398.46,295.29z"/>
	<path class="st5" d="M398.46,295.29l-2.78,26.13c0,0-9,46.77-19.54,61.92c-0.58,0.99-5.49,16.36-47.14,28.32
		c0,0,31.74-32.05,31.74-80.8C360.73,330.86,364.62,299.84,398.46,295.29z"/>
	<path class="st9" d="M229.06,372.91c0,0,14.21-3.88,28.41,2.63C257.48,375.54,244.9,359.22,229.06,372.91z"/>
	<path class="st11" d="M295.47,250.07c0,0,8.94,43.06,41.37,39.44c0,0,49.45-5.85,33.65-41.42c0,0-15.42-20.8-41.49,0.44
		c0,0-12.23,6.8-28.37-0.78C300.63,247.75,296.68,245.46,295.47,250.07z"/>
	<path class="st4" d="M290.24,220.3c0,0,10.6,21.13,53.3,8.58c0,0,11.27-5.36,17.2-3.38c0,0-9-5.14-27.88,1.82
		C332.85,227.32,307.08,234.99,290.24,220.3z"/>
	<path class="st4" d="M186.89,237.46c0,0,26.28,6.41,44.61-4.73c0,0-16.36,6.69-25.09,3.18c0,0,15.67,0.45,19.5-3.67
		c0,0-14.38,3.75-28.23,0.16C197.68,232.4,187.27,234.07,186.89,237.46z"/>
	<path class="st5" d="M212.35,200.45c0,0,18.64,10.22,17.99,23.22c0,0,13.4-3.46,7.7-22.34c0,0-9.37-10.1-22.1-12.29L212.35,200.45z
		"/>
	<path class="st1" d="M342.26,208.79c-19.67-9.63-39.95-4.75-46.37-2.78c-2.02-3.15-2.84-6.89-6.05-6.66c0,0-17.1,20.03-7.22,30.14
		c-19.25,1.33-10.17-22.04-10.17-22.04c7.98-27.53,35.36-25.23,35.36-25.23c14.34-0.25,29.25,10.98,29.25,10.98
		C348.26,195.18,342.26,208.79,342.26,208.79z"/>
	<path id="lông" class="st12" d="M173.49,191.23c0,0,6.59-12.73,21.08-8.78c0,0,15.37,3.07,15.37,6.15c0,0,12.29-0.44,8.34-10.1
		c0,0-21.52-14.05-36.01-5.27C182.28,173.22,173.93,177.61,173.49,191.23z"/>
	<path class="st5" d="M290.24,227.67c-0.72,1.38-7.63,1.82-7.63,1.82c-10.32-10.16,7.22-30.14,7.22-30.14
		c3.21-0.23,4.24,3.63,6.05,6.66c1.61,2.69,1.61,2.77,1.61,2.77C284.53,215.16,290.24,227.67,290.24,227.67z"/>
	<path class="st13" d="M402.1,307.02c0,0,1.49-9.97,11.15-10.4c0,0,4.39-11.36,0-17.04c0,0,3.18,1.74,5.16-2.13
		c0,0,4.28-5.35,6.26,0c0,0,24.04-3.33,8.56,17.97c0,0-2.31,14.06-15.48,8.46c0,0-11.41-0.99-10.65,1.98
		C407.1,305.83,406.52,309.99,402.1,307.02z"/>
	<path class="st13" d="M404.24,316.04c0,0,7.9,9.88,14.49-3.29C418.73,312.75,411.62,320.96,404.24,316.04z"/>
	<path class="st13" d="M424.66,271.61c0,0,1.98-9.57,4.61-11.88C429.27,259.73,436.08,263.65,424.66,271.61z"/>
	<path class="st5" d="M434.54,255.99c0,0,7.25-10.76,11.86-9.66c0,0,6.15,33.59-5.93,54.01c0,0-6.37,17.13-16.69,12.4
		c0,0-0.22-3.5,5.27-4.66c0,0,19.1-2.7,10.76-39.36C439.81,268.73,446.18,253.14,434.54,255.99z"/>
	<path class="st14" d="M442.09,472.79c-0.01,0.11-0.01,0.22-0.01,0.32v0.01c-0.03,0.65-0.06,1.3-0.08,1.95
		c-0.81,14.16-6.76,25.97-12.68,34.38c-2.82,4-5.63,7.24-7.87,9.59l-33.73-39.07l-38.93-62.85c0,0-71.57,39.01-102.73,22.72
		c-2.07-1.08-7.37-4.75-7.68-7.45c0,0-2.8-10.01-3.06-10.94c-0.01-0.01-0.01-0.03-0.01-0.04c0-0.01-0.01-0.02-0.01-0.03c0,0,0,0,0,0
		c1.67,0.32,4.48,0.83,6.52,1.14c0.13,0.02,0.27,0.04,0.4,0.06c0.02,0,0.04,0.01,0.06,0.01c0.1,0.01,0.19,0.03,0.28,0.04
		c0.09,0.01,0.18,0.03,0.26,0.04c0.27,0.04,0.54,0.07,0.81,0.11c0.21,0.03,0.42,0.06,0.64,0.08c0.06,0.01,0.11,0.01,0.17,0.02
		c0.27,0.03,0.54,0.07,0.8,0.1c1.34,0.16,2.67,0.29,3.99,0.41c0.24,0.02,0.48,0.04,0.72,0.06c0.56,0.04,1.11,0.09,1.66,0.13
		c0.48,0.04,0.95,0.07,1.43,0.1c0.54,0.03,1.07,0.07,1.6,0.1c0.17,0.01,0.35,0.02,0.52,0.03c0.16,0.01,0.33,0.02,0.49,0.03
		c2.54,0.13,4.93,0.2,7.1,0.24c0.21,0,0.42,0.01,0.63,0.01c6.12,0.08,10.25-0.15,10.25-0.15c0.87,0.06,1.78,0.08,2.72,0.08
		c0.27,0,0.55,0,0.82-0.01c0.3,0,0.6-0.01,0.9-0.02c0.13,0,0.27-0.01,0.4-0.01c0.2-0.01,0.4-0.02,0.61-0.03
		c0.26-0.01,0.53-0.03,0.79-0.04c0.08-0.01,0.15-0.01,0.23-0.02c0.27-0.02,0.54-0.04,0.81-0.06c0.32-0.03,0.64-0.05,0.96-0.08
		c1.46-0.13,2.97-0.32,4.51-0.54c0.31-0.04,0.62-0.09,0.93-0.14c0.19-0.03,0.39-0.06,0.58-0.09c0.3-0.05,0.6-0.1,0.9-0.15
		c1.09-0.18,2.2-0.38,3.31-0.6c0.1-0.02,0.19-0.04,0.28-0.06c0.46-0.09,0.93-0.19,1.4-0.28c0.26-0.05,0.52-0.1,0.77-0.16
		c0.18-0.04,0.36-0.08,0.55-0.12s0.37-0.08,0.55-0.12c0.08-0.02,0.17-0.04,0.25-0.05c0.32-0.07,0.63-0.14,0.95-0.21
		c0.19-0.04,0.38-0.09,0.58-0.13c0.29-0.07,0.58-0.13,0.88-0.2c0.05-0.01,0.11-0.03,0.16-0.04c0.33-0.08,0.66-0.15,1-0.24
		c0.34-0.08,0.67-0.16,1.01-0.25c0.38-0.09,0.76-0.19,1.14-0.29c0.48-0.12,0.96-0.24,1.44-0.37c0.24-0.06,0.48-0.12,0.72-0.19
		c0.3-0.08,0.61-0.16,0.91-0.24c0.42-0.11,0.83-0.22,1.24-0.34c0.61-0.17,1.21-0.33,1.81-0.5c0.35-0.1,0.7-0.2,1.05-0.3
		c0.05-0.01,0.1-0.03,0.16-0.04c0.31-0.09,0.63-0.18,0.94-0.27c0.03-0.01,0.05-0.01,0.08-0.02c0.42-0.12,0.83-0.24,1.24-0.36
		c1.23-0.36,2.46-0.74,3.67-1.11c0.31-0.1,0.62-0.19,0.92-0.29c0.35-0.11,0.69-0.22,1.03-0.33c0.66-0.21,1.32-0.42,1.97-0.63
		c0.36-0.11,0.71-0.23,1.06-0.35c0.44-0.15,0.88-0.29,1.32-0.43c2.75-0.91,5.38-1.82,7.82-2.68c0.2-0.07,0.4-0.14,0.59-0.21
		c0.19-0.06,0.37-0.13,0.55-0.2c0.21-0.07,0.41-0.15,0.62-0.22c0.14-0.05,0.29-0.1,0.43-0.15c0.1-0.04,0.19-0.07,0.29-0.1
		c0.18-0.07,0.36-0.13,0.54-0.2c0.42-0.15,0.83-0.3,1.23-0.45c0.2-0.07,0.4-0.15,0.6-0.22c0.2-0.07,0.39-0.14,0.58-0.22
		c0.06-0.02,0.12-0.04,0.18-0.06c0.29-0.11,0.57-0.21,0.85-0.32c0.9-0.34,1.75-0.66,2.54-0.96c0.51-0.2,1-0.38,1.47-0.56
		c0.26-0.1,0.5-0.2,0.75-0.29c0.34-0.13,0.67-0.26,0.98-0.38c0.89-0.35,1.65-0.65,2.26-0.89c0.08-0.03,0.15-0.06,0.22-0.09
		c0.22-0.09,0.42-0.17,0.6-0.24c0.07-0.03,0.13-0.05,0.2-0.08c0.41-0.17,0.65-0.27,0.71-0.29c0,0,0.01,0,0.01,0c0,0,0,0,0,0
		c22.17-6.15,30.96-22.17,30.96-22.17c0.11-0.15,0.21-0.31,0.32-0.47c0.06-0.1,0.13-0.2,0.19-0.3c0.06-0.1,0.13-0.19,0.19-0.29
		c0.16-0.24,0.31-0.5,0.47-0.76c0.08-0.12,0.15-0.25,0.23-0.38c0.07-0.12,0.14-0.24,0.21-0.36c0.09-0.15,0.17-0.31,0.26-0.46
		c0.02-0.03,0.04-0.07,0.06-0.1c0.1-0.18,0.2-0.37,0.3-0.56c0.11-0.2,0.22-0.42,0.33-0.63c0.08-0.15,0.15-0.3,0.23-0.45
		c0.08-0.15,0.15-0.3,0.23-0.45c0.08-0.15,0.15-0.31,0.23-0.46c0.3-0.62,0.6-1.26,0.9-1.92c0.22-0.5,0.45-1,0.66-1.52
		c0.4-0.93,0.79-1.88,1.17-2.86c0.12-0.3,0.23-0.59,0.35-0.89c0.14-0.37,0.28-0.74,0.42-1.12c0.07-0.19,0.14-0.38,0.21-0.57
		c0.07-0.19,0.14-0.38,0.21-0.57c0.07-0.19,0.14-0.38,0.21-0.58c0.23-0.64,0.45-1.28,0.68-1.93c0.1-0.3,0.21-0.6,0.31-0.91
		c0.08-0.24,0.16-0.47,0.24-0.71c0.07-0.2,0.13-0.4,0.2-0.6c0.07-0.2,0.13-0.4,0.2-0.61c0.13-0.38,0.25-0.76,0.37-1.14
		c0.14-0.43,0.28-0.86,0.42-1.3c0.71-2.25,1.39-4.54,2.04-6.82c0.1-0.35,0.2-0.7,0.3-1.05c0.02-0.08,0.04-0.16,0.06-0.24
		c0.06-0.19,0.11-0.38,0.16-0.58c0.11-0.41,0.23-0.83,0.34-1.24c0.06-0.21,0.12-0.41,0.17-0.62c0.23-0.82,0.45-1.64,0.66-2.45
		c0.11-0.41,0.22-0.81,0.32-1.21c0.07-0.27,0.14-0.54,0.21-0.81c0.09-0.33,0.17-0.66,0.26-1c0.29-1.13,0.57-2.24,0.84-3.33
		c0.1-0.4,0.2-0.8,0.29-1.2c0.1-0.41,0.2-0.82,0.3-1.23c0.09-0.37,0.18-0.73,0.26-1.09c0.26-1.09,0.5-2.14,0.74-3.15
		c0.08-0.34,0.15-0.67,0.23-1c0.49-2.13,0.91-4.06,1.27-5.72c0.05-0.26,0.11-0.5,0.16-0.74c0.07-0.33,0.14-0.65,0.2-0.96
		c0.03-0.13,0.06-0.27,0.08-0.4c0.03-0.11,0.05-0.22,0.07-0.33c0.02-0.1,0.04-0.2,0.06-0.31c0.02-0.09,0.03-0.17,0.05-0.26
		c0.01-0.06,0.03-0.13,0.04-0.2c0.07-0.32,0.13-0.62,0.19-0.9c0.03-0.13,0.05-0.25,0.08-0.37c0.05-0.24,0.1-0.46,0.13-0.66
		c0.01-0.06,0.02-0.12,0.04-0.18c0.03-0.14,0.05-0.27,0.08-0.38c0.01-0.06,0.02-0.11,0.03-0.15c0.01-0.05,0.02-0.1,0.03-0.13
		l0.08-0.01c0.01,0.15,0.02,0.29,0.03,0.44c0.01,0.13,0.02,0.25,0.03,0.38c0.01,0.1,0.02,0.2,0.03,0.3c0,0.01,0,0.02,0.01,0.03
		c0.01,0.1,0.03,0.2,0.04,0.3c0.01,0.1,0.03,0.2,0.04,0.31c0.01,0.11,0.03,0.23,0.05,0.34c0.02,0.13,0.04,0.26,0.07,0.38
		c0.02,0.09,0.03,0.17,0.05,0.26c0.02,0.1,0.04,0.21,0.07,0.31c0.03,0.13,0.06,0.25,0.09,0.37c0,0.01,0.01,0.03,0.01,0.04
		c0.01,0.04,0.02,0.09,0.04,0.14c0.01,0.04,0.02,0.08,0.03,0.12c0.04,0.15,0.08,0.29,0.13,0.43c0.03,0.11,0.07,0.22,0.1,0.32
		c0.02,0.06,0.04,0.13,0.07,0.19c0.03,0.09,0.06,0.17,0.09,0.25c0.03,0.07,0.05,0.14,0.08,0.21c0.04,0.09,0.07,0.18,0.11,0.27
		c0.01,0.02,0.02,0.04,0.03,0.06c0.04,0.09,0.08,0.18,0.12,0.27c0.04,0.08,0.08,0.17,0.12,0.25c0.1,0.21,0.21,0.41,0.33,0.61
		c0.05,0.09,0.11,0.18,0.16,0.27c0.03,0.04,0.05,0.09,0.08,0.13c0.03,0.04,0.06,0.08,0.08,0.13c0.06,0.08,0.11,0.17,0.17,0.25
		c0.06,0.08,0.12,0.16,0.18,0.24c0.06,0.08,0.12,0.15,0.18,0.23c0.06,0.07,0.12,0.15,0.19,0.22c0.09,0.1,0.17,0.19,0.26,0.29
		c0.05,0.05,0.1,0.1,0.15,0.15c0.13,0.13,0.27,0.26,0.4,0.37c0.06,0.06,0.13,0.11,0.2,0.17c0.14,0.12,0.29,0.23,0.44,0.34
		c-6.91,5.02-7.57,40.62-7.33,62.01c0.01,1.19,0.03,2.33,0.05,3.42c0,0,0,0,0,0c0.12,7.62,0.34,12.74,0.34,12.74
		c0.59,18.55,12.32,28.78,19.86,33.45v0c3.61,2.24,6.26,3.21,6.26,3.21c2.14-0.97,4.68-1.17,7.15-1l8.3,4.64
		c0.98,16.53,3.79,18.02,3.79,18.02c0,2.01-3.02,3.35-6.42,4.21C435.25,471.96,438.63,472.31,442.09,472.79L442.09,472.79z"/>
	<path class="st15" d="M279.77,294.69c-32.67,32.64-60.4,2.55-61.52,1.3c1.76,1.66,4.43,2.62,8.38,2.38c0,0,4.72,0.46,11.42-4.39
		l0,0c0.17-0.18,7.84-8.26,15.04-1.31C253.08,292.66,269.81,299.45,279.77,294.69z"/>
	<path class="st5" d="M289.42,290.35c0,0-10.21,14.6-35.42,4.43c0,0-2.05-0.88-0.91-2.12c0,0,40.22,16.33,33.06-19.39
		c-0.49-3.31-2.02-7.43-5.4-12.44C280.75,260.82,297.76,277.84,289.42,290.35z"/>
	<path class="st5" d="M238.04,293.98c0,0,5.96-4.61,15.47,0.54l-0.43-1.85C253.08,292.66,246.6,284.76,238.04,293.98z"/>
	<path class="st6" d="M181.29,226.37c0,0,18.66-17.64,40.62-11.79C221.9,214.58,199.07,204.32,181.29,226.37z"/>
	<path class="st6" d="M295.02,212.8c0,0,22.31-12.29,47.24,0.82C342.26,213.62,317.68,196.77,295.02,212.8z"/>
	<path class="st16" d="M290.24,184.97c0,0,49.68-9.77,59.34,0c0,0-7.96-19.74-29.67-19.91
		C319.91,165.06,271.08,164.88,290.24,184.97z"/>
	<path class="st5" d="M192.22,230.88c-2.74-0.2-4.96-0.61-5.34-1.39c0,0,2.22-2.6,5.33-5.02
		C191.98,224.69,187.82,228.82,192.22,230.88z"/>
	<path class="st4" d="M225.98,260.03c0,0,23.05-25.32,19.76-45.41c0,0-11.87,6.57-12.86,19.08
		C232.88,233.71,234.87,246.82,225.98,260.03z"/>
	<path class="st14" d="M271.45,587.28c-2.15-11.01-4.3-20.52-5.77-23.37c0,0-18.88-32.57-24.9-36.12c0,0-5.04-16.91-7.13-37.07
		c-0.01-0.08-0.02-0.16-0.03-0.24c0.06-0.13,0.11-0.27,0.17-0.4c0.1-0.22,0.19-0.44,0.29-0.66c0.06-0.15,0.13-0.3,0.2-0.45
		c0.06-0.13,0.12-0.27,0.18-0.4c0.46-0.99,0.92-1.94,1.39-2.83c0.1-0.19,0.2-0.38,0.3-0.57c0.1-0.2,0.21-0.39,0.31-0.59
		c0.18-0.33,0.36-0.66,0.54-0.98c0.2-0.36,0.41-0.71,0.61-1.05c0.1-0.16,0.19-0.32,0.29-0.48c0.1-0.16,0.19-0.31,0.28-0.46
		c0.09-0.15,0.19-0.3,0.28-0.45c0.09-0.15,0.19-0.29,0.27-0.43c0.09-0.14,0.18-0.28,0.27-0.42c0.18-0.27,0.35-0.54,0.52-0.79
		c0.08-0.13,0.17-0.25,0.25-0.37c1.17-1.71,2.12-2.9,2.64-3.53c0.29-0.2,0.45-0.29,0.45-0.29c3.95,69.38,45.23,74.65,45.23,74.65
		C302.33,571.31,282.76,582.74,271.45,587.28z"/>
	<path class="st5" d="M271.45,587.28c-1.79,0.72-3.37,1.27-4.58,1.65c-0.81,0.26-1.45,0.45-1.88,0.56c-1.33-0.77-2.61-1.6-3.85-2.48
		c-0.39-0.28-0.77-0.57-1.16-0.86c-0.99-0.76-1.95-1.55-2.88-2.38c-0.14-0.13-0.29-0.26-0.43-0.38c-1.33-1.21-2.6-2.49-3.81-3.82
		c-0.15-0.16-0.29-0.32-0.43-0.49c-0.27-0.31-0.54-0.62-0.81-0.93c-0.13-0.15-0.26-0.31-0.39-0.47c-0.2-0.23-0.39-0.47-0.58-0.7
		c-0.13-0.15-0.25-0.31-0.38-0.47c-0.16-0.2-0.31-0.4-0.47-0.59c-0.93-1.19-1.82-2.41-2.67-3.66c-0.13-0.19-0.27-0.39-0.4-0.58
		c-0.02-0.03-0.04-0.06-0.06-0.09c-0.13-0.19-0.25-0.38-0.38-0.57c-0.15-0.23-0.3-0.45-0.44-0.68c-0.12-0.19-0.25-0.39-0.37-0.58
		c-0.13-0.2-0.26-0.41-0.38-0.61c-0.14-0.23-0.28-0.45-0.42-0.68c-0.13-0.21-0.25-0.42-0.37-0.63c-0.11-0.19-0.22-0.37-0.33-0.56
		c-0.27-0.46-0.53-0.91-0.78-1.37c-0.12-0.22-0.24-0.43-0.36-0.65c-0.83-1.51-1.6-3.04-2.34-4.56c-0.1-0.22-0.21-0.43-0.31-0.65
		c-0.72-1.52-1.39-3.04-2.01-4.55c-0.09-0.22-0.18-0.43-0.27-0.65c-0.1-0.24-0.2-0.49-0.29-0.73c-0.08-0.21-0.17-0.42-0.25-0.63
		c-0.52-1.32-1.01-2.63-1.47-3.91c-0.2-0.55-0.38-1.09-0.57-1.63c-0.21-0.61-0.41-1.21-0.6-1.8c-0.15-0.45-0.29-0.9-0.43-1.34
		c-0.12-0.39-0.24-0.78-0.36-1.16c-0.06-0.19-0.12-0.38-0.17-0.57c-0.14-0.48-0.28-0.95-0.42-1.42c-0.03-0.09-0.05-0.17-0.07-0.26
		c-0.05-0.18-0.1-0.36-0.15-0.54c-0.15-0.54-0.3-1.07-0.43-1.59c-0.14-0.52-0.27-1.02-0.4-1.52c-0.04-0.16-0.08-0.33-0.12-0.49
		c-0.02-0.08-0.04-0.17-0.06-0.25c-0.08-0.31-0.15-0.63-0.23-0.93c-0.02-0.08-0.04-0.16-0.06-0.24c-0.07-0.31-0.14-0.6-0.21-0.89
		c-0.02-0.06-0.03-0.13-0.04-0.19c-0.05-0.22-0.1-0.45-0.15-0.66c-0.04-0.19-0.08-0.39-0.13-0.57c-0.14-0.62-0.26-1.2-0.37-1.73
		c-0.03-0.12-0.05-0.23-0.07-0.35c-0.52-2.58-0.74-4.1-0.74-4.1c-1.08-4.86-1.5-9.5-1.43-13.85c0-0.13,0-0.26,0.01-0.4
		c0-0.24,0.01-0.48,0.02-0.72c0-0.01,0-0.02,0-0.03c0.01-0.27,0.02-0.53,0.03-0.79c0.02-0.41,0.04-0.82,0.07-1.23
		c0.02-0.28,0.04-0.56,0.06-0.84c0.03-0.31,0.05-0.63,0.08-0.94c0.03-0.35,0.07-0.7,0.11-1.05c0.05-0.44,0.1-0.87,0.17-1.3
		c0.05-0.38,0.11-0.76,0.17-1.13c0.04-0.24,0.08-0.47,0.12-0.71c0.03-0.2,0.07-0.4,0.11-0.61s0.07-0.4,0.11-0.6
		c0.05-0.29,0.11-0.58,0.17-0.86v-0.01c0.12-0.57,0.24-1.13,0.37-1.69c0.21-0.91,0.45-1.8,0.69-2.67c0.06-0.19,0.11-0.39,0.17-0.58
		c0.15-0.52,0.31-1.04,0.48-1.55c0.08-0.26,0.17-0.51,0.25-0.76c0.07-0.2,0.14-0.4,0.21-0.6c0.47-1.35,0.97-2.65,1.49-3.88
		c0.01-0.03,0.02-0.05,0.04-0.08c0.01,0.08,0.02,0.16,0.03,0.24c2.08,20.16,7.13,37.07,7.13,37.07c6.02,3.56,24.9,36.12,24.9,36.12
		C267.15,566.76,269.3,576.27,271.45,587.28z"/>
	<g>
		<g>
			<path class="st11" d="M337.39,265.18c1.93,0,1.93-3,0-3C335.46,262.18,335.46,265.18,337.39,265.18L337.39,265.18z"/>
		</g>
	</g>
	<path class="st11" d="M275.57,310.18c0,0,18.62-9.88,19.94-21.74c0,0,18.5,19.21,14.55,39.3
		C310.06,327.74,281.5,319.4,275.57,310.18z"/>
	<path class="st11" d="M273.27,256.08c0,0,6.38,3.15,5.17,7.06c0,0-5.73,2.95-5.88-2.13C272.56,261.01,274.88,256.99,273.27,256.08z
		"/>
	<path class="st5" d="M296.77,222.17c-1.5-0.49-2.89-1.1-4.01-1.87c0,0,2.03-2.71,5.96-5.18
		C298.48,215.32,293.53,219.35,296.77,222.17z"/>
	<path class="st0" d="M340.36,219.25C340.36,219.24,340.35,219.24,340.36,219.25L340.36,219.25
		C340.36,219.24,340.36,219.24,340.36,219.25z"/>
	<path class="st0" d="M342.26,221.38c-0.34,0.54-1.02,0.97-1.9,1.32h0c1.62-1.63,0.27-3.17,0.03-3.42
		C341.59,220.46,342.26,221.38,342.26,221.38z"/>
	<path class="st5" d="M291.6,350.77c-13.68,17.17-34.37,12.7-40.14,11.02c8.4,2.25,20.08-1.53,28.67-5.26c0,0,0,0,0.01,0
		L291.6,350.77z"/>
	<path class="st11" d="M297.72,356.78c0,0-0.59-4.68,2.2-6c0,0,5.85,1.61,6.73,4.24C306.64,355.02,301.67,358.82,297.72,356.78z"/>
	<path class="st17" d="M442.08,472.79c0,0.11,0,0.22-0.01,0.34c-4.11-0.05-7.94-0.4-11.52-1.03c-0.42-0.07-0.84-0.15-1.25-0.23
		c-1.92-0.37-3.76-0.82-5.53-1.34c-45.66-13.43-43.25-74.83-42.34-86.74c-1.92,13.32-17.72,21.71-17.72,21.71
		c-52.56,21.95-71.25,16.85-71.63,16.74c0.1-0.02,0.19-0.04,0.28-0.06c0.46-0.09,0.93-0.19,1.4-0.28c0.26-0.05,0.52-0.1,0.77-0.16
		c0.36-0.08,0.73-0.15,1.1-0.24c0.08-0.02,0.17-0.04,0.25-0.05c0.32-0.07,0.63-0.14,0.95-0.21c0.19-0.04,0.38-0.09,0.58-0.13
		c0.35-0.08,0.69-0.16,1.04-0.24c0.33-0.08,0.66-0.15,1-0.24c0.33-0.08,0.67-0.16,1.01-0.25c0.38-0.09,0.76-0.19,1.14-0.29
		c2.04-0.51,4.09-1.06,6.12-1.64c0.35-0.1,0.7-0.2,1.05-0.3c0.05-0.01,0.1-0.03,0.16-0.04c0.34-0.1,0.68-0.2,1.02-0.29
		c1.66-0.48,3.3-0.98,4.91-1.48c0.31-0.1,0.62-0.19,0.92-0.29c1.38-0.43,2.73-0.87,4.06-1.3c0.44-0.15,0.88-0.29,1.32-0.43
		c2.75-0.91,5.38-1.82,7.82-2.68c0.2-0.07,0.4-0.14,0.59-0.21c0.18-0.06,0.36-0.13,0.55-0.2c0.21-0.07,0.41-0.15,0.62-0.22
		c0.14-0.05,0.29-0.1,0.43-0.15c0.71-0.26,1.4-0.5,2.06-0.75c0.4-0.15,0.79-0.29,1.18-0.43c0.06-0.02,0.12-0.04,0.18-0.06
		c0.29-0.11,0.57-0.21,0.85-0.32c1.8-0.67,3.4-1.28,4.76-1.81c0.34-0.13,0.67-0.26,0.98-0.38c1.35-0.53,2.4-0.95,3.08-1.23
		c0.07-0.03,0.13-0.05,0.2-0.08c0.47-0.19,0.72-0.29,0.72-0.29c22.17-6.15,30.96-22.17,30.96-22.17c0.86-1.24,1.71-2.69,2.55-4.31
		c0.08-0.15,0.15-0.29,0.23-0.45c0.08-0.15,0.15-0.3,0.23-0.45c0.08-0.15,0.15-0.31,0.23-0.46c0.3-0.62,0.6-1.26,0.9-1.92
		c0.22-0.5,0.45-1,0.66-1.52c0.4-0.93,0.79-1.88,1.17-2.86c0.12-0.3,0.23-0.59,0.35-0.89c0.14-0.37,0.28-0.74,0.42-1.12
		c0.07-0.19,0.14-0.38,0.21-0.57c0.07-0.19,0.14-0.38,0.21-0.57c0.07-0.19,0.14-0.38,0.21-0.58c0.23-0.64,0.45-1.28,0.68-1.93
		c0.1-0.3,0.21-0.6,0.31-0.91c0.22-0.63,0.43-1.27,0.64-1.91c0.13-0.38,0.25-0.76,0.37-1.14c0.86-2.67,1.68-5.4,2.46-8.12
		c0.1-0.35,0.2-0.7,0.3-1.05c0.02-0.08,0.04-0.16,0.06-0.24c0.06-0.19,0.11-0.38,0.16-0.58c0.6-2.14,1.16-4.26,1.7-6.33
		c0.09-0.33,0.17-0.66,0.26-1c0.29-1.13,0.57-2.24,0.84-3.33c0.1-0.4,0.2-0.8,0.29-1.2c0.1-0.41,0.2-0.82,0.3-1.23
		c0.09-0.37,0.18-0.73,0.26-1.09c0.26-1.09,0.5-2.14,0.74-3.15c0.08-0.34,0.15-0.67,0.23-1c0.49-2.13,0.91-4.06,1.27-5.72
		c0.05-0.26,0.11-0.5,0.16-0.74c0.28-1.33,0.52-2.46,0.7-3.35c0.03-0.13,0.05-0.25,0.08-0.37c0.05-0.24,0.1-0.46,0.13-0.66
		c0.01-0.06,0.02-0.12,0.04-0.18c0.06-0.28,0.1-0.51,0.13-0.67c0.04-0.21,0.06-0.32,0.06-0.32c0.01,0.1,0.01,0.21,0.02,0.31
		c0.01,0.15,0.02,0.3,0.03,0.44c0.01,0.13,0.02,0.25,0.03,0.38c0.01,0.1,0.02,0.2,0.03,0.3c0.01,0.11,0.03,0.22,0.04,0.33
		c0.01,0.1,0.03,0.2,0.04,0.31c0.01,0.11,0.03,0.23,0.05,0.34c0.02,0.13,0.04,0.26,0.07,0.38c0.02,0.09,0.03,0.17,0.05,0.26
		c0.02,0.1,0.04,0.2,0.07,0.31c0.03,0.12,0.06,0.25,0.09,0.37c0.03,0.1,0.05,0.2,0.08,0.3c0.04,0.15,0.08,0.29,0.13,0.43
		c0.03,0.11,0.07,0.21,0.1,0.32c0.08,0.22,0.15,0.44,0.24,0.65c0.04,0.09,0.07,0.18,0.11,0.27c0.01,0.02,0.02,0.04,0.03,0.06
		c0.04,0.09,0.08,0.18,0.12,0.27c0.19,0.4,0.39,0.77,0.61,1.12c0.05,0.09,0.11,0.17,0.17,0.26c0.06,0.08,0.12,0.17,0.17,0.25
		c0.06,0.08,0.12,0.16,0.18,0.24c0.06,0.08,0.12,0.15,0.18,0.23c0.06,0.07,0.12,0.15,0.19,0.22c0.44,0.5,0.93,0.94,1.45,1.32
		c-6.91,5.02-7.57,40.62-7.33,62.01c0.01,1.19,0.03,2.33,0.05,3.42c0.12,7.62,0.34,12.74,0.34,12.74c0.22,6.9,1.99,12.66,4.5,17.4
		c4.24,8,10.63,13.12,15.36,16.06c3.61,2.24,6.26,3.21,6.26,3.21c2.14-0.97,4.68-1.17,7.15-1l0.5,0.28l4.81,5.06
		c0.98,16.53,5.31,17.97,5.31,17.97c0,2.01-1.54,2.69-4.95,3.56C435.25,471.96,438.63,472.31,442.08,472.79z"/>
	<path class="st18" d="M233.59,490.56c0.01-0.03,0.02-0.05,0.04-0.08c0.01,0.08,0.02,0.16,0.03,0.24L233.59,490.56z"/>
	<polygon class="st19" points="375.95,589.48 375.95,589.55 308.11,589.5 308.11,589.48 	"/>
	<path class="st5" d="M398.46,295.29l-14.37,4.13c0,0,13.77-4.13,13.2-20.09L398.46,295.29z"/>
	<path class="st20" d="M416.57,384.96c0,0-15.23,0.49-23.96,3.23l0.04,5.05L416.57,384.96z"/>
	<path class="st21" d="M609.13,589.48l-493.86,0.16c7.89-5.78,14.57-8.29,14.57-8.29c3.07-3.37,6.33-6.57,9.7-9.59
		c9.04-8.12,18.82-14.94,27.8-20.41c0.03-0.02,0.07-0.04,0.1-0.06c2-1.22,3.95-2.37,5.85-3.45c1.2-0.68,2.37-1.34,3.52-1.96
		c8.81-4.82,16-8.04,19.63-9.58c1.65-0.7,2.56-1.05,2.56-1.05c0.66-0.19,1.27-0.41,1.84-0.65c7.85-3.35,7.14-11.14,7.06-11.81
		c0-0.03-0.01-0.05-0.01-0.05l1.97-0.11l13.33-3.51l4.66-1.23l22.08-5.81l16.4-4.32l28.06-7.38c0,0,0,0,0,0l32.26-8.49l61.06-11.9
		l30.89-7.77l4.61-0.14l6.08-0.19l4.41-3.88c0.49,0.02,3.43-0.68,4.41-0.55h0c0.14,0.02,0.24,0.05,0.29,0.12
		c1.01,1.4,0.93,2.76,1.33,3.76c0.3,0.74,0.86,1.27,2.33,1.48h0.01c4.01,0.56,8.11,1.3,12.23,2.17c0.07,0.01,0.14,0.03,0.2,0.04
		c0.68,0.14,1.35,0.29,2.03,0.44c0.13,0.03,0.27,0.06,0.4,0.09c0.17,0.04,0.33,0.07,0.5,0.11c0.13,0.03,0.27,0.06,0.4,0.09
		c0.34,0.08,0.68,0.15,1.02,0.24c0.35,0.08,0.7,0.16,1.05,0.24c0.14,0.03,0.27,0.06,0.41,0.1c0.02,0.01,0.04,0.01,0.05,0.01
		c0.37,0.09,0.74,0.17,1.1,0.26c0.27,0.06,0.53,0.13,0.8,0.19c0.1,0.03,0.19,0.05,0.28,0.07c0.7,0.17,1.39,0.35,2.08,0.52
		c0.38,0.1,0.77,0.2,1.15,0.29c1.12,0.29,2.23,0.58,3.34,0.88c0.7,0.19,1.39,0.38,2.08,0.57c0.4,0.11,0.81,0.23,1.21,0.34
		c0.7,0.2,1.39,0.4,2.08,0.59c0.16,0.05,0.32,0.1,0.48,0.14c0.58,0.17,1.16,0.34,1.74,0.51c0.71,0.21,1.41,0.42,2.11,0.63
		c0.7,0.21,1.39,0.42,2.08,0.64c0.68,0.21,1.37,0.43,2.04,0.64c0.67,0.21,1.34,0.43,2,0.64c0.33,0.11,0.66,0.21,0.98,0.32
		c1.3,0.42,2.58,0.84,3.82,1.26c0.57,0.19,1.12,0.38,1.67,0.56c1.16,0.39,2.29,0.78,3.38,1.16c0.38,0.13,0.76,0.27,1.14,0.4
		c0.91,0.32,1.8,0.63,2.66,0.94c0.06,0.02,0.11,0.04,0.16,0.06c0.25,0.09,0.49,0.18,0.73,0.26c0.16,0.06,0.31,0.11,0.47,0.17
		c0.28,0.1,0.56,0.2,0.83,0.3c0.99,0.36,1.93,0.7,2.81,1.03c0.13,0.05,0.25,0.1,0.38,0.14c0.79,0.29,1.53,0.57,2.23,0.84
		c0.15,0.06,0.3,0.11,0.45,0.17c0.04,0.01,0.07,0.03,0.11,0.04c0.16,0.06,0.32,0.12,0.48,0.18c0.2,0.07,0.39,0.15,0.57,0.22
		c0.08,0.03,0.17,0.06,0.25,0.1c0.33,0.12,0.64,0.24,0.94,0.36c0.07,0.03,0.15,0.06,0.22,0.08c0.07,0.03,0.14,0.05,0.21,0.08
		c0.07,0.03,0.14,0.05,0.21,0.08c0.76,0.29,1.4,0.54,1.9,0.73c0.05,0.02,0.11,0.04,0.15,0.06c0.03,0.01,0.06,0.02,0.1,0.04
		c0.04,0.01,0.08,0.03,0.12,0.04c0.43,0.17,0.73,0.27,0.88,0.33c0.44,0.1,0.88,0.2,1.31,0.3c0.07,0.02,0.13,0.03,0.2,0.05
		c0.37,0.08,0.74,0.17,1.11,0.27c0.06,0.02,0.13,0.03,0.2,0.05c0.43,0.11,0.86,0.22,1.29,0.33c0.03,0.01,0.06,0.02,0.09,0.02
		c0.42,0.11,0.84,0.23,1.26,0.35c0.41,0.12,0.81,0.23,1.22,0.35c0.07,0.02,0.14,0.04,0.22,0.06c0.4,0.12,0.81,0.24,1.21,0.36
		c1.19,0.37,2.37,0.75,3.54,1.16c0.2,0.07,0.4,0.14,0.59,0.21c0.71,0.25,1.41,0.51,2.11,0.78c0.26,0.1,0.52,0.2,0.78,0.3
		c0.7,0.27,1.39,0.55,2.08,0.83c0.4,0.17,0.8,0.33,1.2,0.51c0.02,0.01,0.03,0.01,0.05,0.02c0.37,0.16,0.75,0.32,1.12,0.49
		c0.06,0.02,0.11,0.05,0.17,0.08c0.31,0.14,0.62,0.28,0.93,0.42c0.42,0.19,0.84,0.39,1.26,0.58c0.2,0.09,0.4,0.19,0.59,0.28
		c0.3,0.14,0.59,0.29,0.89,0.43c0.29,0.14,0.58,0.28,0.86,0.43c0.48,0.24,0.95,0.48,1.43,0.72c0.4,0.2,0.79,0.41,1.18,0.62
		c0,0,0,0,0,0c0.35,0.19,0.7,0.38,1.05,0.57c0.26,0.14,0.51,0.28,0.76,0.42c0.42,0.23,0.84,0.47,1.26,0.71
		c0.05,0.03,0.1,0.06,0.15,0.08c0.28,0.16,0.56,0.32,0.84,0.49c0.36,0.21,0.71,0.42,1.06,0.63c0.32,0.19,0.65,0.39,0.97,0.58
		c0.06,0.04,0.12,0.07,0.18,0.11c0.32,0.19,0.64,0.39,0.95,0.59c0.32,0.2,0.65,0.4,0.97,0.61c0.71,0.45,1.41,0.91,2.11,1.37
		c0.34,0.22,0.67,0.45,1.01,0.68c0.33,0.23,0.67,0.45,1,0.68h0c0.26,0.18,0.52,0.36,0.78,0.55c0.17,0.12,0.33,0.23,0.49,0.35
		c0.27,0.19,0.53,0.38,0.8,0.57c0.35,0.25,0.69,0.5,1.03,0.75c1.27,0.93,2.52,1.89,3.75,2.85c0.21,0.16,0.42,0.33,0.62,0.49
		c2.05,1.63,4.03,3.3,5.93,5c0.17,0.15,0.34,0.3,0.51,0.45c1.35,1.21,2.67,2.43,3.95,3.66c0.2,0.19,0.4,0.39,0.61,0.58
		c2.13,2.06,4.16,4.15,6.09,6.22c0.14,0.15,0.28,0.3,0.42,0.45c1.2,1.3,2.36,2.59,3.48,3.87c0.36,0.41,0.71,0.82,1.05,1.22
		c0.17,0.2,0.35,0.41,0.52,0.61c0.86,1.01,1.7,2.02,2.51,3.02c0.65,0.8,1.28,1.59,1.9,2.37c0.62,0.78,1.22,1.56,1.8,2.33
		c0.15,0.19,0.29,0.38,0.43,0.57c0.43,0.57,0.86,1.14,1.27,1.7c0.14,0.19,0.27,0.37,0.41,0.56s0.27,0.37,0.4,0.55
		c0.27,0.37,0.53,0.73,0.79,1.09c0.13,0.18,0.26,0.36,0.39,0.54c0.24,0.34,0.48,0.68,0.72,1.02c0.01,0.02,0.02,0.03,0.03,0.05
		c0.25,0.35,0.49,0.7,0.73,1.05c1.2,1.73,2.29,3.37,3.28,4.91c0.2,0.3,0.39,0.6,0.58,0.9c0.1,0.16,0.2,0.31,0.29,0.46
		c0.15,0.24,0.31,0.49,0.46,0.73c0.11,0.18,0.22,0.36,0.34,0.54c0.09,0.14,0.17,0.28,0.26,0.42c0.15,0.24,0.29,0.48,0.43,0.71
		c0.76,1.25,1.43,2.38,2.01,3.37c0.08,0.14,0.16,0.28,0.24,0.42c0.61,1.07,1.11,1.96,1.49,2.67c0.03,0.06,0.06,0.11,0.09,0.16
		c0.31,0.57,0.53,1,0.67,1.27c0.01,0.02,0.02,0.04,0.03,0.06c0.01,0.02,0.02,0.04,0.03,0.05c0.02,0.03,0.03,0.06,0.05,0.09
		c0.04,0.07,0.06,0.11,0.06,0.13c0,0,0,0.01,0,0.01c0,0,0,0,0,0C605.75,574.21,607.55,581.14,609.13,589.48z"/>
	<path class="st22" d="M207.88,522.73c0,0,8.41,7.69,8.96,18.45c0,0,13.43,5.42,22.61,1.02c0,0,2.97,10.27,13.17,10.98l5.71-1.76
		v-18.37l-0.96-12.73L207.88,522.73z"/>
	<path class="st23" d="M609.13,589.48l-5.16,0.01c0.02,0.05,0.04,0.11,0.06,0.17l-3.84-0.01c0,0-0.02-0.05-0.05-0.15l-18.59,0.02
		c-0.01,0.05-0.02,0.1-0.03,0.15h-6.92c0,0,0.02-0.05,0.06-0.14l-47.43,0.04c0,0.03-0.01,0.06-0.01,0.1h-5.64
		c0,0,0.02-0.03,0.06-0.09l-20.53,0.02l-37.97,0.03l-14.57,0.01l-6.48,0.01l-7.05,0.01l-8.09,0.01l-9.57,0.01h0l0.09-0.18h-79.21
		l-0.04,0.07v-0.07h-15.74c0.03,0.06,0.07,0.12,0.11,0.18h-57.33c0,0,0.04-0.06,0.12-0.18h-13.34l1.68-5.27l4.64-22.87l0.79-3.87
		l3.09-15.23l0.11-0.53l0.4-3.36l0.7-6l0.06-0.5l0.57-4.85l0.19-1.58l2.07-17.65l28.06-7.38c0,0,0,0,0,0l32.26-8.49l61.06-11.9
		l30.89-7.77l4.61-0.14l6.08-0.19l4.41-3.88c0.49,0.02,3.43-0.68,4.41-0.55h0c0.14,0.02,0.24,0.05,0.29,0.12
		c1.01,1.4,0.93,2.76,1.33,3.76c0.3,0.74,0.86,1.27,2.33,1.48h0.01c4.01,0.56,8.11,1.3,12.23,2.17c0.07,0.01,0.14,0.03,0.2,0.04
		c0.68,0.14,1.35,0.29,2.03,0.44c0.13,0.03,0.27,0.06,0.4,0.09c0.12,0.03,0.24,0.05,0.35,0.08c0.05,0.01,0.1,0.02,0.15,0.03
		c0.13,0.03,0.27,0.06,0.4,0.09c0.29,0.07,0.58,0.13,0.87,0.2c0.05,0.01,0.1,0.03,0.15,0.03c0.14,0.03,0.29,0.07,0.43,0.1
		c0.18,0.04,0.36,0.08,0.54,0.13c0.03,0.01,0.05,0.01,0.08,0.02c0.14,0.03,0.27,0.06,0.41,0.1c0.02,0.01,0.04,0.01,0.05,0.01
		c0.37,0.09,0.74,0.17,1.1,0.26c0.27,0.06,0.53,0.13,0.8,0.19c0.1,0.03,0.19,0.05,0.28,0.07c0.7,0.17,1.39,0.35,2.08,0.52
		c0.38,0.1,0.77,0.2,1.15,0.29c1.12,0.29,2.23,0.58,3.34,0.88c0.7,0.19,1.39,0.38,2.08,0.57c0.4,0.11,0.81,0.23,1.21,0.34
		c0.7,0.2,1.39,0.4,2.08,0.59c0.16,0.05,0.32,0.1,0.48,0.14c0.58,0.17,1.16,0.34,1.74,0.51c0.71,0.21,1.41,0.42,2.11,0.63
		c0.7,0.21,1.39,0.42,2.08,0.64c0.68,0.21,1.37,0.43,2.04,0.64c0.67,0.21,1.34,0.43,2,0.64c0.33,0.11,0.66,0.21,0.98,0.32
		c1.31,0.42,2.58,0.84,3.82,1.26c1.76,0.59,3.45,1.16,5.06,1.72c0.38,0.13,0.76,0.27,1.14,0.4c0.91,0.32,1.8,0.63,2.66,0.94
		c0.06,0.02,0.11,0.04,0.16,0.06c0.25,0.09,0.49,0.18,0.73,0.26c0.16,0.06,0.31,0.11,0.47,0.17c0.28,0.1,0.56,0.2,0.83,0.3
		c0.99,0.36,1.93,0.7,2.81,1.03c0.13,0.05,0.25,0.1,0.38,0.14c0.79,0.29,1.53,0.57,2.23,0.84c0.15,0.06,0.3,0.11,0.45,0.17
		c0.04,0.01,0.07,0.03,0.11,0.04c0.16,0.06,0.32,0.12,0.48,0.18c0.2,0.07,0.39,0.15,0.57,0.22c0.08,0.03,0.17,0.06,0.25,0.1
		c0.33,0.12,0.64,0.24,0.94,0.36c0.07,0.03,0.15,0.06,0.22,0.08c0.07,0.03,0.14,0.05,0.21,0.08c0.07,0.03,0.14,0.05,0.21,0.08
		c0.76,0.29,1.4,0.54,1.9,0.73c0.05,0.02,0.11,0.04,0.15,0.06c0.03,0.01,0.06,0.02,0.1,0.04c0.04,0.01,0.08,0.03,0.12,0.04
		c0.43,0.17,0.73,0.27,0.88,0.33c0.44,0.1,0.88,0.2,1.31,0.3c0.07,0.02,0.13,0.03,0.2,0.05c0.37,0.08,0.74,0.17,1.11,0.27
		c0.06,0.02,0.13,0.03,0.2,0.05c0.43,0.11,0.86,0.22,1.29,0.33c0.03,0.01,0.06,0.02,0.09,0.02c0.42,0.11,0.84,0.23,1.26,0.35
		c0.41,0.12,0.81,0.23,1.22,0.35c0.07,0.02,0.14,0.04,0.22,0.06c0.4,0.12,0.81,0.24,1.21,0.36c1.19,0.37,2.37,0.75,3.54,1.16
		c0.2,0.07,0.4,0.14,0.59,0.21c0.71,0.25,1.41,0.51,2.11,0.78c0.26,0.1,0.52,0.2,0.78,0.3c0.7,0.27,1.39,0.55,2.08,0.83
		c0.4,0.17,0.8,0.33,1.2,0.51c0.02,0.01,0.03,0.01,0.05,0.02c0.37,0.16,0.75,0.32,1.12,0.49c0.06,0.02,0.11,0.05,0.17,0.08
		c0.31,0.14,0.62,0.28,0.93,0.42c0.42,0.19,0.84,0.39,1.26,0.58c0.2,0.09,0.4,0.19,0.59,0.28c0.3,0.14,0.59,0.29,0.89,0.43
		c0.29,0.14,0.58,0.28,0.86,0.43c0.48,0.24,0.95,0.48,1.43,0.72c0.4,0.2,0.79,0.41,1.18,0.62c0,0,0,0,0,0
		c0.35,0.19,0.7,0.38,1.05,0.57c0.26,0.14,0.51,0.28,0.76,0.42c0.42,0.23,0.84,0.47,1.26,0.71c0.05,0.03,0.1,0.06,0.15,0.08
		c0.28,0.16,0.56,0.32,0.84,0.49c0.36,0.21,0.71,0.42,1.06,0.63c0.32,0.19,0.65,0.39,0.97,0.58c0.06,0.04,0.12,0.07,0.18,0.11
		c0.32,0.19,0.64,0.39,0.95,0.59c0.32,0.2,0.65,0.4,0.97,0.61c0.71,0.45,1.41,0.91,2.11,1.37c0.34,0.22,0.67,0.45,1.01,0.68
		c0.33,0.23,0.67,0.45,1,0.68h0c0.26,0.18,0.52,0.36,0.78,0.55c0.17,0.12,0.33,0.23,0.49,0.35c0.27,0.19,0.53,0.38,0.8,0.57
		c0.35,0.25,0.69,0.5,1.03,0.75c1.27,0.93,2.52,1.89,3.75,2.85c0.21,0.16,0.42,0.33,0.62,0.49c2.05,1.63,4.03,3.3,5.93,5
		c0.17,0.15,0.34,0.3,0.51,0.45c1.35,1.21,2.67,2.43,3.95,3.66c0.2,0.19,0.4,0.39,0.61,0.58c2.13,2.06,4.16,4.15,6.09,6.22
		c0.14,0.15,0.28,0.3,0.42,0.45c1.2,1.3,2.36,2.59,3.48,3.87c0.35,0.41,0.7,0.81,1.05,1.22c0.17,0.2,0.35,0.41,0.52,0.61
		c0.86,1.01,1.7,2.02,2.51,3.02c0.65,0.8,1.28,1.59,1.9,2.37c0.61,0.78,1.21,1.56,1.8,2.33c0.15,0.19,0.29,0.38,0.43,0.57
		c0.43,0.57,0.85,1.14,1.27,1.7c0.14,0.19,0.27,0.37,0.41,0.56s0.27,0.37,0.4,0.55c0.27,0.37,0.53,0.73,0.79,1.09
		c0.13,0.18,0.26,0.36,0.39,0.54c0.24,0.34,0.48,0.68,0.72,1.02c0.01,0.02,0.02,0.03,0.03,0.05c0.25,0.35,0.49,0.7,0.73,1.05
		c1.2,1.73,2.29,3.37,3.28,4.91c0.2,0.3,0.39,0.6,0.58,0.9c0.1,0.16,0.2,0.31,0.29,0.46c0.15,0.24,0.31,0.49,0.46,0.73
		c0.11,0.18,0.22,0.36,0.34,0.54c0.09,0.14,0.17,0.28,0.26,0.42c0.15,0.24,0.29,0.47,0.43,0.71c0.76,1.25,1.43,2.38,2.01,3.37
		c0.08,0.14,0.16,0.28,0.24,0.42c0.61,1.07,1.11,1.96,1.49,2.67c0.03,0.06,0.06,0.11,0.09,0.16c0.31,0.57,0.53,1,0.67,1.27
		c0.01,0.02,0.02,0.04,0.03,0.06c0.01,0.02,0.02,0.04,0.03,0.05c0.02,0.04,0.03,0.06,0.05,0.09c0.04,0.07,0.06,0.11,0.06,0.13
		c0,0,0,0,0,0c0,0,0,0,0,0.01c0,0,0,0,0,0C605.75,574.21,607.55,581.14,609.13,589.48C609.13,589.48,609.13,589.48,609.13,589.48z"
		/>
	<path class="st24" d="M266.86,556.91c-4.24,14.11-7.46,25.04-9.65,32.57h-8.81c3.18-7.02,5.22-18.13,6.52-29.13
		c0.14-1.2,0.28-2.39,0.4-3.58c0.16-1.53,0.31-3.05,0.44-4.55c0.3-3.36,0.54-6.6,0.74-9.59c0.38-6.01,0.56-11.03,0.65-13.99
		c0.05-1.85,0.06-2.91,0.06-2.91c0.18,0.08,0.38,0.15,0.6,0.2c1.47,0.35,3.88,0.04,6.47-0.52c5.32-1.16,11.38-3.42,11.38-3.42
		c0.1,0.85,0.17,1.7,0.2,2.55C276.56,540.67,266.86,556.91,266.86,556.91z"/>
	<path class="st25" d="M438.42,467.72c0,4.63-15.94,5.66-15.94,5.66c-17.22,0.77-59.37,21.34-59.37,21.34
		c-16.32,11.93-29.82,18.73-39.86,22.61c-12.88,4.99-20.03,5.15-20.03,5.15c-15.68-2.83-57.83,9.25-57.83,9.25
		c-28.27,14.14-37.53-8.99-37.53-8.99c-15.16-10.28-11.05-24.16-11.05-24.16c-4.63-24.42,11.05-27.25,11.05-27.25
		c13.46-3.05,30.55-15,30.96-15.29c0-0.01,0.01-0.01,0.01-0.01c1.15,0.08,2.4,0.08,3.74,0c18.52-1.04,53.96-16.38,72.9-25.17
		c7.7-3.57,12.68-6.06,12.68-6.06c41.38-28.53,63.23-30.07,63.23-30.07c-0.01-0.16,0.04-0.33,0.16-0.51
		c2.17-3.25,25.03-9.26,25.03-9.26c4.37,0.26,6.68,9.26,6.68,9.26c-3.09,12.85,4.37,26.73,4.37,26.73
		c5.66,6.94,6.69,13.62,6.69,13.62C434.05,465.41,438.42,467.72,438.42,467.72z"/>
	<path class="st26" d="M438.42,467.56c0,4.63-15.94,5.81-15.94,5.81c-17.22,0.77-59.37,21.33-59.37,21.33
		c-16.32,11.93-29.82,18.73-39.86,22.61l-4.13,1.51c6.4-21.12-26.31-18.85-26.31-18.85c-42.41,1.54-34.92-23.65-34.92-23.65
		c63.62-22.75,54.2-41.51,54.2-41.51l3.38-3.97c7.7-3.57,12.68-6.06,12.68-6.06c41.38-28.53,63.23-30.07,63.23-30.07
		c-0.01-0.16,0.04-0.33,0.16-0.51c2.17-3.25,25.03-9.26,25.03-9.26c4.37,0.26,6.68,9.26,6.68,9.26
		c-3.09,12.85,4.37,26.73,4.37,26.73c5.66,6.94,6.68,13.62,6.68,13.62C434.05,465.41,438.42,467.56,438.42,467.56z"/>
	<path class="st27" d="M209.29,495.95c0,0-6.22,10.69,4.91,18.74c0,0,11.53,10.02,15.92,0.05c0,0,1.91-11.88-4.72-18.79
		C225.4,495.95,217.06,487.61,209.29,495.95z"/>
	<path class="st28" d="M438.44,467.56c0,2.01-3.02,3.5-6.42,4.36c-0.47,0.12-0.96,0.23-1.44,0.33c-4.02,0.85-8.07,1.11-8.07,1.11
		c0,0,0.01-0.01,0.01-0.01c0.64-0.79,0.88-1.76,1.29-2.67c3.72-8.12-3.1-13.26-3.1-13.26c-5.19-2.73-7.11-9.16-7.78-14.59v0
		c-0.59-4.79-0.63-16.64-0.63-16.64c-0.26-12.6-14.99-22.76-19.58-29.55c0,0,0,0,0,0c-0.83-1.23-1.32-1.93-1.32-1.93
		s-0.04-0.23,0.16-0.51c0.2-0.3,0.58-0.63,1.11-0.97c5.12-3.35,23.92-8.28,23.92-8.28c4.37,0.26,6.69,9.26,6.69,9.26
		c-1.21,18.09,4.37,26.73,4.37,26.73c5.66,6.94,6.68,13.62,6.68,13.62c1.72,6.21,0.08,11.07,0.32,15.13
		C435.63,466.22,438.44,467.56,438.44,467.56z"/>
	<path class="st29" d="M238.83,456.03C238.83,456.03,238.83,456.03,238.83,456.03c-0.42,0.29-17.51,12.24-30.97,15.29
		c0,0-2.47-13.78,3.6-21.85C218.79,457.57,238.83,456.03,238.83,456.03z"/>
	<path class="st20" d="M238.83,456.03c0,0-20.05,1.54-27.37-6.56c0,0,5.44-10.73,25.9-20.68
		C237.36,428.79,234.98,453.71,238.83,456.03z"/>
	<path class="st20" d="M242.57,456.03c-1.34,0.08-2.59,0.08-3.74,0l-6.83-3.64l-2.58-10.29l7.94-13.3l0.07-0.1
		c0.3,1.13,0.62,2.36,0.95,3.7c0,0,0,0,0,0.01c0.54,2.21,1.11,4.67,1.66,7.33c0.64,3.13,1.25,6.52,1.76,10.06
		c0.13,0.9,0.25,1.8,0.37,2.72C242.32,453.67,242.45,454.85,242.57,456.03z"/>
	<g>
		<path class="st30" d="M262.81,542.48L262.81,542.48c-1.7-0.54-2.64-2.35-2.1-4.05l1.37-4.31c0.54-1.7,2.35-2.64,4.05-2.1l0,0
			c1.7,0.54,2.64,2.35,2.1,4.05l-1.37,4.31C266.32,542.07,264.51,543.02,262.81,542.48z"/>
	</g>
	<g>
		<path class="st31" d="M262.35,541.71L262.35,541.71c-1.69-0.54-2.63-2.34-2.09-4.03l1.18-3.74c0.54-1.69,2.34-2.63,4.03-2.09h0
			c1.69,0.54,2.63,2.34,2.09,4.03l-1.18,3.74C265.85,541.31,264.04,542.24,262.35,541.71z"/>
	</g>
	<path class="st32" d="M268.76,542.98l-6.81,16.91c-2.63,3.29-7.9,0-7.9,0c-0.35-0.79-0.43-2.08-0.33-3.64
		c0.4-6.18,3.62-16.56,3.62-16.56c3.62-2.95,7.08-1.07,9.22,0.84C267.93,541.75,268.76,542.98,268.76,542.98z"/>
	<path class="st33" d="M266.57,540.53L266.57,540.53l-4.83,15.62c-0.67,2.13-4.56,1.31-8.01,0.1c0.4-6.18,3.62-16.56,3.62-16.56
		C260.97,536.74,264.43,538.62,266.57,540.53z"/>
	<path class="st34" d="M609.13,589.48l-5.16,0.01c0.02,0.05,0.04,0.11,0.06,0.17l-3.84-0.01c0,0-0.02-0.05-0.05-0.15l-18.59,0.02
		c-0.01,0.05-0.02,0.1-0.03,0.15h-6.92c0,0,0.02-0.05,0.06-0.14l-47.43,0.04c0,0.03-0.01,0.06-0.01,0.1h-5.64
		c0,0,0.02-0.03,0.06-0.09l-20.53,0.02l-37.97,0.03l-14.57,0.01l-6.48,0.01l-7.05,0.01l-8.09,0.01l-9.57,0.01h0l0.09-0.18h-61.23
		c0.66-23.32,55.12-71.76,55.12-71.76s0,0,0.01-0.01c0.5-0.63,31.5-39.27,41.66-42.53l1.29-0.22c0.07,0.01,0.14,0.03,0.2,0.04
		c0.98,0.23,1.45,0.56,1.56,0.89c0,0-2.95,34.1-1.76,39.96c0,0,0.01-0.02,0.02-0.05c0.35-0.89,5.35-13.45,11.47-16.69
		c0.12-0.06,0.24-0.12,0.36-0.17c0.89-0.42,1.8-0.63,2.72-0.58c0,0-5.26-20.33-5.71-21.35c-0.57-0.15-1.13-0.29-1.69-0.43
		c0.27,0.06,0.53,0.13,0.8,0.19c0.1,0.03,0.19,0.05,0.28,0.07c0.7,0.17,1.39,0.35,2.08,0.52c0.38,0.1,0.77,0.2,1.15,0.29
		c1.12,0.29,2.23,0.58,3.34,0.88c0.7,0.19,1.39,0.38,2.08,0.57c0.4,0.11,0.81,0.23,1.21,0.34c0.7,0.2,1.39,0.4,2.08,0.59
		c0.16,0.05,0.32,0.1,0.48,0.14c0.58,0.17,1.16,0.34,1.74,0.51c0.71,0.21,1.41,0.42,2.11,0.63c0.7,0.21,1.39,0.42,2.08,0.64
		c0.68,0.21,1.37,0.43,2.04,0.64c0.67,0.21,1.34,0.43,2,0.64c0.33,0.11,0.66,0.21,0.98,0.32c1.31,0.42,2.58,0.84,3.82,1.26
		c1.76,0.59,3.45,1.16,5.06,1.72c0.38,0.13,0.76,0.27,1.14,0.4c0.91,0.32,1.8,0.63,2.66,0.94c0.06,0.02,0.11,0.04,0.16,0.06
		c0.25,0.09,0.49,0.18,0.73,0.26c0.16,0.06,0.31,0.11,0.47,0.17c0.28,0.1,0.56,0.2,0.83,0.3c0.99,0.36,1.93,0.7,2.81,1.03
		c0.13,0.05,0.25,0.1,0.38,0.14c0.79,0.29,1.53,0.57,2.23,0.84c0.15,0.06,0.3,0.11,0.45,0.17c0.04,0.01,0.07,0.03,0.11,0.04
		c0.16,0.06,0.32,0.12,0.48,0.18c0.2,0.07,0.39,0.15,0.57,0.22c0.08,0.03,0.17,0.06,0.25,0.1c0.33,0.12,0.64,0.24,0.94,0.36
		c0.07,0.03,0.15,0.06,0.22,0.08c0.07,0.03,0.14,0.05,0.21,0.08c0.07,0.03,0.14,0.05,0.21,0.08c0.76,0.29,1.4,0.54,1.9,0.73
		c0.05,0.02,0.11,0.04,0.15,0.06c0.03,0.01,0.06,0.02,0.1,0.04c0.04,0.01,0.08,0.03,0.12,0.04c0.43,0.17,0.73,0.27,0.88,0.33
		c0.44,0.1,0.88,0.2,1.31,0.3c0.07,0.02,0.13,0.03,0.2,0.05c0.37,0.08,0.74,0.17,1.11,0.27c0.06,0.02,0.13,0.03,0.2,0.05
		c0.43,0.11,0.86,0.22,1.29,0.33c0.03,0.01,0.06,0.02,0.09,0.02c0.42,0.11,0.84,0.23,1.26,0.35c0.41,0.12,0.81,0.23,1.22,0.35
		c0.07,0.02,0.14,0.04,0.22,0.06c0.4,0.12,0.81,0.24,1.21,0.36c1.19,0.37,2.37,0.75,3.54,1.16c0.2,0.07,0.4,0.14,0.59,0.21
		c0.71,0.25,1.41,0.51,2.11,0.78c0.26,0.1,0.52,0.2,0.78,0.3c0.7,0.27,1.39,0.55,2.08,0.83c0.4,0.17,0.8,0.33,1.2,0.51
		c0.02,0.01,0.03,0.01,0.05,0.02c0.37,0.16,0.75,0.32,1.12,0.49c0.06,0.02,0.11,0.05,0.17,0.08c0.31,0.14,0.62,0.28,0.93,0.42
		c0.42,0.19,0.84,0.39,1.26,0.58c0.2,0.09,0.4,0.19,0.59,0.28c0.3,0.14,0.59,0.29,0.89,0.43c0.29,0.14,0.58,0.28,0.86,0.43
		c0.48,0.24,0.95,0.48,1.43,0.72c0.4,0.2,0.79,0.41,1.18,0.62c0,0,0,0,0,0c0.35,0.19,0.7,0.38,1.05,0.57
		c0.26,0.14,0.51,0.28,0.76,0.42c0.42,0.23,0.84,0.47,1.26,0.71c0.05,0.03,0.1,0.06,0.15,0.08c0.28,0.16,0.56,0.32,0.84,0.49
		c0.36,0.21,0.71,0.42,1.06,0.63c0.32,0.19,0.65,0.39,0.97,0.58c0.06,0.04,0.12,0.07,0.18,0.11c0.32,0.19,0.64,0.39,0.95,0.59
		c0.32,0.2,0.65,0.4,0.97,0.61c0.71,0.45,1.41,0.91,2.11,1.37c0.34,0.22,0.67,0.45,1.01,0.68c0.33,0.23,0.67,0.45,1,0.68h0
		c0.26,0.18,0.52,0.36,0.78,0.55c0.17,0.12,0.33,0.23,0.49,0.35c0.27,0.19,0.53,0.38,0.8,0.57c0.35,0.25,0.69,0.5,1.03,0.75
		c1.27,0.93,2.52,1.89,3.75,2.85c0.21,0.16,0.42,0.33,0.62,0.49c2.05,1.63,4.03,3.3,5.93,5c0.17,0.15,0.34,0.3,0.51,0.45
		c1.35,1.21,2.67,2.43,3.95,3.66c0.2,0.19,0.4,0.39,0.61,0.58c2.13,2.06,4.16,4.15,6.09,6.22c0.14,0.15,0.28,0.3,0.42,0.45
		c1.2,1.3,2.36,2.59,3.48,3.87c0.35,0.41,0.7,0.81,1.05,1.22c0.17,0.2,0.35,0.41,0.52,0.61c0.86,1.01,1.7,2.02,2.51,3.02
		c0.65,0.8,1.28,1.59,1.9,2.37c0.61,0.78,1.21,1.56,1.8,2.33c0.15,0.19,0.29,0.38,0.43,0.57c0.43,0.57,0.85,1.14,1.27,1.7
		c0.14,0.19,0.27,0.37,0.41,0.56s0.27,0.37,0.4,0.55c0.27,0.37,0.53,0.73,0.79,1.09c0.13,0.18,0.26,0.36,0.39,0.54
		c0.24,0.34,0.48,0.68,0.72,1.02c0.01,0.02,0.02,0.03,0.03,0.05c0.25,0.35,0.49,0.7,0.73,1.05c1.2,1.73,2.29,3.37,3.28,4.91
		c0.2,0.3,0.39,0.6,0.58,0.9c0.1,0.16,0.2,0.31,0.29,0.46c0.15,0.24,0.31,0.49,0.46,0.73c0.11,0.18,0.22,0.36,0.34,0.54
		c0.09,0.14,0.17,0.28,0.26,0.42c0.15,0.24,0.29,0.47,0.43,0.71c0.76,1.25,1.43,2.38,2.01,3.37c0.08,0.14,0.16,0.28,0.24,0.42
		c0.61,1.07,1.11,1.96,1.49,2.67c0.03,0.06,0.06,0.11,0.09,0.16c0.31,0.57,0.53,1,0.67,1.27c0.01,0.02,0.02,0.04,0.03,0.06
		c0.01,0.02,0.02,0.04,0.03,0.05c0.02,0.04,0.03,0.06,0.05,0.09c0.04,0.07,0.06,0.11,0.06,0.13c0,0,0,0,0,0c0,0,0,0,0,0.01
		c0,0,0,0,0,0C605.75,574.21,607.55,581.14,609.13,589.48C609.13,589.48,609.13,589.48,609.13,589.48z"/>
	<path class="st26" d="M454.32,474.96c-0.38-0.01-0.81,0.06-1.29,0.22c-10.16,3.25-41.15,41.9-41.66,42.53
		c0,0.01-0.01,0.01-0.01,0.01c0-14.46,28.39-46.4,28.39-46.4c0.3,0.74,0.86,1.27,2.33,1.48h0.01
		C446.1,473.36,450.2,474.1,454.32,474.96z"/>
	<path class="st21" d="M609.13,589.48C609.13,589.48,609.13,589.48,609.13,589.48l-5.16,0.01l-3.84,0l-18.59,0.02l-6.88,0.01
		l-47.43,0.04l-5.59,0.01l-20.53,0.02l-37.97,0.03l-14.57,0.01l-6.48,0.01l-7.05,0.01l-8.09,0.01l-9.57,0.01h0l0.09-0.18
		l26.17-51.32l24.06-32.33l15.23-3.29l9.78,0.88c0,0,0.01,0,0.01,0l5.48,0.49c0,0,0,0,0,0l11.74-1.38l3.73-1.32l7.87,2.19
		c0.03,0.01,0.04,0.01,0.04,0.01s21.62,3.86,30.43,7.28h0c0.26,0.18,0.52,0.36,0.78,0.55c0.17,0.12,0.33,0.23,0.49,0.35
		c0.27,0.19,0.53,0.38,0.8,0.57c0.35,0.25,0.69,0.5,1.03,0.75c1.27,0.93,2.52,1.89,3.75,2.85c0.21,0.16,0.42,0.33,0.62,0.49
		c2.05,1.63,4.03,3.3,5.93,5c0.17,0.15,0.34,0.3,0.51,0.45c1.35,1.21,2.67,2.43,3.95,3.66c0.2,0.19,0.4,0.39,0.61,0.58
		c2.13,2.06,4.16,4.15,6.09,6.22c0.14,0.15,0.28,0.3,0.42,0.45c1.2,1.3,2.36,2.59,3.48,3.87c0.35,0.41,0.7,0.81,1.05,1.22
		c0.17,0.2,0.35,0.41,0.52,0.61c0.86,1.01,1.7,2.02,2.51,3.02c0.65,0.8,1.28,1.59,1.9,2.37c0.61,0.78,1.21,1.56,1.8,2.33
		c0.15,0.19,0.29,0.38,0.43,0.57c0.43,0.57,0.85,1.14,1.27,1.7c0.14,0.19,0.27,0.37,0.41,0.56s0.27,0.37,0.4,0.55
		c0.27,0.37,0.53,0.73,0.79,1.09c0.13,0.18,0.26,0.36,0.39,0.54c0.24,0.34,0.48,0.68,0.72,1.02c0.01,0.02,0.02,0.03,0.03,0.05
		c0.25,0.35,0.49,0.7,0.73,1.05c1.2,1.73,2.29,3.37,3.28,4.91c0.2,0.3,0.39,0.6,0.58,0.9c0.1,0.16,0.2,0.31,0.29,0.46
		c0.15,0.24,0.31,0.49,0.46,0.73c0.11,0.18,0.22,0.36,0.34,0.54c0.09,0.14,0.17,0.28,0.26,0.42c0.15,0.24,0.29,0.47,0.43,0.71
		c0.76,1.25,1.43,2.38,2.01,3.37c0.08,0.14,0.16,0.28,0.24,0.42c0.61,1.07,1.11,1.96,1.49,2.67c0.03,0.06,0.06,0.11,0.09,0.16
		c0.31,0.57,0.53,1,0.67,1.27c0.01,0.02,0.02,0.04,0.03,0.06c0.01,0.02,0.02,0.04,0.03,0.05c0.02,0.04,0.03,0.06,0.05,0.09
		c0.04,0.07,0.06,0.11,0.06,0.13c0,0,0,0,0,0c0,0,0,0,0,0.01c0,0,0,0,0,0C605.75,574.21,607.55,581.14,609.13,589.48z"/>
	<path class="st26" d="M468.89,498.37c-7.69-0.44-14.57,17.49-14.57,17.49c-1.18-5.85,1.76-39.96,1.76-39.96
		c-0.11-0.34-0.58-0.66-1.56-0.89c1.67,0.37,3.22,0.7,4.78,1.06c0.18,0.04,0.36,0.08,0.54,0.13c0.18,0.04,0.36,0.08,0.54,0.13
		c0.36,0.09,0.73,0.17,1.1,0.26c0.55,0.14,1.11,0.28,1.69,0.43C463.63,478.04,468.89,498.37,468.89,498.37z"/>
	<path class="st35" d="M521.58,503.42c0,0-0.01,0-0.04-0.01c-0.68-0.16-10.85-2.41-19.06,1.76c-7.14,3.62-15.95-0.88-15.95-0.88
		s-11.16-2.74-17.64,5.56c-7.67,9.84-8.89,12.33-8.89,12.33s-17.89,26.89-32.38,54.56c0,0-3.54,5.36-10.07,12.73
		c-0.05,0.06-0.1,0.12-0.16,0.18h0l0.09-0.18h-48.26c2.3-1.88,22.21-18.23,29.86-28.13c0,0,16.46-17.57,28.76-21.28
		c0,0,18.72-10.61,26.48-24.21c0,0,0.01-0.02,0.02-0.05c0.34-0.89,5.16-13.46,11.47-16.69c0.12-0.06,0.24-0.12,0.36-0.17
		c0.88-0.4,1.79-0.61,2.72-0.58c0,0,14.16-2.72,19.98,2.86c0,0,1.5,1.35,3.85,2.2c0,0,0.01,0,0.01,0c1.53,0.55,3.41,0.88,5.48,0.49
		c0,0,0,0,0,0c1.77-0.33,3.67-1.2,5.59-2.91C503.8,501,510.49,495.9,521.58,503.42z"/>
	<path class="st35" d="M540.68,514.83c-7.25,4.39-27.43,8.34-27.43,8.34c-19.54,2.63-51.79,32.27-51.79,32.27
		c-8.25,6.81-26.39,34.03-26.39,34.03c-0.01,0.05-0.02,0.11-0.03,0.16l-8.09,0.01c0.01-0.05,0.03-0.11,0.05-0.17
		c1.76-6,15.08-27,15.08-27c23.92-40.84,39.53-42.37,39.53-42.37c22.83-8.34,53.13-8.56,53.13-8.56
		C545,513.08,540.68,514.83,540.68,514.83z"/>
	<path class="st35" d="M527.22,532.69c0,0-8.05,9.22-11.56,24.88c0,0-7.02,23.41-14.49,31.9c0,0-0.02,0.03-0.05,0.1l-37.97,0.03
		c0.01-0.04,0.03-0.09,0.04-0.13c0,0,2.63-4.31,4.53-16.02c0,0-11.99,3.29-19.01,16.02c0,0-0.04,0.05-0.12,0.15l-6.48,0.01
		c0.01-0.03,0.04-0.08,0.09-0.15c1.45-2.54,18.62-31.84,41.86-39.95c0,0,21.62-9.22,31.18-17.56
		C515.22,531.96,527.51,527.42,527.22,532.69z"/>
	<path class="st36" d="M604.02,589.65l-3.84-0.01c0,0-0.02-0.05-0.05-0.15c0-0.01,0-0.01,0-0.01c-0.72-2.16-8.4-25.06-10.81-28.75
		c0.27,0.35,9.02,11.73,14.64,28.75c0,0,0,0.01,0,0.01C603.99,589.54,604.01,589.6,604.02,589.65z"/>
	<path class="st36" d="M581.55,589.48c0,0.01,0,0.02-0.01,0.03c-0.01,0.05-0.02,0.1-0.03,0.15h-6.92c0,0,0.02-0.05,0.06-0.14
		c0-0.01,0.01-0.02,0.01-0.04c0.84-2.02,8.09-21.21-4.36-52.23C570.32,537.24,587.38,556.6,581.55,589.48z"/>
	<path class="st36" d="M527.24,589.48c0,0.03-0.01,0.05-0.01,0.08c0,0.03-0.01,0.06-0.01,0.1h-5.64c0,0,0.02-0.03,0.06-0.09
		c0.02-0.02,0.03-0.05,0.05-0.08c0.82-1.28,5.43-9.78,1.64-33.15C523.13,555.04,528.64,574.95,527.24,589.48z"/>
	<path class="st26" d="M395.96,494.21l-57.7,95.27l-0.04,0.07v-0.07C338.23,566.85,395.51,494.78,395.96,494.21z"/>
	<path class="st26" d="M322.48,589.48c0.03,0.06,0.07,0.12,0.11,0.18h-57.33c0,0,0.04-0.06,0.12-0.18
		c2.63-3.9,48.54-70.97,88.82-74.73C354.21,514.74,318.61,582.28,322.48,589.48z"/>
	<path class="st22" d="M196.43,536.3c0,0-18.45,31.89-18.45,46.38C177.98,582.68,169.64,554.91,196.43,536.3z"/>
	<path class="st37" d="M432.46,276.94c0,0-17.59,0.39-19.17,3.55c0,0-1.56,11.9,2.43,14.19l8.39-0.59l4.56-2.62L432.46,276.94z"/>
	<path class="st0" d="M423.96,247.66c-9.67,9.56-16.86,23.93-16.86,23.93l-9.03,39.74l4.28-4.15c-0.08-0.05-0.17-0.1-0.25-0.16
		c0,0,1.49-9.96,11.15-10.4l0-0.01c0.11-0.29,4.33-11.43,0-17.04c0,0,3.18,1.74,5.16-2.13c0,0,4.28-5.35,6.26,0L423.96,247.66z"/>
	<path class="st38" d="M424.16,291.13l-10.81,17.34l-6.07,3.68c0.01-2.4,9.67-19.71,9.67-19.71L424.16,291.13"/>
	<path class="st39" d="M413.35,308.47c0,0-9.35,1.46-4.84,5.29c0,0,1.69,3.49,7.21-0.79l12.95-14.75c0,0-5.18-2.14-4.5-7.09
		L413.35,308.47z"/>
	<path class="st40" d="M424.16,291.13c0,0,4.34-14.44,8.3-14.19c0,0,9.46,5.24,7.01,14.19c0,0-7.09,9.37-10.81,7.09
		C428.66,298.22,423.54,296.45,424.16,291.13z"/>
	<path class="st41" d="M431.57,287.24c0,0,1.15,5.63,7.67,3.33c0,0-1.72-3.9-6.54-4.77c0,0-2.48-2.17-2.48-3.36
		C430.22,282.44,427.11,285.06,431.57,287.24z"/>
	<path class="st42" d="M308.51,508.51l3.73-4.1c0,0,0.89-0.14,1.9,0.22c0,0,2.77-0.1,3.05,2.79c0,0,0.96,2.59,0,3.76l-3.05,2.92
		L308.51,508.51z"/>
	<path class="st38" d="M281.72,531.3c0,0,15.11-18.37,23.09-23.35c0,0,6.22-0.81,7.43,4.35l-21.52,21.3L281.72,531.3z"/>
	<path class="st42" d="M290.72,533.61c0,0-7.9-5.37-9-2.3c0,0,0.33,6.25,6.81,7.79c0,0,5.82,0.09,5.93-0.94
		c0,0,14.38-13.44,21.41-20.9c0,0-1.32-3.62-3.62-4.94C312.24,512.31,294.75,528.74,290.72,533.61z"/>
	<path class="st43" d="M408.5,313.76c0,0-11.94,23.31-28.49,79.39c0,0-20.27,66.55-65.87,111.48c0,0,2.49-0.12,3.05,2.79
		c0,0,53.71-56.5,66.2-114.27c0,0,18.15-59.7,27.7-78.04C411.09,315.1,410.87,312.18,408.5,313.76z"/>
	<path class="st42" d="M280.44,538.15c0,0-0.22-4.88,3.37-4.55c0,0,6.66,0.62,4.72,5.49c0,0-1.43,3.26-5.45,2.23
		C283.07,541.33,280.29,539.81,280.44,538.15z"/>
	<path class="st43" d="M202.57,589.7c0,0,41-29.78,60.79-37.5c0,0,12.73-6.35,17.08-14.05c0,0,3.95-1,2.63,3.17
		c0,0-7.75,9.84-17.81,14.41c0,0-26.1,13.55-54.64,33.96H202.57z"/>
	<path class="st43" d="M214.94,589.64c0,0-18.51-36.45-12.37-71.39c0,0,2.09,2.26,3.87,3.5c0,0-6.65,16.35,14.57,67.86
		L214.94,589.64z"/>
</g>
</svg>
