<?xml version="1.0" encoding="utf-8"?>
<!-- Generator: Adobe Illustrator 26.0.1, SVG Export Plug-In . SVG Version: 6.00 Build 0)  -->
<svg version="1.1" xmlns="http://www.w3.org/2000/svg" xmlns:xlink="http://www.w3.org/1999/xlink" x="0px" y="0px"
	 viewBox="0 0 2048 2048" style="enable-background:new 0 0 2048 2048;" xml:space="preserve">
<style type="text/css">
	.st0{clip-path:url(#SVGID_00000062164560484580930680000009397174004714123933_);fill:#FCCA78;}
	.st1{clip-path:url(#SVGID_00000062164560484580930680000009397174004714123933_);}
	.st2{fill:#212123;}
	.st3{fill:#FFC9A9;}
	.st4{fill:#9F2D2C;}
	.st5{fill:#331A1E;}
	.st6{fill:#D54141;}
	.st7{fill:#D23E3E;}
	.st8{opacity:8.000000e-02;}
	.st9{fill:#CC3E3C;}
	.st10{fill:#A73736;}
	.st11{fill:#F8C9AF;}
	.st12{fill:#C9A58D;}
	.st13{opacity:0.13;}
	.st14{fill:#2B1A12;}
	.st15{opacity:0.33;}
	.st16{opacity:0.2;}
	.st17{fill:#C09181;}
	.st18{fill:#898989;}
	.st19{opacity:0.18;}
	.st20{fill:#FFFFFF;}
	.st21{opacity:0.21;}
	.st22{opacity:0.69;}
	.st23{opacity:0.32;}
	.st24{opacity:0.26;}
	.st25{fill:#201614;}
	.st26{fill:#E5AF8F;}
	.st27{fill:#452624;}
	.st28{fill:none;stroke:#4D4D4D;stroke-width:3;stroke-miterlimit:10;}
	.st29{fill:#C19081;}
	.st30{fill:#D8B89F;}
	.st31{opacity:0.4;}
	.st32{fill:#EDCFC5;}
	.st33{fill:#352321;}
	.st34{fill:#E6E6E6;}
	.st35{fill:#D8BCA7;}
	.st36{fill:#1D1D1D;}
	.st37{fill:#191919;}
</style>
<g id="Layer_2">
	<defs>
		<circle id="SVGID_1_" cx="1024" cy="1023.9" r="1024"/>
	</defs>
	<clipPath id="SVGID_00000176763254028685021110000018066757934021145230_">
		<use xlink:href="#SVGID_1_"  style="overflow:visible;"/>
	</clipPath>
	
		<rect y="-0.1" style="clip-path:url(#SVGID_00000176763254028685021110000018066757934021145230_);fill:#FCCA78;" width="2049.4" height="2049.4"/>
	<g style="clip-path:url(#SVGID_00000176763254028685021110000018066757934021145230_);">
		<g>
			<g>
				<g>
					<path class="st2" d="M1285.8,1470.2C1285.8,1470.2,1285.8,1470.2,1285.8,1470.2l-7.8-99.7l-2.7,2.6h0l-1.2,1.2l-0.8,0.8v0
						l7.4,94.1c-1.1,1.9-1.9,3.2-2.3,3.9l-30.5,25c0,0,0,0,0,0l-21.2,17.4l0,0l-118.4,96.8l-124.4,27.4l-4.6,1l0.7,4.6l6.2,41.5
						c-8.9-1.4-26-4.1-47.4-8h0c-2.2-0.4-4.5-0.8-6.8-1.3c-1.1-0.2-2.3-0.4-3.5-0.6c-7-1.3-13.9-2.7-20.6-4
						c-99.2-19.9-162.8-42.2-180-63.3l-0.7-0.9l-1-0.5c-14.5-6.8-26.9-18.3-36.8-34.2c4.4-56.6,104.5-145.8,115-155c0,0,0,0,0,0v0
						c0.3-0.3,0.5-0.5,0.7-0.6c0.5-0.3,1.6-1.1,3.3-2.3v0c0,0,0.1,0,0.1-0.1c2.9-2,7.2-5.1,12.2-8.7c2.2-1.6,4.5-3.2,6.8-4.9
						c-1.3-1.2-2.6-2.4-3.8-3.5c-1.9,1.4-3.8,2.8-5.6,4c-3.4,2.4-6.4,4.6-9,6.4c-1.8,1.3-3.4,2.4-4.5,3.2c-1.7,1.2-2.6,1.9-2.6,1.9
						s-114.6,98.6-117.7,160.7c0,0,0,0.1,0,0.1c0.3,0.5,0.7,1.1,1,1.6v0c9.4,15,21.9,28,38.8,35.9c23.8,29.3,121.3,53,191.8,66.8
						c0.1,0,0.1,0,0.2,0c3.9,0.8,7.8,1.5,11.5,2.2c1.6,0.3,3.3,0.6,4.9,0.9c0,0,0,0,0.1,0c1.1,0.2,2.2,0.4,3.2,0.6
						c6.1,1.1,11.8,2.1,17.1,3.1c23.7,4.1,39.2,6.3,39.2,6.3l0-0.1l-7.1-48.1h0l125.5-27.7l0.2-0.2l140-114.5l0,0l31.3-25.6l0.1-0.1
						C1282.2,1476.5,1283.6,1474.5,1285.8,1470.2L1285.8,1470.2z M260.1,2045.6h1.2v0L260.1,2045.6z M286.9,2045.6l-25.6,0H310
						L286.9,2045.6z M368.1,2045.6l-10,0l-48.2,0L368.1,2045.6L368.1,2045.6z M545.2,2045.5l-166.8,0.2c0,0,0,0,0,0h199.3
						L545.2,2045.5z M883.2,2045.6l-23.6-0.1h-0.7l-22.7-0.1l-2.5,0.1h-0.1l-4,0.2h181.7L883.2,2045.6z M1234.6,2045.5h-223.2
						c0,0.1,0,0.1,0,0.2h223.4C1234.6,2045.5,1234.6,2045.5,1234.6,2045.5z M1236.1,2045.5c-0.1,0.1-0.2,0.1-0.2,0.2h861.9v-0.2
						H1236.1z M2096.2,1743.1c-0.2,0.1-0.4,0.1-0.5,0.1c-1.4,0-3.5-1.9-4.7-3.5c-7.6-37-30.8-68.5-49.1-88.5
						c-18.3-20-34.8-32.4-38-34.7l-47.6-54.9c-1.1-3.5-5.2-14.8-13-26.8c-12.4-18.9-28.4-30.4-46.3-33.3l-98.9-35.1
						c-3-1.6-19.7-9.8-49.1-9.8c-9.4,0-19.2,0.8-29.2,2.5c-4.2-1.6-16.8-5.8-33.6-5.8c-16.1,0-31.3,3.9-45.3,11.5
						c-51.1-3.1-250.3-54.7-275.9-61.3c-1.9-4.6-7.6-14.9-26.7-40.5c-12.6-16.9-25.2-32.6-25.3-32.7l-0.1-0.1l-3.3-4.1l-0.1-0.1
						l-0.8-0.9l-3.8,5.5l-7.2,10.4l-19.7,20l-3.9,3.9l-1.6,1.6l0.1,1.8l0,0.3l0,0.3l0.3,4.1l0.1,0.8l0.1,1.4v0l7.4,94.1
						c-1.1,1.9-1.9,3.2-2.3,3.9l-30.5,25c0,0,0,0,0,0l-21.2,17.4l0,0l-118.4,96.8l-124.4,27.4l-4.6,1l0.7,4.6l6.2,41.5
						c-8.9-1.4-26-4.1-47.4-8h0c-2.2-0.4-4.5-0.8-6.8-1.3c-1.1-0.2-2.3-0.4-3.5-0.6c-7-1.3-13.9-2.7-20.6-4
						c-99.2-19.9-162.8-42.2-180-63.3l-0.7-0.9l-1-0.5c-14.5-6.8-26.9-18.3-36.8-34.2c4.4-56.6,104.5-145.8,115-155c0,0,0,0,0,0v0
						c0.3-0.3,0.5-0.5,0.7-0.6c0.5-0.3,1.6-1.1,3.3-2.3v0c0,0,0.1,0,0.1-0.1c2.9-2,7.2-5.1,12.2-8.7c2.2-1.6,4.5-3.2,6.8-4.9
						c0.5-0.3,0.9-0.7,1.4-1c0.8-0.6,1.6-1.1,2.4-1.7c0.1-0.1,0.1-0.1,0.2-0.1c0.1-0.1,0.2-0.1,0.2-0.2c0.1-0.1,0.3-0.2,0.4-0.3
						c1.2-0.9,2.4-1.7,3.5-2.6c7.3-5.4,12.6-9.4,16.4-12.5c9.2-7.4,9.7-9,10.2-10.4c0.9-2.8-0.1-5.6-5.1-13.5
						c-2.9-4.6-7.1-10.9-12.5-18.8c-9.8-14.2-21.6-30.4-29.4-41.1c-3.7-5-7.1-9.8-7.7-10.6c-1-1.7-2.7-2.6-4.7-2.6
						c-1.6,0-3.7,0-20.5,8.9c-1.9,1-4,2.2-6.4,3.4c-10.4,5.7-20.5,11.5-21.1,11.8c-1.9,1.1-3.9,2.3-5.8,3.7
						c-0.2,0.1-0.4,0.3-0.6,0.4c-1.1,0.8-2.3,1.6-3.4,2.5c-33.1,25.6-71.4,85.8-79.2,98.4c-6,0.8-18.9,4.1-52.1,16.7
						c-23.3,8.8-53.6,21.1-90.3,36.5c-58,24.4-113.7,49.1-121.7,52.7h-1l-0.7,0.7c-5.3,2-29.8,11.7-58.6,28.4
						c-41.7,24.1-71.6,50.7-88.8,78.8c-4.8,2.5-22.5,11.6-41.7,22.8c-27.7,16.2-46.5,29.8-56,40.3c-28,19.3-59.6,40-64.4,41.4
						l-1.1,0.2l-0.9,0.8c-0.1,0.1-12.3,10.1-24.4,20.9c-11.3,10.1-17.7,16.6-21.4,21.1v9.6c0.7-8.2,49-47.7,49-47.7c0,0,0,0,0.1,0
						c0.1,0,0.2-0.1,0.3-0.1c8.7-2.8,66.2-42.4,66.2-42.4c10.7-12.2,34-27.3,55.2-39.7c0,0,0,0,0,0c21.6-12.7,41-22.4,42.6-23.2
						c0,0,0.1,0,0.1-0.1c0,0,0,0,0,0c0,0,0-0.1,0.1-0.1c40.2-67.1,145-106,146.6-106.6c0,0,0,0,0,0s0.2-0.1,0.5-0.2c0,0,0,0,0,0
						c12.5-5.6,238.2-105.7,265.4-105.9h0.1c0,0,43.4-71.3,79.2-99.1c1.2-0.9,2.3-1.8,3.5-2.6c0.2-0.1,0.4-0.3,0.6-0.4
						c1.8-1.3,3.6-2.4,5.4-3.4c0,0,15.9-9.1,28.9-16h0c7.9-4.2,14.8-7.5,16.5-7.5c0.2,0,0.3,0.1,0.4,0.1
						c1.2,2.3,53.8,72.5,54.3,79.6v0.1c0,0.1,0,0.2,0,0.3c-0.4,1.1-3.7,4.1-8.6,8c-4.6,3.7-10.7,8.3-16.9,12.8c-1.3,1-2.7,2-4,3
						c0,0,0,0-0.1,0.1h0c-0.1,0.1-0.2,0.2-0.4,0.3c-0.8,0.6-1.5,1.1-2.3,1.7c-0.5,0.4-1,0.7-1.4,1c-1.9,1.4-3.8,2.8-5.6,4
						c-3.4,2.4-6.4,4.6-9,6.4c-1.8,1.3-3.4,2.4-4.5,3.2c-1.7,1.2-2.6,1.9-2.6,1.9s-114.6,98.6-117.7,160.7c0,0,0,0.1,0,0.1
						c0.3,0.5,0.7,1.1,1,1.6v0c9.4,15,21.9,28,38.8,35.9c23.8,29.3,121.3,53,191.8,66.8c0.1,0,0.1,0,0.2,0c3.9,0.8,7.8,1.5,11.5,2.2
						c1.6,0.3,3.3,0.6,4.9,0.9c0,0,0,0,0.1,0c1.1,0.2,2.2,0.4,3.2,0.6c6.1,1.1,11.8,2.1,17.1,3.1c23.7,4.1,39.2,6.3,39.2,6.3l0-0.1
						l-7.1-48.1h0l125.5-27.7l0.2-0.2l140-114.5l0,0l31.3-25.6l0.1-0.1c0,0,1.5-2,3.7-6.2l0-0.1c0,0,0,0,0,0l-7.8-99.7v0l-0.2-2.1
						l0,0l0.8-0.8l23-23.4l0,0l0.1-0.1l7.3-10.6c0,0,0.3,0.4,0.8,1c6.5,8.2,49.1,62,51.1,73.1c0,0,0,0,0,0
						c1.8,0.5,228.3,59.9,281,62.3h0c0.1,0,0.1,0,0.1,0l0.6-0.4c15.4-8.5,30.6-11.1,43.3-11.1c19.4,0,33,6,33,6
						c11.1-1.9,21-2.7,29.8-2.7c30.9,0,47.1,9.3,47.1,9.3l99.7,35.4c40.7,6.1,56.1,57.7,56.1,57.7l48.5,56l0,0l0.1,0.1
						c0,0,71.9,51.2,85.7,121.5c0,0,4.1,6.6,9.4,6.6c0.7,0,1.5-0.1,2.2-0.4v-5.3L2096.2,1743.1z"/>
				</g>
			</g>
			<g>
				<g>
					<path class="st3" d="M1282.2,1476.4c0,0-64.1,109.2-171.7,140.4l-125.6,27.7l7.2,48.2c0,0-27.2-3.9-64.5-10.9
						c-71-13.4-226.5-33.9-251.7-64.8c0,0-1.2-83.4,2.7-100.7c0,0,32.7-62.3,50-66.9c0,0,65.6-37.5,80.8-40
						c0.8-0.1-8.1,43.9-7.4,43.9c0,0,5.6-55.3,1.1-78.4c-0.3-1.7-0.7-3.2-1.1-4.4c1.8,1.4,3.6,2.9,5.4,4.3c0.8,0.6,1.5,1.2,2.3,1.7
						c0,0,84.6,101.5,161.4,96.1c0,0,127.6,40.2,218.3-15.9l84.6-84.6L1282.2,1476.4z"/>
				</g>
			</g>
			<g>
				<g>
					<polygon class="st4" points="1301.7,1344.1 1277.8,1368.3 1286.3,1475.9 1325.5,1433.7 1312,1344.1 					"/>
				</g>
			</g>
			<g>
				<g>
					<path class="st5" d="M986.7,1933c0,0,31.8-38.8,33.3-38.8s4.3-3.6,4.3-3.6h6c0,0,38,9.2,52.8,0.5l36.9,154.3h-117.9L986.7,1933
						z"/>
				</g>
			</g>
			<g>
				<g>
					<path class="st4" d="M658,1475.9c0,0,4-45.3,10.6-54.9c0,0,51.5-84.7,88.6-105.4c0,0,44.6-25.6,45.8-23.3s55.8,75.2,54.3,79.9
						c-1.5,4.7-55.4,42.3-55.4,42.3s-114.7,98.7-117.7,160.8l-8.8,9.1l-18.4-51.9L658,1475.9z"/>
				</g>
			</g>
			<g>
				<g>
					<path class="st6" d="M2097.9,1747.7v297.7h-226.5l-4.3-12l-29.2-82.5l13.7-79.9l33.5-195.1l115.2-55.7l0.1,0
						c0,0,71.9,51.2,85.7,121.5C2086.2,1741.5,2091.5,1750,2097.9,1747.7z"/>
				</g>
			</g>
			<g>
				<g>
					<path class="st7" d="M1873.4,2045.4c0,0-70.7-257,127.1-425.3l-48.6-56.1c0,0-15.4-51.5-56.1-57.7l-99.7-35.4
						c0,0-26.7-15.4-76.9-6.7c0,0-37.4-16.4-76.4,5.1l-111.9,80.7l-81.9,177.6l-9.6,138.6l-39.9,179H1873.4z"/>
				</g>
			</g>
			<g>
				<g>
					<path class="st6" d="M1642.2,1469.8c0,0-94.6,77.6-100.7,159.1c0,0-63.5,330.2-141.9,416.4h-298.3c0,0-31.4-129.1-18.3-154.1
						c0,0,0,0,0-0.1c0,0,0-0.1,0-0.1c0,0,0-0.1,0-0.1s193.2-104.6,243.9-280.6c0,0,42.1-92.3,37.6-174.5c-0.5-9.7-1.7-19.2-3.7-28.5
						C1361,1407.5,1589.5,1467.5,1642.2,1469.8z"/>
				</g>
			</g>
			<path class="st3" d="M703.5,550.4c0,0-55.6,77.6-69.3,128.5c0.5-2.4,1-4.9,1.6-7.4c12.2-51,50.3-122.3,50.3-122.3
				c3.7-41.2,16.6-79.8,33.2-110.5C705.8,468,699,504.6,703.5,550.4z"/>
			<path class="st3" d="M1107.4,303.4c-0.9-0.2-1.8-0.4-2.7-0.7c0.1,0,0.2,0,0.3,0.1C1105.8,303,1106.6,303.2,1107.4,303.4z"/>
			<path class="st3" d="M1342.6,421.8c0,0-108-85.1-229.4-117c121.8,31.7,230.5,117.2,230.5,117.2c2.1,2.2,4.2,4.6,6.2,7
				C1347.3,426.6,1344.9,424.2,1342.6,421.8z"/>
			<path class="st3" d="M1428.2,806.9l-2.6,37.7c0.3,3.3,0.6,6.6,0.8,10c0.1,0.8,0.1,1.5,0.2,2.3c0,0.4,0.1,0.7,0.1,1.1
				c0,0.4,0,0.7,0.1,1.1c0.8,15.6,0.6,32.4-0.2,49c0,0.6-0.1,1.1-0.1,1.7c-0.2,4.5-0.6,9-0.9,13.4c0,0.4-0.1,0.8-0.1,1.2v0
				c-0.3,3.7-0.6,7.4-0.9,11c0,0,0,0.1,0,0.2c-0.3,3.3-0.6,6.6-0.9,9.8c-2.3,22.2-5.2,42.3-7.5,56.8c-1.6,10.2-3,17.7-3.7,21.3
				c-0.2,0.9-0.3,1.5-0.4,1.9c0,0.1,0,0.1,0,0.2c0,0.2-0.1,0.3-0.1,0.3l-0.6,1.9l-7.4,23.1l-0.1,0.2l-2.6,8l-0.1,0.3l-19.7,61.2v0
				l-4.1,12.9c-10.1,94.3-44.7,158.8-67.8,192.5c-12.5,18.2-21.6,27.4-21.6,27.4l-9.8,9.6l-5.5,5.4l-1,1l-19.7,19.4l-64,63
				c-10.1,6.2-20.5,11.3-31.1,15.3h0c0,0-0.1,0-0.1,0c-3.2,1.2-6.4,2.4-9.7,3.4c-1,0.3-2,0.7-3.1,1c-2.1,0.6-4.2,1.3-6.3,1.8
				c-1,0.3-2,0.5-3,0.8c-1.5,0.4-2.9,0.7-4.4,1.1c-1.2,0.3-2.4,0.6-3.6,0.8c-3.1,0.7-6.3,1.3-9.4,1.9c-10.8,1.9-21.4,3.1-31.8,3.6
				c-1.6,0.1-3.2,0.2-4.8,0.2c-4,0.1-7.9,0.2-11.7,0.2c-36.9,0-68.5-6.5-84.1-10.4c-0.2,0-0.3-0.1-0.5-0.1c-0.5-0.1-0.9-0.2-1.4-0.3
				c-0.1,0-0.3-0.1-0.4-0.1c-0.3-0.1-0.6-0.2-0.9-0.2c-4.7-1.2-7.3-2.1-7.3-2.1c-0.1,0-0.1,0-0.1,0c-2.1,0.1-4.1,0.2-6.2,0.2
				c-9.1,0-18.4-1.3-27.6-3.7c-0.3-0.1-0.6-0.2-1-0.2c-42.7-11.2-84-43.9-107.9-65.7c-1.3-1.2-2.6-2.3-3.8-3.5c0,0,0,0-0.1-0.1
				c-0.5-0.5-1-0.9-1.4-1.3l0,0c-9.9-9.3-15.7-15.7-15.7-15.7c-2.6-2-5.2-4-7.7-6c-0.1-0.1-0.3-0.2-0.4-0.3c-2.5-2-4.9-4-7.2-6.1
				c-17.8-15.4-32.1-31.8-43.5-47.5c0,0,0-0.1-0.1-0.1c-1-1.3-1.9-2.7-2.8-4c-29.4-42-38.2-78.2-38.2-78.2L674.6,1086l-6.6-31.4
				l-3.5-16.5l-29.1-137.4c0.8-3.2,1.5-7.3,2.1-12.1v0c0.1-1.2,0.3-2.5,0.4-3.9c20.5-53.7,37.6-146.5,37.6-146.5
				c2.7-35,31.3-32.6,39.6-41.7c2.1-7.1,15.1-10.5,15.1-10c0.5-0.6,0.9-1,1.1-1.2c0.1,0,0.1-0.1,0.1-0.2l0,0
				c5.3-6.1,13.2-10,21.3-13.5c6.6-2.9,14.8-4.7,9.4-3.8c23-4.5,32-4.4,55.8-5.9c4.1-0.2,8.2-0.1,12.3-0.1c36.1-1.4,58.6,9,92,20.1
				c5.8,1.6,9.2,5,15.1,6.5c5.1,1.3,11.4-6.4,15.7-8.8c3.7-2.1,7.3-4.5,10.1-7.3c5.6-5.5,5.3-10.9,1.5-17.3
				c-4.6,15.4-25.8,26.7-25.8,26.7c-16.6-12.1-94.5-30.4-94.5-30.4c-58.7-12.5-97.7,7.5-119,24.7c-2.9,6-7.3,11.1-12.7,15.5
				c-1,0.8-2,1.6-3,2.3c0.2,0.1,0.4,0.2,0.6,0.3c-0.2,0-0.4,0-0.6,0c-0.1,0-0.3,0-0.4,0h0c0,0,0,0,0,0c-0.3,0-0.6,0.1-0.8,0.2
				c-0.5,0.1-0.9,0.4-1.3,0.7c-0.1,0.1-0.2,0.2-0.3,0.3c-0.2,0.2-0.5,0.5-0.8,0.8c0,0,0,0,0,0c0,0,0,0,0,0c-0.1,0.2-0.2,0.3-0.2,0.3
				c0,0,0-0.1,0-0.1v0c1.3-30.6,12.6-52.1,24.9-66.6c0.8-8.2,2-16.3,3.8-24.4c1-4.6,2.4-8.9,4.4-12.9c0,0,0,0,0,0
				c0.7-2.1,6.1-133,58.2-155.6c25.8-19.4,22.3-41.7,22.3-41.7c-0.6-15.9,0.4-20.3,10.1-28.1c8.1-6.6,16.9-12.8,25.9-18.6
				c6.5-4.2,13.8-7.7,20.8-11.6c2.2-1.2,18.7-5.2,20.9-6.5c15.2-4.6,16.8-4,32.6-6.1c12.1-1.6,24.3-2.3,36.5-3.5
				c20.4-2.4,40.6-1.2,60.5,2.9c14.2,2.9,28.2,6.2,42.3,9.3c23.6,5.2,47.1,10.4,70.7,15.5c7,1.5,14.2,2.7,21.3,4
				c9.1-0.1,17.9,1,26.1,4.2c13.4,2.9,23.8,9.6,34,16.6c8.1,5.9,16.2,11.8,24.4,17.5c9.6,6.7,20.3,11.7,32.6,14.6
				c30.3,7.1,56.2,19.9,77.1,39c9.9,9.1,16.1,19.5,15.4,31.8c-0.3,5.6-1.5,11.2-2.5,16.8c-2.7,14-2.2,17.1-1.5,28.2l-0.4-0.3
				l4.6,94.6l0.1,1.3v0.1c0.2,1.9,0.8,4.3,2.1,7.3c0.7,1.1,1.3,2.3,1.9,3.5c5.4,10.9,8.4,22.3,9.7,33.9
				c20.6,32.2,20.6,69.4,20.6,69.4c-3.2-5.8-6.7-11.2-10.4-16.1l3.1,9.8c-1.6-2.1-3.2-4.2-4.8-6.2c0.9,2.9,2,5.8,3.1,8.6
				c5.6,14.3,12.9,28,21.1,41.5c1.6,2.6,3.1,5.3,4.6,7.9c4,4.4,5.7,9.2,5.4,14.7c-0.1,2.8,0.2,5.7,0.6,8.7
				C1427.9,802.4,1428.2,804.7,1428.2,806.9L1428.2,806.9z"/>
			<g class="st8">
				<g>
					<path d="M1237,1775.7c0,0-80.2,76.9-89.1,269.6h-46.6c0,0-29-111.2-18.2-154.3l104.1-122.1L1237,1775.7z"/>
				</g>
			</g>
			<g>
				<g>
					<path class="st2" d="M801.9,1370.5c1.8,1.4,3.6,2.9,5.4,4.3c0.8,0.6,1.5,1.2,2.3,1.7c0,0,80.3,96.3,155.5,96.3c2,0,4-0.1,6-0.2
						c0,0,44.3,14,99.2,14c38.3,0,81.8-6.8,119.1-29.9l84.6-84.6l8.2,104.3c0,0-71.2,52.1-178.9,83.3l-229.1,29l61.7,95
						c-2.4-0.7-5.2-1.3-8.3-1.9c-71-13.4-226.5-33.9-251.7-64.8c0,0,5.6-22.8,9.4-40.1c0,0,5.7-53.4,65.9-108.7
						c0,0,35.8-38.9,53.3-54.7c-0.5,15.9-1.8,31.1-2.4,37.1c-0.3,1.7-0.4,2.7-0.3,2.7c0,0,0.1-1,0.3-2.7c1.4-9.6,7.6-41.2,7.2-41.2
						c0,0,0,0,0,0c-1.4,1.1-3,2.5-4.8,4.1c0.5-14.3,0.3-29.2-1.5-38.6C802.7,1373.2,802.3,1371.7,801.9,1370.5L801.9,1370.5z
						 M935.9,1683.7c26.1,7.1,11.4,17.5,11.4,17.5L935.9,1683.7L935.9,1683.7z M791.7,1355.8l5.4,16.3c0.4,1.1,0.7,2.4,1,3.8
						c1.4,7.4,2,19.6,1.5,35.4c-17.6,16.2-49.2,50.5-51.9,53.4c-31.6,29.1-48.2,57.7-56.6,76.6c-8.5,19.3-10.5,32.6-10.7,34.8
						c-3.8,17-9.3,39.5-9.3,39.7l-0.6,2.4l1.6,1.9c10,12.2,36.8,23.3,84.3,34.6c39.4,9.4,86.6,17.4,124.5,23.9
						c16.9,2.9,32.9,5.6,45.8,8c2.2,0.4,4.2,0.9,6.1,1.3l10.3,15.9l2.8,4.4l4.3-3c0.8-0.5,7.4-5.4,6.1-12.6
						c-1-5.8-6.6-10.2-17.2-13.3l-56.3-86.7l221.1-28l0.4,0l0.4-0.1c56-16.3,102-38.2,130.8-53.8c31.2-16.9,48.9-29.8,49.6-30.3
						l2.3-1.7l-0.2-2.8l-8.2-104.3l-0.9-10.9l-7.7,7.7l-84.2,84.2c-31.1,19.1-70.1,28.8-116,28.8c-53.5,0-97.3-13.6-97.7-13.7
						l-0.9-0.3l-1,0.1c-1.9,0.1-3.7,0.2-5.6,0.2c-37.4,0-76.5-25.6-102.8-47c-28.8-23.5-48.7-47.2-48.8-47.5l-0.4-0.4l-0.5-0.3
						l-0.1-0.1c-0.7-0.6-1.5-1.1-2.2-1.7c-2-1.5-3.7-2.9-5.3-4.2L791.7,1355.8L791.7,1355.8z"/>
				</g>
			</g>
			<g>
				<g>
					<path class="st9" d="M992.1,1692.7l-7.2-48.2l125.6-27.7l171.7-140.4c0,0,30.3-41.6,19.5-132.3l7.4-10.8
						c0,0,49.8,62.2,51.9,74.2c0,0,35.2,154.1-37.4,278.1L1140,1876.7l-36.7-5.6l-96.6-130.7L992.1,1692.7z"/>
				</g>
			</g>
			<g>
				<g>
					<path class="st6" d="M1011.3,2045.5l-128.1,0l-80.8,0l-257.2-0.1l-166.8,0.1l-20.2,0l-48.2,0l-88.4-0.2l-2-97.4l-4.1-206
						l-0.4-21l-1.2-59l-0.7-4.9c22.2-13,42.1-23,42.7-23.3c0,0,0,0,0,0c40.2-67.1,145-106.1,146.7-106.7c0,0,0,0,0,0
						s238.3-106.1,266-106.1c0,0-35.8,162.6-17.3,201.8c0,0,62.1,109.8,134.7,198.8c0.7,0.9,1.4,1.7,2.1,2.5
						c46.3,56.4,96.7,103.9,137.7,108.9c0,0,56.9,5.5,61,0C986.7,1933,1017.5,2023.7,1011.3,2045.5z"/>
				</g>
			</g>
			<g>
				<g>
					<path class="st10" d="M572.9,1986.5c0,0-0.6-3-1.7-8.5C572.3,1982.1,572.9,1985,572.9,1986.5z"/>
				</g>
			</g>
			<g>
				<g>
					<path class="st9" d="M426,1743.9l119.2,301.5l-177.1,0.2l-17.4-29.5c0,0-75.9-324.6-84.2-366.8c0,0,0,0,0,0
						c1.8-2.2,3.6-4.4,5.5-6.4c5.5-6,11.1-11,16.8-14.6c0,0,71.6-84.9,157.5-39.6c2.3,6.6,3.2,12.1,3.2,16.6
						c74.2,148.5,113.5,331.7,121.8,372.9c-15.4-57.9-133.6-352.9-133.6-352.9c-7.7-30.8-47.7-26.9-47.7-26.9
						C359.8,1635.1,426,1743.9,426,1743.9z"/>
				</g>
			</g>
			<g>
				<g>
					<path class="st7" d="M378.4,2045.5l-20.3,0l-78.7-0.1l-59.9-97.4L91.4,1739.4c7.2-1.5,66.6-42.5,66.6-42.5
						c10.7-12.2,34-27.3,55.2-39.7c22.2-13,42.1-23,42.7-23.3c0,0,0,0,0,0l15.9,8.7c0.1,0.1,0.1,0.2,0.2,0.3
						c31.7,53.9,63.9,174.8,63.9,174.8c12.8,7,32.5,181.6,32.3,181.6C367.9,1999.2,378,2043.8,378.4,2045.5
						C378.4,2045.5,378.4,2045.5,378.4,2045.5z"/>
				</g>
			</g>
			<g>
				<g>
					<path class="st2" d="M554,717.2c0.1,0.2,0.1,0.4,0.1,0.6c-0.1-0.1-0.1-0.2-0.1-0.2c0-0.1,0-0.1,0-0.2
						C554,717.3,554,717.3,554,717.2L554,717.2z"/>
					<path class="st2" d="M1504.1,415c18.3,15.9-9.3,149.6-9.3,149.6c-29.4,113.6-55.9,275.6-55.9,275.6c-3.7,4.7-5.9,8.2-7.6,10.9
						c-1.7,2.7-2.9,4.6-4.6,6c0-0.8-0.1-1.6-0.2-2.3c-0.2-3.4-0.5-6.8-0.8-10l2.6-37.7v0l0.3-3.8l0.9-12.9l5-73.9
						c0,0,3-51.3-9.2-87.6c-1.2-3.6-2.6-7-4.1-10.2c0,0-1.8-13.3-6.2-33.5c-3.8-17.8-9.7-41-17.9-65.1c-11-32.1-26.3-65.8-47-90.7
						l0,0c-2-2.4-4.1-4.8-6.2-7c0,0-108.7-85.5-230.5-117.2c-0.9-0.2-1.8-0.5-2.8-0.7c-1-0.2-2-0.5-3-0.7c-0.8-0.2-1.6-0.4-2.5-0.6
						c-0.8-0.2-1.6-0.4-2.5-0.6c-0.8-0.2-1.5-0.4-2.3-0.5c-0.1,0-0.1,0-0.2,0c-2.5-0.6-4.9-1.1-7.4-1.6c-0.8-0.2-1.7-0.3-2.5-0.5
						c-2.3-0.5-4.6-0.9-6.9-1.3c-1-0.2-2-0.4-3.1-0.5c-0.8-0.1-1.7-0.3-2.5-0.4c-1.1-0.2-2.1-0.4-3.2-0.5c-1.1-0.2-2.2-0.3-3.3-0.5
						c-0.3,0-0.7-0.1-1-0.1c-0.3,0-0.6-0.1-0.8-0.1c-0.5-0.1-1-0.2-1.6-0.2c-0.8-0.1-1.7-0.2-2.5-0.3c-0.4-0.1-0.8-0.1-1.2-0.2
						c-0.9-0.1-1.7-0.2-2.6-0.3c-0.6-0.1-1.1-0.1-1.7-0.2c-1.7-0.2-3.4-0.4-5-0.5c-0.7-0.1-1.3-0.1-2-0.2c-5-0.4-9.9-0.8-14.9-0.9
						c-1.2,0-2.4-0.1-3.6-0.1c-1,0-2.1,0-3.1-0.1c-0.7,0-1.4,0-2.2,0c-3.4,0-6.8,0-10.3,0.2c0,0,0,0-0.1,0c-1.6,0.1-3.2,0.1-4.8,0.2
						c-0.3,0-0.6,0-0.9,0.1c-1.3,0.1-2.6,0.2-3.9,0.3c-0.4,0-0.9,0.1-1.3,0.1c-1.2,0.1-2.4,0.2-3.6,0.3c-0.5,0-1,0.1-1.4,0.1
						c-1.2,0.1-2.4,0.3-3.6,0.4c-0.4,0.1-0.9,0.1-1.3,0.2c-1.3,0.2-2.5,0.3-3.8,0.5c-0.3,0-0.7,0.1-1,0.2c-1.5,0.2-3.1,0.5-4.6,0.7
						c-0.4,0.1-0.8,0.1-1.2,0.2c-3.4,0.6-6.8,1.3-10.1,2c-1.6,0.4-3.2,0.7-4.8,1.1c0,0-0.1,0-0.1,0c-1.6,0.4-3.2,0.8-4.8,1.3
						c-0.7,0.2-1.4,0.4-2,0.6c-0.8,0.2-1.6,0.5-2.4,0.7h0c-2.3,0.7-4.7,1.5-7,2.3c-0.3,0.1-0.6,0.2-0.9,0.3c-2,0.7-4,1.4-6,2.2
						c-1.2,0.4-2.3,0.9-3.4,1.4c-2.3,0.9-4.6,1.9-6.8,3c-0.4,0.2-0.7,0.3-1.1,0.5c-1.9,0.9-3.8,1.8-5.7,2.7
						c-1.1,0.6-2.2,1.1-3.3,1.7c-4.4,2.4-8.8,4.9-13.1,7.7c0,0-1.2,0-3.4,0.2c-0.3,0-0.7,0-1.1,0.1c-0.1,0-0.3,0-0.4,0
						c-0.2,0-0.5,0-0.8,0.1c-0.2,0-0.4,0-0.7,0.1c-0.3,0-0.6,0-0.8,0.1c-0.2,0-0.3,0-0.5,0c-0.3,0-0.7,0.1-1,0.1
						c-1.2,0.1-2.5,0.2-3.8,0.4c-0.3,0-0.7,0.1-1,0.1c-0.8,0.1-1.5,0.2-2.4,0.3c-0.8,0.1-1.7,0.2-2.6,0.4c-0.7,0.1-1.3,0.2-2,0.3
						c-0.4,0.1-0.7,0.1-1.1,0.2c-0.3,0-0.5,0.1-0.8,0.1c-1.4,0.2-2.8,0.4-4.2,0.7c0,0-0.1,0-0.1,0c-1.1,0.2-2.2,0.4-3.4,0.6
						c-0.4,0.1-0.8,0.1-1.1,0.2c-0.6,0.1-1.2,0.2-1.8,0.3c-1,0.2-2,0.4-3,0.6c-0.6,0.1-1.3,0.2-1.9,0.4c-1.3,0.3-2.7,0.5-4.1,0.9
						c-0.5,0.1-1.1,0.2-1.6,0.3c-0.1,0-0.3,0.1-0.5,0.1c-0.7,0.2-1.4,0.3-2.1,0.5c0,0,0,0-0.1,0c-1.3,0.3-2.7,0.6-4,1
						c-0.1,0-0.2,0-0.2,0.1c-1.5,0.4-3,0.7-4.5,1.1c-1.5,0.4-3,0.8-4.5,1.2c-2.3,0.6-4.6,1.3-7,2c-0.8,0.2-1.6,0.5-2.4,0.7
						c-1.6,0.5-3.2,1-4.8,1.5c-1.6,0.5-3.2,1.1-4.9,1.7c-1.6,0.6-3.3,1.2-4.9,1.8c-0.8,0.3-1.6,0.6-2.5,0.9
						c-2.4,0.9-4.8,1.9-7.2,2.9c-0.2,0.1-0.4,0.2-0.6,0.3c-0.7,0.3-1.5,0.6-2.2,0.9c-1.7,0.7-3.4,1.5-5.1,2.2
						c-0.8,0.4-1.7,0.8-2.5,1.2c-1.7,0.8-3.4,1.6-5.1,2.5c-0.8,0.4-1.7,0.8-2.5,1.3c-1.7,0.9-3.4,1.8-5.2,2.7
						c-0.7,0.4-1.4,0.8-2.1,1.1c-0.2,0.1-0.3,0.2-0.5,0.3c-0.7,0.4-1.4,0.8-2.1,1.2c-1.7,1-3.4,2-5.1,3c-0.6,0.4-1.2,0.8-1.8,1.1
						c-0.3,0.2-0.6,0.4-0.9,0.6c-0.5,0.3-1,0.6-1.5,1c-0.8,0.5-1.6,1-2.3,1.5c-0.9,0.6-1.9,1.2-2.8,1.9c-0.1,0.1-0.3,0.2-0.4,0.3
						c-1,0.7-1.9,1.4-2.9,2c-1,0.7-2,1.5-3,2.2c-1,0.7-1.9,1.4-2.8,2.1c-1,0.8-2.1,1.6-3.1,2.5c-10.2,8.2-19.8,17.6-28.4,28.5
						c0,0-0.1,0.1-0.1,0.1c-7.6,9.7-14.3,20.5-19.9,32.5c0,0,0,0.1,0,0.1c-16.6,30.7-29.5,69.3-33.2,110.5c0,0-38.1,71.3-50.3,122.3
						c-0.6,2.5-1.1,5-1.6,7.4c-2.1,7.9-3.3,15.1-3,21.3c0,0.1,0,0.2,0,0.4c0,0.2,0,0.4,0,0.6c0,0.3,0,0.6,0.1,0.9c0,0,0,0.1,0,0.4
						c0,0.1,0,0.2,0,0.3c0,0.3,0.1,0.6,0.1,1c0,0.3,0,0.5,0.1,0.9c0.2,2,0.4,5.1,0.7,9.2c0.1,0.9,0.1,1.9,0.2,2.9c0,0.3,0,0.7,0.1,1
						c0,0.4,0.1,0.7,0.1,1.1c0.1,1.1,0.2,2.2,0.2,3.4c0.1,1.7,0.2,3.5,0.4,5.3c0.1,0.9,0.1,1.8,0.2,2.8c0.6,8.6,1.2,18.6,1.8,29.5
						c0.1,2,0.2,4,0.3,6.1c0.1,1.6,0.2,3.2,0.3,4.8c0.1,1.1,0.1,2.2,0.2,3.3c0.1,2.7,0.3,5.3,0.4,8c0,0.8,0.1,1.5,0.1,2.3
						c0.1,2.3,0.2,4.6,0.3,6.9c0.1,3.1,0.3,6.2,0.4,9.4c0.6,17.5,1.1,35.1,0.9,50.9c0,0.5,0,0.9,0,1.4c0,0.8,0,1.6,0,2.5
						c0,1.3,0,2.5-0.1,3.8c0,1.6-0.1,3.2-0.1,4.7c0,1.4-0.1,2.7-0.1,4c-0.1,1.8-0.1,3.5-0.2,5.2c0,0.8-0.1,1.6-0.1,2.4
						c0,0,0,0.1,0,0.2c0,0.8-0.1,1.6-0.1,2.4c0,0.6-0.1,1.1-0.1,1.7c0,0.6-0.1,1.1-0.1,1.7c-0.2,2.3-0.4,4.6-0.6,6.7
						c-0.5,4.8-1.2,8.9-2.1,12.1l-2.4-8.7l-8.5-31.4c-13,2.9-21.5-22.9-26.3-45.8c-0.2-0.7-0.3-1.4-0.4-2.1
						c-0.1-0.4-0.2-0.8-0.2-1.2c-0.2-0.8-0.3-1.5-0.5-2.3c-0.1-0.4-0.2-0.8-0.2-1.1c-0.1-0.8-0.3-1.5-0.4-2.2
						c-0.1-0.4-0.1-0.7-0.2-1.1c0,0,0,0,0,0.1c0,0.1-0.1,0.1-0.1,0.2c0,0,0,0,0,0c-0.6-3.5-1.2-6.8-1.6-9.7
						c-0.2-1.6-0.5-3.1-0.7-4.5c-0.1-0.5-0.1-1.1-0.2-1.6c-0.5-4-0.8-6.4-0.8-6.4c-5.9-67.1-19-75.7-19-75.7
						c0.6,1.9,1.1,3.7,1.6,5.3c0.2,0.7,0.4,1.3,0.5,1.9c0.3,1,0.5,2,0.7,2.9c0.1,0.5,0.2,1,0.4,1.5c0.3,1.2,0.5,2.2,0.7,3.3
						c0.1,0.4,0.2,0.8,0.2,1.2c0,0.1,0,0.2,0,0.2c0.5,3.1,0.7,5.5,0.8,7.4c0,4.2-0.9,6.1-1.7,6.8c-0.6,0.5-1.1,0.6-1.2,0.6
						c-1.4-4.6-2.7-8.7-3.9-12.5c-0.3-1.1-0.7-2.1-1-3.1c-0.8-2.5-1.6-4.9-2.4-7.1c-0.3-0.9-0.6-1.7-0.9-2.5
						c-7-19.5-10.3-23.4-10.3-23.4c0.9,6.8,1.2,11.8,1.1,15.6c0,0.3,0,0.6,0,0.9c0,0.7-0.1,1.4-0.1,2.1v0c0,0.2,0,0.4-0.1,0.6
						c0,0.5-0.1,1-0.2,1.5c0,0.2-0.1,0.5-0.1,0.7c0,0.2-0.1,0.4-0.1,0.6c0,0.2-0.1,0.4-0.1,0.6c0,0.2-0.1,0.4-0.1,0.5
						c-0.1,0.2-0.1,0.4-0.2,0.6c-0.1,0.3-0.2,0.5-0.3,0.8c-0.1,0.1-0.1,0.3-0.2,0.4c-0.1,0.3-0.3,0.6-0.4,0.8c0,0.1-0.1,0.2-0.2,0.3
						c-0.1,0.2-0.2,0.3-0.3,0.4c0,0.1-0.1,0.1-0.1,0.2c0,0-0.1,0.1-0.1,0.2c-0.2,0.3-0.4,0.4-0.5,0.6c0,0.1-0.1,0.1-0.1,0.2v0
						c-0.1-0.3-0.2-0.7-0.2-1.1c-0.3-1.1-0.5-2.3-0.8-3.5c-0.1-0.6-0.3-1.2-0.4-1.8c-0.2-0.8-0.4-1.6-0.6-2.4c0,0,0-0.1,0-0.2
						c-0.4-1.7-0.8-3.4-1.2-5.1c-0.5-2-1-4-1.5-6c-0.3-1.4-0.7-2.8-1-4.2c-0.2-0.9-0.5-1.9-0.7-2.8c-0.3-1.2-0.6-2.4-0.9-3.6
						c-2.4-9.7-5.1-20.2-7.9-31.1c-0.4-1.4-0.7-2.8-1.1-4.2c-0.5-1.9-1-3.8-1.5-5.7c-0.6-2.2-1.1-4.3-1.7-6.5
						c-1.4-5.4-2.9-10.9-4.3-16.4c-0.2-0.9-0.5-1.7-0.7-2.6c-0.5-1.7-0.9-3.4-1.4-5.2l-0.7-2.6c-0.7-2.6-1.4-5.2-2.1-7.8
						c-0.4-1.5-0.8-3-1.2-4.6c-0.5-1.9-1-3.8-1.5-5.7c-0.4-1.5-0.8-3.1-1.2-4.6c-0.3-1-0.6-2.1-0.8-3.1c-0.7-2.4-1.3-4.8-1.9-7.1
						c-0.2-0.8-0.5-1.7-0.7-2.5c-0.2-0.8-0.5-1.7-0.7-2.5c-0.3-1-0.5-2-0.8-3c-0.4-1.5-0.8-3-1.2-4.5c-0.3-1-0.5-2-0.8-2.9
						c-0.4-1.4-0.8-2.7-1.1-4.1c-0.5-1.9-1-3.8-1.5-5.6c-0.8-3.1-1.7-6.1-2.5-9.1c0-0.1-0.1-0.2-0.1-0.4c-0.6-2.2-1.2-4.4-1.8-6.5
						c-0.2-0.9-0.5-1.7-0.7-2.6c-0.4-1.4-0.8-2.8-1.1-4.1c-1.2-4.5-2.4-8.8-3.6-12.9c-0.4-1.3-0.7-2.5-1-3.7
						c-0.9-3.4-1.8-6.6-2.7-9.6c-0.3-1-0.6-2.1-0.9-3.1c-0.4-1.3-0.7-2.5-1.1-3.8c-0.3-0.9-0.5-1.8-0.8-2.7
						c-0.7-2.4-1.3-4.6-1.9-6.7c-0.3-1.3-0.7-2.5-1-3.7c-0.2-0.9-0.5-1.7-0.7-2.5c-0.2-0.6-0.4-1.2-0.5-1.8
						c-0.1-0.2-0.1-0.5-0.2-0.7c-0.2-0.6-0.3-1.2-0.5-1.7c-0.5-2-1-3.6-1.4-4.9c-0.1-0.4-0.2-0.8-0.3-1.2c-0.5-1.6-0.7-2.5-0.7-2.5
						c-22.3-135.3,108.8-170.2,163-170.2c-72.1-145.3,125.7-222,125.7-222c10.4-6.9,21.1-13,31.9-18.3c1.8-0.9,3.6-1.8,5.4-2.6
						c7.2-3.4,14.5-6.4,21.9-9.1c1.8-0.7,3.7-1.3,5.5-2c1.8-0.6,3.7-1.3,5.5-1.9c2.8-0.9,5.5-1.8,8.3-2.6c1.8-0.5,3.7-1.1,5.6-1.6
						c2.8-0.8,5.6-1.5,8.3-2.2c1.9-0.5,3.7-0.9,5.6-1.3c2.8-0.6,5.6-1.2,8.4-1.8c0.9-0.2,1.9-0.4,2.8-0.5c2.8-0.5,5.6-1,8.4-1.5
						c0.9-0.1,1.9-0.3,2.8-0.4c1.9-0.3,3.7-0.5,5.6-0.8c8.4-1.1,16.8-2,25.1-2.5c81.6-5.3,160.2,16.8,213,36.9
						c4.8,1.8,9.4,3.7,13.8,5.4c0.6,0.2,1.2,0.5,1.8,0.8c1.8,0.8,3.7,1.5,5.4,2.2c1.2,0.5,2.3,1,3.4,1.5s2.2,1,3.3,1.4
						c1.1,0.5,2.2,0.9,3.2,1.4c1.1,0.5,2.1,0.9,3.1,1.4c1,0.5,2,0.9,3,1.3c1,0.4,1.9,0.9,2.8,1.3c6,2.8,11.1,5.2,15.1,7.3
						c0.6,0.3,1.2,0.6,1.8,0.9c6,3,9.2,4.9,9.2,4.9c185.7,42.7,270.4,182.7,270.4,182.7c40.4,47.2,44.6,120,43.4,155.4
						C1514.6,424.1,1505.1,415.8,1504.1,415z"/>
				</g>
			</g>
			<g>
				<g>
					<path class="st2" d="M703.5,550.4c0,0-55.6,77.6-69.3,128.5c0.5-2.4,1-4.9,1.6-7.4c12.2-51,50.3-122.3,50.3-122.3
						c3.7-41.2,16.6-79.8,33.2-110.5C705.8,468,699,504.6,703.5,550.4z"/>
				</g>
			</g>
			<g>
				<g>
					<path class="st2" d="M1343.7,422.1c2.1,2.2,4.2,4.6,6.2,7c-2.6-2.5-5-4.9-7.3-7.3c0,0-108-85.1-229.4-117
						C1235,336.5,1343.7,422.1,1343.7,422.1z"/>
					<path class="st2" d="M1428.2,806.9l-2.6,37.7c0.3,3.3,0.6,6.6,0.8,10c0.1,0.8,0.1,1.5,0.2,2.3c-0.3,0.3-0.6,0.5-0.9,0.7
						c0,0-0.1,0-0.1,0.1c-0.3-4.6-0.6-9.1-1.1-13.4l3-44.3C1427.9,802.4,1428.2,804.7,1428.2,806.9L1428.2,806.9z"/>
				</g>
			</g>
			<g>
				<g>
					<path class="st11" d="M1408.2,942.3c-0.6,2.1-0.8,3.3-0.8,3.3C1407.4,944.6,1407.7,943.5,1408.2,942.3z"/>
				</g>
			</g>
			<g>
				<g>
					<path class="st12" d="M982.3,1301.5c0,0,8.7,8.3,59.8,5.6c0,0,44.4,10.7,66.1,0.4C1108.2,1307.5,1018.9,1297.5,982.3,1301.5z"
						/>
				</g>
			</g>
			<g>
				<g>
					<path class="st12" d="M1104.5,1069.6c-9-3.9-24.4-4.6-24.4-4.6c3.3-1,6.8-2.4,10.3-4.4
						C1090.4,1060.6,1095.8,1065,1104.5,1069.6z"/>
				</g>
			</g>
			<g class="st13">
				<g>
					<g>
						<path class="st14" d="M1141.9,905.6c0,0-6,31.9,20.7,69.6c0,0,10.8,14.2,17.7,17.3c0,0-25-65-26.5-92.6
							C1153.8,899.9,1144.4,895.6,1141.9,905.6z"/>
					</g>
				</g>
			</g>
			<g>
				<g>
					<path class="st3" d="M675.4,1093.6c0,0-29.3,29.1-70.8,2.5c0,0-18.5-7.7-19.5-24.1c0,0-29.7-31.8-31.3-80L538,946.4l-7.9-60.7
						c0,0-3.7-45-9.5-54.6c0,0-11.9-35.4,27.3-35c0,0,39.2,10.8,40.7,22.7c0,0,9.5-3.3,13.6-8.8c1.1-1.5,3.4-1.3,4.2,0.4
						c8,16,32.3,67.5,28,90.1L675.4,1093.6L675.4,1093.6z"/>
				</g>
			</g>
			<g class="st15">
				<g>
					<g>
						<path class="st14" d="M526.5,825.4c0,0.8,24.6,27.9,21.5,59.5c0,0-4.7,81.7,28.4,135.3c0,0,13.3,17.2,19.7,21.1
							c0,0-10.8,16.8-9.4,29.7c0,0,8.1-35.3,37.7-25.6c0,0-9-20.7,2-28.2c0,0,29.2,6.1,34.9,14.8l-1.8-8.4c0,0-52.8-26.5-68.5-25
							c0,0,25.4,8.9,23.1,17.2c0,0-1.5,24.6-26.4,4c0,0-32.5-19.9-34.5-99.8c0,0,2.7-41.6,7.8-44.2c0,0,41.3,29,41.3,41.5
							c0,0-6.4-35.4-41.8-61.5C560.5,855.9,525.8,807.6,526.5,825.4z"/>
					</g>
				</g>
			</g>
			<g class="st15">
				<g>
					<g>
						<path class="st14" d="M657.5,1009.5c-0.5-2.1-29.1-25.4-30.4-34.9c0,0-3.3-25.6-11.3-27.9c0,0-38.4-9.7-34.6-23.1
							c0,0,32.8-23.6,40-4.4c0,0,15.9,2.6,14.7-11L657.5,1009.5z"/>
					</g>
				</g>
			</g>
			<g>
				<g>
					<path class="st3" d="M1496.4,857.8c-10.8,11.8-17.4,47.1-17.4,47.1c3.2,38.2-26.6,100.5-26.6,100.5c2.6,39-15.9,66.2-15.9,66.2
						c-3.1,64.7-55.9,48.9-55.9,48.9l30.5-94.7c0,0,1.8-9.1,4.1-23.7c5.2-32.8,13.3-93.8,10.6-143.2l0,0
						c-0.5-14.3,32.7-31.3,32.7-31.3C1506.6,815.7,1496.4,857.8,1496.4,857.8z"/>
				</g>
			</g>
			<g>
				<g>
					<g>
						<path class="st2" d="M554,717.2c0,0.2,0.1,0.4,0.1,0.6C554,717.6,554,717.4,554,717.2L554,717.2z M555.2,699.8l-5.9,15.6
							c-0.7,1.7-0.4,3.6,0.7,5.3l14.8,21.5l-5.8-25.5l-0.1-0.4l-0.1-0.3L555.2,699.8L555.2,699.8z"/>
					</g>
				</g>
				<g>
					<g>
						<path class="st2" d="M1481.6,275.1c-2.5-4-23.7-37.4-66.3-76.1c-26.1-23.7-54.7-44.4-85.2-61.5c-37.9-21.3-78.6-37-121.2-46.9
							c-4.7-2.6-33.3-18.1-76.7-33.7c-27.3-9.9-54.8-17.7-81.7-23.4c-33.7-7.1-66.4-10.7-97.4-10.7c-67.8,0-127.8,17-178.3,50.4
							c-3.9,1.6-28.1,11.5-55.9,30c-17.5,11.6-32.8,24.2-45.3,37.5c-15.9,16.7-27.5,34.3-34.5,52.6c-12.5,32.3-11,66.5,4.7,101.7
							c-12.9,0.7-35.1,3.3-61,12.6c-29.8,10.7-54.6,27-71.7,47.2c-25.9,30.5-35.1,69.6-27.5,116.1l0,0.3l0.1,0.3
							c0.5,1.7,49.2,174.3,65.5,246.2c0.1,0.2,0.1,0.4,0.2,0.6l0.3,1.2l0,0l3.4,15l2.4-6.3l3.2-8.6c0.3-0.4,0.7-0.8,1-1.3
							c0.8-1.2,1.4-2.7,1.9-4.8c2.4,6.6,5.2,15.1,8.5,26.2l1.1,3.6h3.7c0.8,0,3.5-0.2,5.6-3.1c0.1-0.1,0.2-0.2,0.2-0.3
							c2.3,10.4,4.5,24.5,6.2,43.2l0,0v0.1c0.1,0.4,1.1,10,3.4,22.6l1.1,6.4c0,0,0,0-0.1,0c-3.5-4.8-10.5-9.3-21.5-13.9
							c-10.2-4.3-20-7-20.4-7.1l-0.6-0.2l-0.7,0h-0.7c-13.3,0-22.9,3.9-28.4,11.6c-8.8,12.3-3.3,29.3-3,30l0.2,0.5l0.3,0.5
							c3.8,6.3,7.4,35.5,8.8,52.4l0,0.1l0,0.1l7.9,60.7l0.1,0.5l0.2,0.5l15.6,44.9c1.7,44.1,25.7,74.5,31.4,81.1
							c2.2,16.8,18.9,25,21.9,26.4c12.3,7.8,24.9,11.8,37.3,11.8c15.4,0,27.1-6.1,33.6-10.5l32.6,136.1c0.2,0.8,5,20.2,19,47
							c5,9.6,11.6,20.9,20.1,33h0c0.9,1.3,1.9,2.7,2.9,4c0,0,0,0.1,0,0.1c12.6,17.4,29.1,36.1,50.2,53.4c0.6,0.5,1.2,1,1.8,1.4
							c1.3,1.1,2.7,2.1,4,3.2c0.9,0.7,1.9,1.5,2.8,2.2c0.2,0.2,0.4,0.3,0.6,0.5c1.4,1.6,7.3,7.8,16.4,16.3c0,0,0,0,0.1,0.1
							c1.2,1.1,2.4,2.3,3.8,3.5c8.3,7.5,18.7,16.5,30.7,25.5c17.7,13.3,35,23.9,51.5,31.5c20.9,9.7,40.5,14.6,58.4,14.6
							c1.9,0,3.9-0.1,5.8-0.2c6.6,2,45.9,13.3,95.2,13.3c28.9,0,55.7-3.9,79.7-11.7c0.8-0.3,1.6-0.5,2.4-0.8
							c0.3-0.1,0.6-0.2,0.9-0.3c1.3-0.4,2.6-0.9,3.8-1.4c0.8-0.3,1.6-0.6,2.4-0.9l0.3-0.1c0.1,0,0.1,0,0.2-0.1
							c11.3-4.3,22.1-9.6,32-15.7l0.5-0.3l0.4-0.4l64-63l16.2-16l1.5-1.5l0.8-0.8v0l1.2-1.2l2.7-2.6v0l0,0l0.8-0.8l12.8-12.6l0,0
							l0,0c0.3-0.3,4.2-4.3,10.2-11.8c0.3-0.4,0.6-0.8,0.9-1.2c2.2-2.8,4.6-6,7.2-9.6c0,0,0,0,0,0c0,0,0,0,0-0.1c1-1.3,2-2.7,3-4.2
							c5.6-8.1,11.9-18,18.4-29.7c12-21.7,22.2-45.1,30.4-69.6c10.1-30.5,17.1-62.9,20.7-96.2l2.6-8.2c2.5,0.4,5.5,0.7,9,0.7
							c11.7,0,21.9-3.5,29.7-10.2c10.6-9.1,16.5-23.9,17.7-43.8c3.6-5.9,18-31.5,16-66.9c4.2-9.1,29.3-64.5,26.6-101.1
							c1.9-10,8.2-35.5,16.1-44l0.9-0.9l0.3-1.2c0.2-0.7,4.2-17.7-4.7-29c-4.9-6.3-12.6-9.5-22.8-9.5c-4.9,0-10.4,0.8-16.4,2.2
							l-0.6,0.1l-0.5,0.3c-0.3,0.1-4.7,2.4-10.3,6c6.7-39.5,29.1-168,53.8-263.3l0-0.1l0-0.1c0.1-0.3,7-34,11.6-69.2
							c4-30.6,4.7-50.1,3.7-62.6c0.6,0.8,1.2,1.7,1.8,2.6l8.7,12.9l0.5-15.6C1526.9,402.8,1524.6,325.7,1481.6,275.1z M1520.9,433.5
							c-6.3-9.4-15.8-17.7-16.9-18.5c18.3,15.9-9.3,149.6-9.3,149.6c-29.4,113.6-55.9,275.6-55.9,275.6c0,0,0.1-0.1,0.1-0.1
							c0.5-0.4,1-0.8,1.5-1.2c0,0,0,0,0.1,0c0.5-0.4,1-0.8,1.5-1.1l1.1-0.8c0.3-0.2,0.6-0.4,0.9-0.6l8-5.2c1.5-0.9,2.8-1.6,3.8-2.2
							c0.3-0.1,0.5-0.3,0.8-0.4c0.3-0.1,0.5-0.3,0.7-0.4c0.1-0.1,0.2-0.1,0.3-0.1c0.5-0.3,0.8-0.4,0.8-0.4c3-0.7,5.7-1.2,8.2-1.6
							c0.6-0.1,1.2-0.1,1.8-0.2c0.1,0,0.1,0,0.2,0c0.6-0.1,1.1-0.1,1.6-0.1c1.2-0.1,2.3-0.1,3.4-0.1c30.6,0,22.7,32.3,22.7,32.3
							c-10.8,11.8-17.4,47.1-17.4,47.1c3.2,38.2-26.7,100.5-26.7,100.5c2.6,38.9-15.9,66.2-15.9,66.2c-0.1,1.4-0.2,2.7-0.3,4
							c-0.1,1.3-0.2,2.5-0.4,3.8c-0.2,1.8-0.5,3.6-0.8,5.3c-0.3,1.7-0.7,3.3-1,4.8c-0.3,1-0.5,2-0.8,3c-0.3,1-0.6,1.9-0.9,2.8
							c-0.5,1.4-1,2.6-1.6,3.9s-1.1,2.4-1.8,3.5c-0.4,0.7-0.8,1.4-1.3,2.1c-1.7,2.8-3.6,5.1-5.7,7.1c-0.5,0.5-1,1-1.5,1.4
							c-3.5,3-7.2,5-11,6.4c-0.4,0.2-0.8,0.3-1.3,0.4c-0.1,0.1-0.3,0.1-0.4,0.1c-0.4,0.1-0.9,0.3-1.3,0.4c-1.2,0.3-2.5,0.6-3.7,0.8
							c-0.8,0.1-1.6,0.3-2.4,0.4c-2.2,0.3-4.3,0.4-6.3,0.4c-2.8,0-5.4-0.2-7.5-0.5c-0.3,0-0.5-0.1-0.7-0.1c-0.3,0-0.6-0.1-0.8-0.1
							c-0.3-0.1-0.6-0.1-0.8-0.1c-0.2,0-0.3-0.1-0.5-0.1c-0.9-0.2-1.6-0.3-2.1-0.5l-4.1,12.9c-10.1,94.3-44.7,158.8-67.8,192.5
							c-12.5,18.2-21.6,27.4-21.6,27.4l-9.8,9.6l-5.5,5.4l-1,1l-19.7,19.4l-64,63c-10.1,6.2-20.5,11.3-31.1,15.3h0c0,0-0.1,0-0.1,0
							c-3.2,1.2-6.4,2.4-9.7,3.4c-1,0.3-2,0.7-3.1,1c-2.1,0.6-4.2,1.3-6.3,1.8c-1,0.3-2,0.5-3,0.8c-1.5,0.4-2.9,0.7-4.4,1.1
							c-1.2,0.3-2.4,0.6-3.6,0.8c-3.1,0.7-6.3,1.3-9.4,1.9c-10.8,1.9-21.4,3.1-31.8,3.6c-1.6,0.1-3.2,0.2-4.8,0.2
							c-4,0.1-7.9,0.2-11.7,0.2c-36.9,0-68.5-6.5-84.1-10.4c-0.2,0-0.3-0.1-0.5-0.1c-0.5-0.1-0.9-0.2-1.4-0.3
							c-0.1,0-0.3-0.1-0.4-0.1c-0.3-0.1-0.6-0.2-0.9-0.2c-4.7-1.2-7.3-2.1-7.3-2.1c-0.1,0-0.1,0-0.1,0c-2.1,0.1-4.1,0.2-6.2,0.2
							c-9.1,0-18.4-1.3-27.6-3.7c-0.3-0.1-0.6-0.2-1-0.2c-42.7-11.2-84-43.9-107.9-65.7c-1.3-1.2-2.6-2.3-3.8-3.5c0,0,0,0-0.1-0.1
							c-0.5-0.5-1-0.9-1.4-1.3l0,0c-9.9-9.3-15.7-15.7-15.7-15.7c-2.6-2-5.2-4-7.7-6c-0.1-0.1-0.3-0.2-0.4-0.3c-2.5-2-4.9-4-7.2-6.1
							c-17.8-15.4-32.1-31.8-43.5-47.5c0,0,0-0.1-0.1-0.1c-1-1.3-1.9-2.7-2.8-4c-29.4-42-38.2-78.2-38.2-78.2L674.6,1086l-6.6-31.4
							l-3.5-16.5l-29.1-137.4c0.8-3.2,1.5-7.3,2.1-12.1v0c0.1-1.2,0.3-2.5,0.4-3.9c1.9-20.9,1.5-52.5,0.3-83.7
							c-0.1-3.1-0.2-6.2-0.4-9.4c-2-46.6-5.5-89.3-5.5-89.3c-0.4-4.4-0.2-9.4,0.5-14.9c0.3-2.7,0.8-5.6,1.4-8.5
							c-2.1,7.9-3.3,15.1-3,21.3c0,0.1,0,0.2,0,0.4c0,0.2,0,0.4,0,0.6c0,0.3,0,0.6,0.1,0.9c0,0,0,0.1,0,0.4c0,0.1,0,0.2,0,0.3
							c0,0.3,0.1,0.6,0.1,1c0,0.3,0,0.5,0.1,0.9c0.2,2,0.4,5.1,0.7,9.2c0.1,0.9,0.1,1.9,0.2,2.9c0,0.3,0,0.7,0.1,1
							c0,0.4,0.1,0.7,0.1,1.1c0.1,1.1,0.2,2.2,0.2,3.4c0.1,1.7,0.2,3.5,0.4,5.3c0.1,0.9,0.1,1.8,0.2,2.8c0.6,8.6,1.2,18.6,1.8,29.5
							c0.1,2,0.2,4,0.3,6.1c0.1,1.6,0.2,3.2,0.3,4.8c0.1,1.1,0.1,2.2,0.2,3.3c0.1,2.7,0.3,5.3,0.4,8c0,0.8,0.1,1.5,0.1,2.3
							c0.1,2.3,0.2,4.6,0.3,6.9c0.1,3.1,0.3,6.2,0.4,9.4c0.6,17.5,1.1,35.1,0.9,50.9c0,0.5,0,0.9,0,1.4c0,0.8,0,1.6,0,2.5
							c0,1.3,0,2.5-0.1,3.8c0,1.6-0.1,3.2-0.1,4.7c0,1.4-0.1,2.7-0.1,4c-0.1,1.8-0.1,3.5-0.2,5.2c0,0.8-0.1,1.6-0.1,2.4
							c0,0,0,0.1,0,0.2c0,0.8-0.1,1.6-0.1,2.4c0,0.6-0.1,1.1-0.1,1.7c0,0.6-0.1,1.1-0.1,1.7c-0.2,2.3-0.4,4.6-0.6,6.7
							c-0.5,4.8-1.2,8.9-2.1,12.1l1.7,7.8l21.5,101.3l6.7,31.6l11.2,52.5c0,0-0.3,0.3-1,0.9c-0.1,0.1-0.3,0.2-0.4,0.4
							c-0.2,0.1-0.3,0.3-0.5,0.4c-0.2,0.1-0.4,0.3-0.6,0.5s-0.4,0.3-0.7,0.5c-0.1,0.1-0.2,0.2-0.3,0.3s-0.2,0.2-0.4,0.3
							c-0.2,0.2-0.5,0.4-0.8,0.6c-0.3,0.2-0.6,0.4-0.9,0.6c-0.1,0.1-0.3,0.2-0.4,0.3c-0.3,0.2-0.6,0.4-1,0.6c-1.7,1-3.6,2.1-5.8,3.2
							c-0.4,0.2-0.9,0.4-1.3,0.6c-0.2,0.1-0.5,0.2-0.7,0.3c-0.5,0.2-1,0.4-1.5,0.6c-0.5,0.2-1,0.4-1.5,0.6c-0.5,0.2-1,0.4-1.6,0.5
							c-0.5,0.2-1.1,0.3-1.6,0.5c-0.5,0.2-1.1,0.3-1.7,0.5c-0.6,0.2-1.1,0.3-1.7,0.4c-0.6,0.1-1.2,0.2-1.8,0.4
							c-3,0.6-6.3,0.9-9.7,0.9c-5.7,0-11.9-0.9-18.6-3.2c-1.1-0.4-2.2-0.8-3.4-1.3c-1.5-0.6-3.1-1.3-4.6-2.1
							c-0.8-0.4-1.6-0.8-2.4-1.2c-0.8-0.4-1.6-0.9-2.4-1.3c-0.8-0.5-1.6-0.9-2.4-1.4c-0.4-0.2-0.8-0.5-1.2-0.8
							c0,0-18.5-7.7-19.5-24.1c0,0-29.7-31.8-31.3-80L538,946.4l-8-60.7c0,0-3.7-45-9.5-54.6c0,0-5.9-17.6,4.3-27.8
							c0.4-0.4,0.9-0.8,1.3-1.2c0,0,0,0,0,0c0.8-0.7,1.7-1.3,2.6-1.8c0,0,0,0,0,0c1-0.6,2-1.1,3.1-1.6c0.2-0.1,0.5-0.2,0.7-0.3
							c0.4-0.2,0.8-0.3,1.3-0.4c0.1,0,0.2-0.1,0.4-0.1c3.5-1.1,7.7-1.7,12.8-1.7c0.2,0,0.4,0,0.6,0c0,0,39.2,10.8,40.8,22.7
							c0,0,0,0,0,0c0.2-0.1,1.5-0.5,3.3-1.4c0.2-0.1,0.4-0.2,0.7-0.3c0.5-0.2,0.9-0.5,1.4-0.7c0.2-0.1,0.5-0.3,0.8-0.4
							c0.8-0.4,1.5-0.9,2.3-1.4c-0.2-0.7-0.3-1.4-0.4-2.1c-0.1-0.4-0.2-0.8-0.2-1.2c-0.2-0.8-0.3-1.5-0.5-2.3
							c-0.1-0.4-0.2-0.8-0.2-1.1c-0.1-0.8-0.3-1.5-0.4-2.2c-0.1-0.4-0.1-0.7-0.2-1.1c0,0,0,0,0,0.1c0,0-0.1,0.1-0.1,0.2c0,0,0,0,0,0
							c-0.6-3.5-1.2-6.8-1.6-9.8c-0.2-1.6-0.5-3.1-0.7-4.5c-0.1-0.5-0.1-1.1-0.2-1.6c-0.5-4-0.8-6.4-0.8-6.4
							c-5.9-67.1-19-75.7-19-75.7c0.6,1.9,1.1,3.7,1.6,5.3c0.2,0.7,0.4,1.3,0.5,1.9c0.3,1,0.5,2,0.7,2.9c0.1,0.5,0.2,1,0.4,1.5
							c0.3,1.2,0.5,2.2,0.7,3.3c0.1,0.4,0.2,0.8,0.2,1.2c0,0.1,0,0.2,0,0.2c0.5,3.1,0.7,5.5,0.8,7.4c0,4.2-0.9,6.1-1.7,6.8
							c-0.6,0.5-1.1,0.6-1.2,0.6c0,0,0,0,0,0c-1.4-4.6-2.6-8.7-3.8-12.5c-0.4-1.1-0.7-2.1-1-3.1c-0.8-2.5-1.6-4.9-2.4-7.1
							c-0.3-0.9-0.6-1.7-0.9-2.5c-7-19.5-10.3-23.4-10.3-23.4c0.9,6.8,1.2,11.8,1.1,15.6c0,0.3,0,0.6,0,0.9c0,0.7-0.1,1.4-0.1,2.1v0
							c0,0.2,0,0.4-0.1,0.6c0,0.5-0.1,1-0.2,1.5c0,0.2-0.1,0.5-0.1,0.7c0,0.2-0.1,0.4-0.1,0.6c0,0.2-0.1,0.4-0.1,0.6
							c0,0.2-0.1,0.4-0.1,0.5c-0.1,0.2-0.1,0.4-0.2,0.6c-0.1,0.3-0.2,0.5-0.3,0.8c-0.1,0.1-0.1,0.3-0.2,0.4
							c-0.1,0.3-0.3,0.6-0.4,0.8c0,0.1-0.1,0.2-0.2,0.3c-0.1,0.2-0.2,0.3-0.3,0.4c0,0.1-0.1,0.1-0.1,0.2c0,0.1-0.1,0.1-0.1,0.2
							c-0.2,0.3-0.4,0.4-0.5,0.6c0,0.1-0.1,0.1-0.1,0.2v0c-0.1-0.3-0.2-0.7-0.2-1.1c-0.3-1.1-0.5-2.3-0.8-3.5
							c-0.1-0.6-0.3-1.2-0.4-1.8c-0.2-0.8-0.4-1.6-0.5-2.4c0-0.1,0-0.1,0-0.2c-0.4-1.7-0.8-3.4-1.2-5.1c-0.5-2-1-4-1.5-6
							c-0.3-1.4-0.7-2.8-1-4.2c-0.2-0.9-0.5-1.9-0.7-2.8c-0.3-1.2-0.6-2.4-0.9-3.6c-2.4-9.7-5.1-20.2-7.9-31.1
							c-0.4-1.4-0.7-2.8-1.1-4.2c-0.5-1.9-1-3.8-1.5-5.7c-0.6-2.2-1.1-4.3-1.7-6.5c-1.4-5.4-2.9-10.9-4.3-16.4
							c-0.2-0.9-0.5-1.7-0.7-2.6c-0.5-1.7-0.9-3.4-1.4-5.2l-0.7-2.6c-0.7-2.6-1.4-5.2-2.1-7.8c-0.4-1.5-0.8-3-1.2-4.6
							c-0.5-1.9-1-3.8-1.5-5.7c-0.4-1.5-0.8-3.1-1.2-4.6c-0.3-1-0.6-2.1-0.8-3.1c-0.7-2.4-1.3-4.8-1.9-7.1c-0.2-0.8-0.5-1.7-0.7-2.5
							c-0.2-0.8-0.5-1.7-0.7-2.5c-0.3-1-0.5-2-0.8-3c-0.4-1.5-0.8-3-1.2-4.5c-0.3-1-0.5-2-0.8-2.9c-0.4-1.4-0.8-2.7-1.1-4.1
							c-0.5-1.9-1-3.8-1.5-5.6c-0.8-3.1-1.7-6.1-2.5-9.1c0-0.1-0.1-0.2-0.1-0.4c-0.6-2.2-1.2-4.4-1.8-6.5c-0.2-0.9-0.5-1.7-0.7-2.6
							c-0.4-1.4-0.8-2.8-1.1-4.1c-1.2-4.5-2.4-8.8-3.6-12.9c-0.4-1.3-0.7-2.5-1-3.7c-0.9-3.4-1.8-6.6-2.7-9.6
							c-0.3-1-0.6-2.1-0.9-3.1c-0.4-1.3-0.7-2.5-1.1-3.8c-0.3-0.9-0.5-1.8-0.8-2.7c-0.7-2.4-1.3-4.6-1.9-6.7c-0.3-1.3-0.7-2.5-1-3.7
							c-0.2-0.9-0.5-1.7-0.7-2.5c-0.2-0.6-0.4-1.2-0.5-1.8c-0.1-0.2-0.1-0.5-0.2-0.7c-0.2-0.6-0.3-1.2-0.5-1.7c-0.5-2-1-3.6-1.4-4.9
							c-0.1-0.4-0.2-0.8-0.3-1.2c-0.5-1.6-0.7-2.5-0.7-2.5c-22.3-135.3,108.8-170.2,163-170.2c-72.1-145.3,125.7-222,125.7-222
							c10.4-6.9,21.1-13,31.9-18.3c1.8-0.9,3.6-1.8,5.4-2.6c7.2-3.4,14.5-6.4,21.9-9.1c1.8-0.7,3.7-1.3,5.5-2
							c1.8-0.6,3.7-1.3,5.5-1.9c2.8-0.9,5.5-1.8,8.3-2.6c1.8-0.5,3.7-1.1,5.6-1.6c2.8-0.8,5.6-1.5,8.3-2.2c1.9-0.5,3.7-0.9,5.6-1.3
							c2.8-0.6,5.6-1.2,8.4-1.8c0.9-0.2,1.9-0.4,2.8-0.5c2.8-0.5,5.6-1,8.4-1.5c0.9-0.1,1.9-0.3,2.8-0.4c1.9-0.3,3.7-0.6,5.6-0.8
							c8.4-1.1,16.8-2,25.1-2.5c8.4-0.5,16.7-0.8,24.9-0.8c72.5,0,140.6,19.6,188.1,37.7c4.8,1.8,9.4,3.7,13.8,5.4
							c0.6,0.2,1.2,0.5,1.8,0.8c1.8,0.8,3.7,1.5,5.4,2.2c1.2,0.5,2.3,1,3.4,1.5c1.1,0.5,2.2,1,3.3,1.4c1.1,0.5,2.2,0.9,3.2,1.4
							c1.1,0.5,2.1,0.9,3.1,1.4c1,0.5,2,0.9,3,1.3c1,0.4,1.9,0.9,2.8,1.3c6,2.8,11.1,5.2,15.1,7.3c0.6,0.3,1.2,0.6,1.8,0.9
							c6,3,9.2,4.9,9.2,4.9c185.7,42.7,270.4,182.7,270.4,182.7C1517.9,325.3,1522.1,398.1,1520.9,433.5z M1104.7,302.7
							c0.9,0.2,1.8,0.4,2.7,0.7c-0.8-0.2-1.6-0.4-2.5-0.6C1104.9,302.8,1104.8,302.7,1104.7,302.7z M1097.6,301.1
							c-1.6-0.4-3.3-0.7-4.9-1.1c-0.8-0.2-1.7-0.3-2.5-0.5c-2.5-0.5-5-1-7.4-1.4c-1.7-0.3-3.3-0.6-5-0.9c-1.1-0.2-2.1-0.4-3.2-0.5
							c-0.4-0.1-0.9-0.2-1.4-0.2c-0.7-0.1-1.3-0.2-2-0.3c-0.3,0-0.7-0.1-1-0.1c-0.3,0-0.6-0.1-0.8-0.1c-0.3,0-0.6-0.1-0.9-0.1
							c-0.2,0-0.5-0.1-0.7-0.1c-0.3-0.1-0.7-0.1-1.1-0.1c-0.9-0.1-1.7-0.2-2.6-0.3c-0.9-0.1-1.7-0.2-2.6-0.3
							c-0.6-0.1-1.1-0.1-1.7-0.2c-1.7-0.2-3.4-0.3-5-0.5c-0.3,0-0.7-0.1-1-0.1c-0.3,0-0.6-0.1-1-0.1c-1.7-0.1-3.3-0.3-5-0.4
							c-0.8-0.1-1.6-0.1-2.4-0.2c0,0-0.1,0-0.1,0c-1.3-0.1-2.6-0.2-4-0.2c-1,0-2.1-0.1-3.1-0.1c-0.9,0-1.7-0.1-2.6-0.1
							c-0.5,0-0.9,0-1.4,0c-1,0-2.1,0-3.1-0.1c-0.7,0-1.4,0-2.2,0c-3.4,0-6.8,0-10.3,0.2c0,0,0,0-0.1,0c-1.6,0.1-3.2,0.1-4.8,0.2
							c-0.3,0-0.6,0-0.9,0.1c-1.3,0.1-2.6,0.2-3.9,0.3c-0.4,0-0.9,0.1-1.3,0.1c-1.2,0.1-2.4,0.2-3.6,0.3c-0.5,0-1,0.1-1.4,0.1
							c-1.2,0.1-2.4,0.3-3.6,0.4c-0.4,0.1-0.9,0.1-1.3,0.2c-1.3,0.2-2.5,0.3-3.8,0.5c-0.3,0-0.7,0.1-1,0.2c-0.5,0.1-1,0.1-1.5,0.2
							c-2.4,0.4-4.8,0.8-7.2,1.2c-1.2,0.2-2.4,0.5-3.6,0.7c-2.4,0.5-4.8,1-7.1,1.6c-0.4,0.1-0.8,0.2-1.2,0.3c0,0-0.1,0-0.1,0
							c-0.7,0.2-1.5,0.4-2.2,0.6c-1.5,0.4-3.1,0.8-4.6,1.3c-0.8,0.2-1.6,0.5-2.4,0.7h0c-2.3,0.7-4.7,1.5-7,2.3
							c-0.3,0.1-0.6,0.2-0.9,0.3c-0.9,0.3-1.7,0.6-2.6,0.9c-2.3,0.8-4.6,1.7-6.9,2.7c-2.3,0.9-4.6,1.9-6.8,3c-1.1,0.5-2.2,1-3.4,1.6
							c-2.2,1.1-4.5,2.2-6.7,3.4c-4.4,2.4-8.8,4.9-13.1,7.7c0,0-1.2,0-3.4,0.2c-0.3,0-0.7,0-1.1,0.1c-0.1,0-0.3,0-0.4,0
							c-0.2,0-0.5,0-0.8,0.1c-0.2,0-0.4,0-0.7,0.1c-0.3,0-0.6,0-0.8,0.1c-0.2,0-0.3,0-0.5,0c-0.3,0-0.7,0.1-1,0.1
							c-1.2,0.1-2.5,0.2-3.8,0.4c-0.3,0-0.7,0.1-1,0.1c-0.8,0.1-1.5,0.2-2.4,0.3c-0.8,0.1-1.7,0.2-2.6,0.4c-0.7,0.1-1.3,0.2-2,0.3
							c-0.4,0.1-0.7,0.1-1.1,0.2c-0.3,0-0.5,0.1-0.8,0.1c-1.4,0.2-2.8,0.4-4.2,0.7c0,0-0.1,0-0.1,0c-1.1,0.2-2.2,0.4-3.4,0.6
							c-0.4,0.1-0.8,0.1-1.1,0.2c-0.6,0.1-1.2,0.2-1.8,0.3c-1,0.2-2,0.4-3,0.6c-0.6,0.1-1.3,0.2-1.9,0.4c-1.3,0.3-2.7,0.5-4.1,0.9
							c-0.5,0.1-1.1,0.2-1.6,0.3c-0.1,0-0.3,0.1-0.5,0.1c-0.7,0.2-1.4,0.3-2.1,0.5c0,0,0,0-0.1,0c-1.3,0.3-2.7,0.6-4,1
							c-0.1,0-0.2,0-0.2,0.1c-1.5,0.4-3,0.7-4.5,1.1c-1.5,0.4-3,0.8-4.5,1.2c-2.3,0.6-4.6,1.3-7,2c-0.8,0.2-1.6,0.5-2.4,0.7
							c-1.6,0.5-3.2,1-4.8,1.5c-1.6,0.5-3.2,1.1-4.9,1.7c-1.6,0.6-3.3,1.2-4.9,1.8c-0.8,0.3-1.6,0.6-2.5,0.9
							c-2.4,0.9-4.8,1.9-7.2,2.9c-0.2,0.1-0.4,0.2-0.6,0.3c-0.7,0.3-1.5,0.6-2.2,0.9c-1.7,0.7-3.4,1.5-5.1,2.2
							c-0.8,0.4-1.7,0.8-2.5,1.2c-1.7,0.8-3.4,1.6-5.1,2.5c-0.8,0.4-1.7,0.8-2.5,1.3c-1.7,0.9-3.4,1.8-5.2,2.7
							c-0.7,0.4-1.4,0.8-2.1,1.1c-0.2,0.1-0.3,0.2-0.5,0.3c-0.7,0.4-1.4,0.8-2.1,1.2c-1.7,1-3.4,2-5.1,3c-0.6,0.4-1.2,0.8-1.8,1.1
							c-0.3,0.2-0.6,0.4-0.9,0.6c-0.5,0.3-1,0.6-1.5,1c-0.8,0.5-1.6,1-2.3,1.5c-0.9,0.6-1.9,1.2-2.8,1.9c-0.1,0.1-0.3,0.2-0.4,0.3
							c-1,0.7-1.9,1.4-2.9,2c-1,0.7-2,1.5-3,2.2c-1,0.7-1.9,1.4-2.8,2.1c-1,0.8-2.1,1.6-3.1,2.5c-10.2,8.2-19.8,17.6-28.4,28.5
							c0,0-0.1,0.1-0.1,0.1c-7.6,9.7-14.3,20.5-19.9,32.5c6.5-12.1,13.6-22.9,21-32.3c0,0,0.1-0.1,0.1-0.1
							c8.6-10.9,18.2-20.3,28.4-28.5c12.4-10,25.7-18.1,39-24.7h0c54.1-26.8,108.9-28.9,108.9-28.9c10-6.4,20.4-11.8,31-16
							c2-0.8,3.9-1.6,5.9-2.3c1.4-0.5,2.9-1,4.3-1.5c2-0.7,4.1-1.4,6.1-2c2-0.6,4-1.2,6.1-1.7c1.7-0.5,3.4-0.9,5.2-1.3
							c1.9-0.5,3.9-0.9,5.8-1.3c1.6-0.3,3.2-0.7,4.9-1c2-0.4,4-0.7,6-1c12.2-1.9,24.7-2.8,37.2-2.8h0c14.1,0,28.3,1.1,42.5,3.2
							c1.1,0.2,2.2,0.3,3.3,0.5c1.2,0.2,2.4,0.4,3.6,0.6c1.5,0.2,3,0.5,4.5,0.8c1.5,0.3,3,0.5,4.5,0.8c1.2,0.2,2.4,0.5,3.6,0.7
							c1.4,0.3,2.7,0.5,4.1,0.8c0.8,0.2,1.6,0.3,2.4,0.5c1.6,0.4,3.2,0.7,4.9,1.1c0.7,0.2,1.4,0.3,2.1,0.5c-0.7-0.2-1.5-0.4-2.2-0.5
							C1100.9,301.8,1099.2,301.4,1097.6,301.1z M1105,302.8c-0.1,0-0.2-0.1-0.3-0.1c0.9,0.2,1.8,0.4,2.7,0.7
							C1106.6,303.2,1105.8,303,1105,302.8z M1097.6,301.1c-1.6-0.4-3.3-0.7-4.9-1.1c-0.8-0.2-1.7-0.3-2.5-0.5c-2.5-0.5-5-1-7.4-1.4
							c-1.7-0.3-3.3-0.6-5-0.9c-1.1-0.2-2.1-0.4-3.2-0.5c-0.4-0.1-0.9-0.2-1.4-0.2c-0.7-0.1-1.3-0.2-2-0.3c-0.3,0-0.7-0.1-1-0.1
							c-0.3,0-0.6-0.1-0.8-0.1c-0.3,0-0.6-0.1-0.9-0.1c-0.2,0-0.5-0.1-0.7-0.1c-0.3-0.1-0.7-0.1-1.1-0.1c-0.9-0.1-1.7-0.2-2.6-0.3
							c-0.9-0.1-1.7-0.2-2.6-0.3c-0.6-0.1-1.1-0.1-1.7-0.2c-1.7-0.2-3.4-0.3-5-0.5c-0.3,0-0.7-0.1-1-0.1c-0.3,0-0.6-0.1-1-0.1
							c-1.7-0.1-3.3-0.3-5-0.4c-0.8-0.1-1.6-0.1-2.4-0.2c0,0-0.1,0-0.1,0c-1.3-0.1-2.6-0.2-4-0.2c-1,0-2.1-0.1-3.1-0.1
							c-0.9,0-1.7-0.1-2.6-0.1c-0.5,0-0.9,0-1.4,0c-1,0-2.1,0-3.1-0.1c-0.7,0-1.4,0-2.2,0c-3.4,0-6.8,0-10.3,0.2c0,0,0,0-0.1,0
							c-1.6,0.1-3.2,0.1-4.8,0.2c-0.3,0-0.6,0-0.9,0.1c-1.3,0.1-2.6,0.2-3.9,0.3c-0.4,0-0.9,0.1-1.3,0.1c-1.2,0.1-2.4,0.2-3.6,0.3
							c-0.5,0-1,0.1-1.4,0.1c-1.2,0.1-2.4,0.3-3.6,0.4c-0.4,0.1-0.9,0.1-1.3,0.2c-1.3,0.2-2.5,0.3-3.8,0.5c-0.3,0-0.7,0.1-1,0.2
							c-0.5,0.1-1,0.1-1.5,0.2c-2.4,0.4-4.8,0.8-7.2,1.2c-1.2,0.2-2.4,0.5-3.6,0.7c-2.4,0.5-4.8,1-7.1,1.6c-0.4,0.1-0.8,0.2-1.2,0.3
							c0,0-0.1,0-0.1,0c-0.7,0.2-1.5,0.4-2.2,0.6c-1.5,0.4-3.1,0.8-4.6,1.3c-0.8,0.2-1.6,0.5-2.4,0.7h0c-2.3,0.7-4.7,1.5-7,2.3
							c-0.3,0.1-0.6,0.2-0.9,0.3c-0.9,0.3-1.7,0.6-2.6,0.9c-2.3,0.8-4.6,1.7-6.9,2.7c-2.3,0.9-4.6,1.9-6.8,3c-1.1,0.5-2.2,1-3.4,1.6
							c-2.2,1.1-4.5,2.2-6.7,3.4c-4.4,2.4-8.8,4.9-13.1,7.7c0,0-1.2,0-3.4,0.2c-0.3,0-0.7,0-1.1,0.1c-0.1,0-0.3,0-0.4,0
							c-0.2,0-0.5,0-0.8,0.1c-0.2,0-0.4,0-0.7,0.1c-0.3,0-0.6,0-0.8,0.1c-0.2,0-0.3,0-0.5,0c-0.3,0-0.7,0.1-1,0.1
							c-1.2,0.1-2.5,0.2-3.8,0.4c-0.3,0-0.7,0.1-1,0.1c-0.8,0.1-1.5,0.2-2.4,0.3c-0.8,0.1-1.7,0.2-2.6,0.4c-0.7,0.1-1.3,0.2-2,0.3
							c-0.4,0.1-0.7,0.1-1.1,0.2c-0.3,0-0.5,0.1-0.8,0.1c-1.4,0.2-2.8,0.4-4.2,0.7c0,0-0.1,0-0.1,0c-1.1,0.2-2.2,0.4-3.4,0.6
							c-0.4,0.1-0.8,0.1-1.1,0.2c-0.6,0.1-1.2,0.2-1.8,0.3c-1,0.2-2,0.4-3,0.6c-0.6,0.1-1.3,0.2-1.9,0.4c-1.3,0.3-2.7,0.5-4.1,0.9
							c-0.5,0.1-1.1,0.2-1.6,0.3c-0.1,0-0.3,0.1-0.5,0.1c-0.7,0.2-1.4,0.3-2.1,0.5c0,0,0,0-0.1,0c-1.3,0.3-2.7,0.6-4,1
							c-0.1,0-0.2,0-0.2,0.1c-1.5,0.4-3,0.7-4.5,1.1c-1.5,0.4-3,0.8-4.5,1.2c-2.3,0.6-4.6,1.3-7,2c-0.8,0.2-1.6,0.5-2.4,0.7
							c-1.6,0.5-3.2,1-4.8,1.5c-1.6,0.5-3.2,1.1-4.9,1.7c-1.6,0.6-3.3,1.2-4.9,1.8c-0.8,0.3-1.6,0.6-2.5,0.9
							c-2.4,0.9-4.8,1.9-7.2,2.9c-0.2,0.1-0.4,0.2-0.6,0.3c-0.7,0.3-1.5,0.6-2.2,0.9c-1.7,0.7-3.4,1.5-5.1,2.2
							c-0.8,0.4-1.7,0.8-2.5,1.2c-1.7,0.8-3.4,1.6-5.1,2.5c-0.8,0.4-1.7,0.8-2.5,1.3c-1.7,0.9-3.4,1.8-5.2,2.7
							c-0.7,0.4-1.4,0.8-2.1,1.1c-0.2,0.1-0.3,0.2-0.5,0.3c-0.7,0.4-1.4,0.8-2.1,1.2c-1.7,1-3.4,2-5.1,3c-0.6,0.4-1.2,0.8-1.8,1.1
							c-0.3,0.2-0.6,0.4-0.9,0.6c-0.5,0.3-1,0.6-1.5,1c-0.8,0.5-1.6,1-2.3,1.5c-0.9,0.6-1.9,1.2-2.8,1.9c-0.1,0.1-0.3,0.2-0.4,0.3
							c-1,0.7-1.9,1.4-2.9,2c-1,0.7-2,1.5-3,2.2c-1,0.7-1.9,1.4-2.8,2.1c-1,0.8-2.1,1.6-3.1,2.5c-10.2,8.2-19.8,17.6-28.4,28.5
							c0,0-0.1,0.1-0.1,0.1c-7.6,9.7-14.3,20.5-19.9,32.5c6.5-12.1,13.6-22.9,21-32.3c0,0,0.1-0.1,0.1-0.1
							c8.6-10.9,18.2-20.3,28.4-28.5c12.4-10,25.7-18.1,39-24.7h0c54.1-26.8,108.9-28.9,108.9-28.9c10-6.4,20.4-11.8,31-16
							c2-0.8,3.9-1.6,5.9-2.3c1.4-0.5,2.9-1,4.3-1.5c2-0.7,4.1-1.4,6.1-2c2-0.6,4-1.2,6.1-1.7c1.7-0.5,3.4-0.9,5.2-1.3
							c1.9-0.5,3.9-0.9,5.8-1.3c1.6-0.3,3.2-0.7,4.9-1c2-0.4,4-0.7,6-1c12.2-1.9,24.7-2.8,37.2-2.8h0c14.1,0,28.3,1.1,42.5,3.2
							c1.1,0.2,2.2,0.3,3.3,0.5c1.2,0.2,2.4,0.4,3.6,0.6c1.5,0.2,3,0.5,4.5,0.8c1.5,0.3,3,0.5,4.5,0.8c1.2,0.2,2.4,0.5,3.6,0.7
							c1.4,0.3,2.7,0.5,4.1,0.8c0.8,0.2,1.6,0.3,2.4,0.5c1.6,0.4,3.2,0.7,4.9,1.1c0.7,0.2,1.4,0.3,2.1,0.5c-0.7-0.2-1.5-0.4-2.2-0.5
							C1100.9,301.8,1099.2,301.4,1097.6,301.1z M1105,302.8c-0.1,0-0.2-0.1-0.3-0.1c0.9,0.2,1.8,0.4,2.7,0.7
							C1106.6,303.2,1105.8,303,1105,302.8z M1097.6,301.1c-1.6-0.4-3.3-0.7-4.9-1.1c-0.8-0.2-1.7-0.3-2.5-0.5c-2.5-0.5-5-1-7.4-1.4
							c-1.7-0.3-3.3-0.6-5-0.9c-1.1-0.2-2.1-0.4-3.2-0.5c-0.4-0.1-0.9-0.2-1.4-0.2c-0.7-0.1-1.3-0.2-2-0.3c-0.3,0-0.7-0.1-1-0.1
							c-0.3,0-0.6-0.1-0.8-0.1c-0.3,0-0.6-0.1-0.9-0.1c-0.2,0-0.5-0.1-0.7-0.1c-0.3-0.1-0.7-0.1-1.1-0.1c-0.9-0.1-1.7-0.2-2.6-0.3
							c-0.9-0.1-1.7-0.2-2.6-0.3c-0.6-0.1-1.1-0.1-1.7-0.2c-1.7-0.2-3.4-0.3-5-0.5c-0.3,0-0.7-0.1-1-0.1c-0.3,0-0.6-0.1-1-0.1
							c-1.7-0.1-3.3-0.3-5-0.4c-0.8-0.1-1.6-0.1-2.4-0.2c0,0-0.1,0-0.1,0c-1.3-0.1-2.6-0.2-4-0.2c-1,0-2.1-0.1-3.1-0.1
							c-0.9,0-1.7-0.1-2.6-0.1c-0.5,0-0.9,0-1.4,0c-1,0-2.1,0-3.1-0.1c-0.7,0-1.4,0-2.2,0c-3.4,0-6.8,0-10.3,0.2c0,0,0,0-0.1,0
							c-1.6,0.1-3.2,0.1-4.8,0.2c-0.3,0-0.6,0-0.9,0.1c-1.3,0.1-2.6,0.2-3.9,0.3c-0.4,0-0.9,0.1-1.3,0.1c-1.2,0.1-2.4,0.2-3.6,0.3
							c-0.5,0-1,0.1-1.4,0.1c-1.2,0.1-2.4,0.3-3.6,0.4c-0.4,0.1-0.9,0.1-1.3,0.2c-1.3,0.2-2.5,0.3-3.8,0.5c-0.3,0-0.7,0.1-1,0.2
							c-0.5,0.1-1,0.1-1.5,0.2c-2.4,0.4-4.8,0.8-7.2,1.2c-1.2,0.2-2.4,0.5-3.6,0.7c-2.4,0.5-4.8,1-7.1,1.6c-0.4,0.1-0.8,0.2-1.2,0.3
							c0,0-0.1,0-0.1,0c-0.7,0.2-1.5,0.4-2.2,0.6c-1.5,0.4-3.1,0.8-4.6,1.3c-0.8,0.2-1.6,0.5-2.4,0.7h0c-2.3,0.7-4.7,1.5-7,2.3
							c-0.3,0.1-0.6,0.2-0.9,0.3c-0.9,0.3-1.7,0.6-2.6,0.9c-2.3,0.8-4.6,1.7-6.9,2.7c-2.3,0.9-4.6,1.9-6.8,3c-1.1,0.5-2.2,1-3.4,1.6
							c-2.2,1.1-4.5,2.2-6.7,3.4c-4.4,2.4-8.8,4.9-13.1,7.7c0,0-1.2,0-3.4,0.2c-0.3,0-0.7,0-1.1,0.1c-0.1,0-0.3,0-0.4,0
							c-0.2,0-0.5,0-0.8,0.1c-0.2,0-0.4,0-0.7,0.1c-0.3,0-0.6,0-0.8,0.1c-0.2,0-0.3,0-0.5,0c-0.3,0-0.7,0.1-1,0.1
							c-1.2,0.1-2.5,0.2-3.8,0.4c-0.3,0-0.7,0.1-1,0.1c-0.8,0.1-1.5,0.2-2.4,0.3c-0.8,0.1-1.7,0.2-2.6,0.4c-0.7,0.1-1.3,0.2-2,0.3
							c-0.4,0.1-0.7,0.1-1.1,0.2c-0.3,0-0.5,0.1-0.8,0.1c-1.4,0.2-2.8,0.4-4.2,0.7c0,0-0.1,0-0.1,0c-1.1,0.2-2.2,0.4-3.4,0.6
							c-0.4,0.1-0.8,0.1-1.1,0.2c-0.6,0.1-1.2,0.2-1.8,0.3c-1,0.2-2,0.4-3,0.6c-0.6,0.1-1.3,0.2-1.9,0.4c-1.3,0.3-2.7,0.5-4.1,0.9
							c-0.5,0.1-1.1,0.2-1.6,0.3c-0.1,0-0.3,0.1-0.5,0.1c-0.7,0.2-1.4,0.3-2.1,0.5c0,0,0,0-0.1,0c-1.3,0.3-2.7,0.6-4,1
							c-0.1,0-0.2,0-0.2,0.1c-1.5,0.4-3,0.7-4.5,1.1c-1.5,0.4-3,0.8-4.5,1.2c-2.3,0.6-4.6,1.3-7,2c-0.8,0.2-1.6,0.5-2.4,0.7
							c-1.6,0.5-3.2,1-4.8,1.5c-1.6,0.5-3.2,1.1-4.9,1.7c-1.6,0.6-3.3,1.2-4.9,1.8c-0.8,0.3-1.6,0.6-2.5,0.9
							c-2.4,0.9-4.8,1.9-7.2,2.9c-0.2,0.1-0.4,0.2-0.6,0.3c-0.7,0.3-1.5,0.6-2.2,0.9c-1.7,0.7-3.4,1.5-5.1,2.2
							c-0.8,0.4-1.7,0.8-2.5,1.2c-1.7,0.8-3.4,1.6-5.1,2.5c-0.8,0.4-1.7,0.8-2.5,1.3c-1.7,0.9-3.4,1.8-5.2,2.7
							c-0.7,0.4-1.4,0.8-2.1,1.1c-0.2,0.1-0.3,0.2-0.5,0.3c-0.7,0.4-1.4,0.8-2.1,1.2c-1.7,1-3.4,2-5.1,3c-0.6,0.4-1.2,0.8-1.8,1.1
							c-0.3,0.2-0.6,0.4-0.9,0.6c-0.5,0.3-1,0.6-1.5,1c-0.8,0.5-1.6,1-2.3,1.5c-0.9,0.6-1.9,1.2-2.8,1.9c-0.1,0.1-0.3,0.2-0.4,0.3
							c-1,0.7-1.9,1.4-2.9,2c-1,0.7-2,1.5-3,2.2c-1,0.7-1.9,1.4-2.8,2.1c-1,0.8-2.1,1.6-3.1,2.5c-10.2,8.2-19.8,17.6-28.4,28.5
							c0,0-0.1,0.1-0.1,0.1c-7.6,9.7-14.3,20.5-19.9,32.5c6.5-12.1,13.6-22.9,21-32.3c0,0,0.1-0.1,0.1-0.1
							c8.6-10.9,18.2-20.3,28.4-28.5c12.4-10,25.7-18.1,39-24.7h0c54.1-26.8,108.9-28.9,108.9-28.9c10-6.4,20.4-11.8,31-16
							c2-0.8,3.9-1.6,5.9-2.3c1.4-0.5,2.9-1,4.3-1.5c2-0.7,4.1-1.4,6.1-2c2-0.6,4-1.2,6.1-1.7c1.7-0.5,3.4-0.9,5.2-1.3
							c1.9-0.5,3.9-0.9,5.8-1.3c1.6-0.3,3.2-0.7,4.9-1c2-0.4,4-0.7,6-1c12.2-1.9,24.7-2.8,37.2-2.8h0c14.1,0,28.3,1.1,42.5,3.2
							c1.1,0.2,2.2,0.3,3.3,0.5c1.2,0.2,2.4,0.4,3.6,0.6c1.5,0.2,3,0.5,4.5,0.8c1.5,0.3,3,0.5,4.5,0.8c1.2,0.2,2.4,0.5,3.6,0.7
							c1.4,0.3,2.7,0.5,4.1,0.8c0.8,0.2,1.6,0.3,2.4,0.5c1.6,0.4,3.2,0.7,4.9,1.1c0.7,0.2,1.4,0.3,2.1,0.5c-0.7-0.2-1.5-0.4-2.2-0.5
							C1100.9,301.8,1099.2,301.4,1097.6,301.1z M631.5,704.8c0-0.3,0-0.6-0.1-0.9C631.4,704.2,631.5,704.5,631.5,704.8z"/>
					</g>
				</g>
			</g>
			<g class="st15">
				<g>
					<g>
						<path class="st14" d="M1481.3,859.3c0,0.8-23.9,26.2-21.6,56.3c0,0,3,77.9-29.6,128.4c0,0-3.5,9.8-9.6,13.4
							c0,0,9.5,9,7.9,21.3c0,0-7-20.6-28.2-19.4l2.6-8.3c3.7,0.3,9-1.5,16.5-7.5c0,0,31.4-18.3,34.7-94.5c0,0-1.8-39.7-6.6-42.3
							c0,0-12.1,8.1-23,17.5c0.4-4.8,0.7-9.7,1-14.6c5.7-7.4,13.2-15,22.9-21.9C1448.3,887.7,1482.3,842.3,1481.3,859.3z"/>
					</g>
				</g>
			</g>
			<g>
				<g>
					<path class="st12" d="M1410.4,1027.7l0.6-1.9c0,0,0-0.2,0.1-0.5c0.1-0.4,0.2-1,0.4-1.9c0.7-3.6,2-11.1,3.7-21.3
						c2.7-16.7,6.1-40.7,8.4-66.7C1423.4,940,1426.1,1012.4,1410.4,1027.7z"/>
				</g>
			</g>
			<g class="st16">
				<g>
					<g>
						<path class="st14" d="M1126,1083.8c-48,16.3-90.2,9.9-120.2-0.3c2.2-0.1,5.3-0.5,9.2-1.5c0,0,0,0,0,0h0
							c0.3-0.1,5.2-2.1,11.6-4.3c4.6-2.2,9.8-5.2,15.4-9.2l0.9-0.8c0.1-0.1,2.3-1.9,4.3-1c2.5,1.2,6.2,3.1,10.8,4.8c0,0,0,0,0,0
							c7.9,2.9,18.6,5.1,30.4,1.7c3.3-1,6.8-2.4,10.3-4.4c0,0,5.4,4.4,14.1,9c0.9,0.4,1.8,0.9,2.6,1.3c0,0,0,0,0.1,0
							C1118.6,1080.9,1122.1,1082.4,1126,1083.8z"/>
					</g>
				</g>
			</g>
			<g>
				<g>
					<path class="st17" d="M710.2,694.4c-0.2,0-0.4,0-0.6,0c-0.1,0-0.3,0-0.4,0h0c0,0,0,0,0,0c-0.3,0-0.6,0.1-0.8,0.2
						c-0.5,0.1-0.9,0.4-1.3,0.7c-0.1,0.1-0.2,0.2-0.3,0.3c-0.2,0.2-0.5,0.5-0.8,0.8c0,0,0,0,0,0c0,0,0,0,0,0c-0.1,0-0.1,0.1-0.2,0.2
						v0l1.7-3.3c0.2,0.1,0.5,0.2,0.7,0.3c0.5,0.2,1,0.5,1.5,0.7C709.8,694.2,710,694.3,710.2,694.4z"/>
				</g>
			</g>
			<g>
				<g>
					<path class="st17" d="M724.4,665.1c-0.5-1.4-7,8.6-6.8,7.6l-10.2,20.5c0.2,0.1,0.5,0.2,0.7,0.3c0.5,0.2,1,0.5,1.5,0.7
						c1-0.8,2-1.5,3-2.3c5.4-4.4,9.9-9.5,12.7-15.5c1.6-3.4,2.8-7.1,3.3-11.1c0.2-1.8,0.4-3.6,0.5-5.4
						C727.6,661.5,725.8,664.1,724.4,665.1z"/>
				</g>
			</g>
			<g>
				<g>
					<path class="st17" d="M963.8,644.9c-0.7-0.1-1.3-0.2-2-0.2c-0.2,1.7-0.4,3.3-0.5,5c0.8,1.3,1.6,2.7,2.5,4.2
						C965.1,651,964.6,648,963.8,644.9z M1405,731.2c0,0,0-37.2-20.6-69.4v0l3.5,26.8c1.8,4,2.6,8.3,2.3,13
						c-0.1,1.6-0.1,3.1,0.1,4.7c0,0.2,0,0.4,0,0.6c0.1,1.1,0.2,2.2,0.4,3.4c0,0,0,0,0,0c0.5,2.8,1.2,5.6,2.1,8.4
						c1.6,2,3.3,4,4.8,6.2l-3.1-9.8C1398.4,720,1401.8,725.3,1405,731.2z M1100.1,301.6c-0.8-0.2-1.6-0.4-2.5-0.5
						c-1.6-0.4-3.3-0.7-4.9-1.1c-0.8-0.2-1.7-0.3-2.5-0.5c-2.3-0.5-4.6-0.9-6.9-1.3c-0.2,0-0.4-0.1-0.6-0.1
						c-0.8-0.2-1.7-0.3-2.5-0.4c-0.8-0.1-1.7-0.3-2.5-0.4c-1.5-0.3-3-0.5-4.6-0.7c-0.7-0.1-1.3-0.2-2-0.3c-0.3,0-0.7-0.1-1-0.1
						c-0.6-0.1-1.1-0.2-1.7-0.2c-0.2,0-0.5-0.1-0.7-0.1v0c-0.3-0.1-0.7-0.1-1.1-0.1c-0.5-0.1-0.9-0.1-1.4-0.2
						c-0.4-0.1-0.8-0.1-1.2-0.2c-0.9-0.1-1.7-0.2-2.6-0.3c-0.6-0.1-1.1-0.1-1.7-0.2c-1.7-0.2-3.4-0.3-5-0.5c-0.3,0-0.7-0.1-1-0.1
						c-0.3,0-0.6-0.1-0.9-0.1c0,0,0,0,0,0c-1.7-0.1-3.3-0.3-5-0.4c-0.8-0.1-1.6-0.1-2.4-0.2c0,0-0.1,0-0.1,0c-1.3-0.1-2.6-0.2-4-0.2
						c-1,0-2.1-0.1-3.1-0.1c-0.1,0-0.2,0-0.4,0c-0.7,0-1.5-0.1-2.2-0.1c-0.5,0-0.9,0-1.4,0c-1,0-2.1,0-3.1-0.1c-0.7,0-1.4,0-2.2,0
						c-3.4,0-6.8,0-10.3,0.2c0,0,0,0-0.1,0c-1.6,0.1-3.2,0.1-4.8,0.2c-0.3,0-0.6,0-0.9,0.1c-1.3,0.1-2.6,0.2-3.9,0.3
						c-0.4,0-0.9,0.1-1.3,0.1c-1.2,0.1-2.4,0.2-3.6,0.3c-0.5,0-1,0.1-1.4,0.1c-1.2,0.1-2.4,0.3-3.6,0.4c-0.4,0.1-0.9,0.1-1.3,0.2
						c-1.3,0.2-2.5,0.3-3.8,0.5c-0.3,0-0.7,0.1-1,0.2c-0.5,0.1-1,0.1-1.5,0.2c-1,0.2-2.1,0.3-3.1,0.5c-0.4,0.1-0.8,0.1-1.2,0.2
						c-1,0.2-2,0.3-3,0.5c-1.2,0.2-2.4,0.5-3.6,0.7c-1.2,0.2-2.4,0.5-3.6,0.8c-1.2,0.3-2.4,0.5-3.6,0.8c-0.4,0.1-0.8,0.2-1.2,0.3
						c0,0-0.1,0-0.1,0c-0.7,0.2-1.5,0.4-2.2,0.6c-0.9,0.2-1.7,0.5-2.6,0.7c-1.5,0.4-3,0.8-4.5,1.3h0c-2.3,0.7-4.7,1.5-7,2.3
						c-0.3,0.1-0.6,0.2-0.9,0.3c-0.9,0.3-1.7,0.6-2.6,0.9c-1.1,0.4-2.3,0.9-3.4,1.3c-1.2,0.4-2.3,0.9-3.4,1.4
						c-2.3,0.9-4.6,1.9-6.8,3c-0.4,0.2-0.7,0.3-1.1,0.5c-0.8,0.3-1.5,0.7-2.3,1.1c-1.1,0.5-2.2,1.1-3.4,1.7
						c-1.1,0.6-2.2,1.1-3.3,1.7c-4.4,2.4-8.8,4.9-13.1,7.7c0,0-1.2,0-3.4,0.2c-0.3,0-0.7,0-1.1,0.1c-0.1,0-0.3,0-0.4,0
						c-0.3,0-0.5,0-0.8,0.1c-0.2,0-0.4,0-0.7,0.1c-0.3,0-0.6,0-0.8,0.1c-0.2,0-0.3,0-0.5,0c-0.3,0-0.7,0.1-1,0.1
						c-1.2,0.1-2.5,0.2-3.8,0.4c-0.3,0-0.7,0.1-1,0.1c-0.8,0.1-1.5,0.2-2.4,0.3c-0.8,0.1-1.7,0.2-2.6,0.4c-0.7,0.1-1.3,0.2-2,0.3
						c-0.4,0.1-0.7,0.1-1.1,0.2c-0.3,0-0.5,0.1-0.8,0.1c-1.4,0.2-2.8,0.4-4.2,0.7c0,0-0.1,0-0.1,0c-1.1,0.2-2.2,0.4-3.4,0.6
						c-0.4,0.1-0.8,0.1-1.1,0.2c-0.6,0.1-1.2,0.2-1.8,0.3c-1,0.2-2,0.4-3,0.6c-0.6,0.1-1.3,0.2-1.9,0.4c-1.3,0.3-2.7,0.5-4.1,0.9
						c-0.5,0.1-1.1,0.2-1.6,0.3c-0.1,0-0.3,0.1-0.5,0.1c-0.7,0.2-1.4,0.3-2.1,0.5c0,0,0,0-0.1,0c-1.3,0.3-2.7,0.6-4,1
						c-0.1,0-0.2,0-0.2,0.1c-1.5,0.4-3,0.7-4.5,1.1c-1.5,0.4-3,0.8-4.5,1.2c-2.3,0.6-4.6,1.3-7,2c-0.8,0.2-1.6,0.5-2.4,0.7
						c-1.6,0.5-3.2,1-4.8,1.5c-1.6,0.5-3.2,1.1-4.9,1.7c-1.6,0.6-3.3,1.2-4.9,1.8c-0.8,0.3-1.6,0.6-2.5,0.9
						c-2.4,0.9-4.8,1.9-7.2,2.9c-0.2,0.1-0.4,0.2-0.6,0.3c-0.7,0.3-1.5,0.6-2.2,0.9c-1.7,0.7-3.4,1.5-5.1,2.2
						c-0.8,0.4-1.7,0.8-2.5,1.2c-1.7,0.8-3.4,1.6-5.1,2.5h0c-0.8,0.4-1.7,0.8-2.5,1.3c-1.7,0.9-3.4,1.8-5.2,2.7
						c-0.7,0.4-1.4,0.8-2.1,1.1c-0.2,0.1-0.3,0.2-0.5,0.3c-0.7,0.4-1.4,0.8-2.1,1.2c-1.7,1-3.4,2-5.1,3c-0.6,0.4-1.2,0.8-1.8,1.1
						c-0.3,0.2-0.6,0.4-0.9,0.6c-0.5,0.3-1,0.6-1.5,1c-0.8,0.5-1.6,1-2.3,1.5c-0.9,0.6-1.9,1.2-2.8,1.9c-0.1,0.1-0.3,0.2-0.4,0.3
						c-1,0.7-1.9,1.4-2.9,2c-1,0.7-2,1.5-3,2.2c-1,0.7-1.9,1.4-2.8,2.1c-1,0.8-2.1,1.6-3.1,2.5c-10.2,8.2-19.8,17.6-28.4,28.5
						c0,0-0.1,0.1-0.1,0.1c-26,33.1-49.1,85.4-54.2,142.8c0,0-2.7,5-6.8,13.3c-11.5,23-34.5,71.5-43.5,109v0
						c-0.1,0.4-0.2,0.8-0.3,1.2c-0.2,0.7-0.3,1.4-0.5,2.1c-0.4,2-0.8,3.9-1.2,5.8c-0.1,0.7-0.2,1.4-0.4,2.1
						c-0.1,0.6-0.2,1.2-0.3,1.7c-0.1,0.4-0.1,0.7-0.2,1.1c-0.1,0.7-0.2,1.4-0.3,2c-0.6,4.7-0.8,9.1-0.6,13c0,0.1,0,0.2,0,0.4
						c0,0.2,0,0.4,0,0.6c0,0.3,0,0.6,0.1,0.9c0,0,0,0.1,0,0.4c0,0.1,0,0.2,0,0.3c0,0.3,0.1,0.6,0.1,1c0,0.3,0,0.6,0.1,0.9
						c0.2,2,0.4,5.1,0.7,9.2c0.1,0.9,0.1,1.9,0.2,2.9c0,0.3,0,0.7,0.1,1c0,0.4,0.1,0.7,0.1,1.1c0.1,1.1,0.2,2.2,0.2,3.4
						c0.1,1.7,0.2,3.5,0.4,5.3c0.1,0.9,0.1,1.8,0.2,2.8c0.6,8.6,1.2,18.6,1.8,29.5c0.1,2,0.2,4,0.3,6.1c0.1,1.6,0.2,3.2,0.3,4.8
						c0.1,1.1,0.1,2.2,0.2,3.3c0.1,2.7,0.3,5.3,0.4,8c0,0.8,0.1,1.5,0.1,2.3c0.1,2.3,0.2,4.6,0.3,6.9c0.1,3.1,0.3,6.2,0.4,9.4
						c0.6,17.5,1.1,35.1,0.9,50.9c0,0.5,0,0.9,0,1.4c0,0.8,0,1.6,0,2.5c0,1.3,0,2.5-0.1,3.8c0,1.6-0.1,3.2-0.1,4.7
						c0,1.4-0.1,2.7-0.1,4c-0.1,1.8-0.1,3.5-0.2,5.2c0,0.8-0.1,1.6-0.1,2.4c0,0,0,0.1,0,0.2c0,0.8-0.1,1.6-0.1,2.4
						c0,0.6-0.1,1.1-0.1,1.7c0,0.6-0.1,1.1-0.1,1.7c-0.2,2.3-0.4,4.6-0.6,6.7c0.5-1.2,0.9-2.4,1.4-3.6c1.9-20.9,1.5-52.5,0.3-83.7
						c-0.1-3.1-0.2-6.2-0.4-9.4c-2-46.6-5.5-89.3-5.5-89.3c-0.4-4.4-0.2-9.4,0.5-14.9c0.3-2.7,0.8-5.6,1.4-8.5
						c13.8-50.9,69.3-128.5,69.3-128.5c-4.5-45.9,2.2-82.5,15.8-111.7c0,0,0-0.1,0-0.1c6.5-12.1,13.6-22.9,21-32.3
						c0,0,0.1-0.1,0.1-0.1c8.6-10.9,18.2-20.3,28.4-28.5c12.4-10,25.7-18.1,39-24.7h0c54.1-26.8,108.9-28.9,108.9-28.9
						c10-6.4,20.4-11.8,31-16c2-0.8,3.9-1.6,5.9-2.3c1.4-0.5,2.9-1,4.3-1.5c2-0.7,4.1-1.4,6.1-2c2-0.6,4-1.2,6.1-1.7
						c1.7-0.5,3.4-0.9,5.2-1.3c1.9-0.5,3.9-0.9,5.8-1.3c1.6-0.3,3.2-0.7,4.9-1c2-0.4,4-0.7,6-1c12.2-1.9,24.7-2.8,37.2-2.8h0
						c14.1,0,28.3,1.1,42.5,3.2c1.1,0.2,2.2,0.3,3.3,0.5c1.2,0.2,2.4,0.4,3.6,0.6c1.5,0.2,3,0.5,4.5,0.8c1.5,0.3,3,0.5,4.5,0.8
						c1.2,0.2,2.4,0.5,3.6,0.7c1.4,0.3,2.7,0.5,4.1,0.8c0.8,0.2,1.6,0.3,2.4,0.5c1.6,0.4,3.2,0.7,4.9,1.1c0.7,0.2,1.4,0.3,2.1,0.5
						c0.9,0.2,1.8,0.4,2.7,0.7c-2.4-0.6-4.8-1.2-7.2-1.7C1100.2,301.6,1100.1,301.6,1100.1,301.6z M963.8,653.9
						c-0.4,0.8-0.9,1.6-1.6,2.4c-0.5,0-1.1-0.1-1.6-0.1c0.2-2.2,0.5-4.3,0.7-6.5c-1-1.7-2-3.3-2.9-4.9c1.2,4.1,1.2,8.3-2.2,12.6
						c-1.3,0.2-2.8,0.1-3.8,0.6c-10.6,5-22.3,5.3-33.9,4.2c-20.2-1.9-37.9-12.7-58-15.1c-33.8-4.1,21.5-23.5-12.6-21
						c-21.1,1.6-77.2,20.7-93.2,31.9c-8.4,5.9-16.2-5.4-24.3,0.7c-0.3,0.3-0.7,0.6-1.1,1c-0.1,1.8-0.3,3.6-0.5,5.4
						c-0.5,4-1.6,7.7-3.3,11.1c21.3-17.2,60.3-37.2,119-24.7c0,0,77.9,18.2,94.5,30.4c0,0,21.2-11.3,25.8-26.7
						c-0.1-0.2-0.2-0.3-0.3-0.5C964.1,654.5,963.9,654.2,963.8,653.9z M954.9,639.4c1.2,1.7,2.3,3.5,3.5,5.5c-0.8-2.7-2.2-5.3-3.5-8
						V639.4z M931.6,623.5c-19-5.7-38.8-8.8-58.9-9.5c-25.5-0.9-51.1-0.8-76.7-1.1c-2.5,0.3-4.9,0.7-7.4,0.9
						c-6.3,0.5-12.7,0.6-19,1.4c-8.1,0.9-16.1,2.4-23,6.3c1.8-0.3,3.6-0.5,5.4-0.9c17.7-4,35.8-5.9,54.1-6.5
						c35.6-1.3,70.8,1.6,105.5,7.5c8.8,1.5,17.3,4.7,25.5,7.8c7.3,2.7,13.6,6.8,16.3,13.3c0.1,0.2,0.7,0.3,1.5,0.5v-3.7
						C949.9,632.2,944,627.2,931.6,623.5z M730.6,629.9c-12.3,14.5-23.6,36-24.9,66.6l1.7-3.3l10.2-20.5c-0.2,1,6.3-9,6.8-7.6
						c1.4-1,3.1-3.6,4.7-5.2c0.2-3.3,0.3-6.7,0.3-10C729.5,643.2,729.9,636.5,730.6,629.9z M705.7,696.6c0,0,0.1-0.1,0.2-0.3
						c0,0,0,0,0,0c-0.1,0.1-0.1,0.1-0.2,0.2C705.7,696.6,705.7,696.6,705.7,696.6z"/>
				</g>
			</g>
			<g>
				<g>
					<path class="st18" d="M729.1,659.8c-0.1,1.8-0.3,3.6-0.5,5.4c-0.5,4-1.6,7.7-3.3,11.1c-2.9,6-7.3,11.1-12.7,15.5
						c-1,0.8-2,1.6-3,2.3c-0.1,0.1-0.3,0.2-0.4,0.3c0,0,0,0,0,0c-0.3,0-0.6,0.1-0.8,0.2c-0.5,0.1-0.9,0.4-1.3,0.7
						c-0.1,0.1-0.2,0.2-0.3,0.3c-0.2,0.2-0.5,0.5-0.8,0.8c0,0,0,0,0,0c-0.1,0.1-0.1,0.1-0.2,0.2v0l1.7-3.3l10.2-20.5
						c-0.2,1,6.3-9,6.8-7.6C725.8,664.1,727.6,661.5,729.1,659.8z"/>
				</g>
			</g>
			<g>
				<g>
					<path class="st2" d="M1429.9,627c-1.2-3.6-2.5-6.9-4-10.1c-0.4-3.1-2.3-15.4-6.1-33.1c-5-23.2-11.1-45.3-18.1-65.7
						c-13.4-39.2-29.5-70.2-47.9-92.2l-0.1-0.2l0,0c-2-2.4-4.1-4.8-6.3-7.1l-0.2-0.3l-0.3-0.2c-0.3-0.2-27.9-21.9-70.1-47.1
						c-39-23.3-98.7-54.5-162.2-71.1l-0.5-0.1c-0.8-0.2-1.5-0.4-2.3-0.6c-0.5-0.1-1.1-0.3-1.7-0.4c-0.4-0.1-0.9-0.2-1.3-0.3
						c-28-6.8-54.7-10.3-79.5-10.3v4.8l0-4.8c-43.1,0-81.5,10.4-114,31c-9,0.5-58.5,4.3-108.5,28.8l-1.1,0.5
						c-14.7,7.3-28.1,15.8-39.9,25.3c-11,8.9-20.8,18.7-29.2,29.3c-0.1,0.1-0.1,0.1-0.2,0.2c-7.6,9.7-14.8,20.8-21.4,32.9l-0.2,0.4
						l0,0c-18.1,33.6-30,73-33.5,111.1c-4.7,8.8-38.7,74-50.3,122.6c-0.6,2.6-1.2,5.2-1.7,7.6c-0.6,3.1-1.1,6.1-1.4,8.9
						c-0.7,6-0.9,11.3-0.5,15.9c0,0.4,3.5,43.2,5.5,89.1c0.1,3.1,0.3,6.2,0.4,9.3c1.3,34.5,1.3,61,0,78.9c-0.1,1.4-0.2,2.8-0.3,4.1
						c-0.1,1.2-0.2,2.5-0.4,3.8l0,0.3v0c-0.1,1.2-0.3,2.3-0.4,3.4c-0.4,3.1-0.9,5.7-1.4,7.7l-0.3,1.2l0.2,1.2l3.1,14.6l18.5,87.4
						l3.8,18l1.4,6.4l2.3,11.1l10.1,47.8l0,0.1l0,0.1l2.2,9.3v0l1.3,5.3l32.6,136.1c0.2,0.8,5,20.2,19,47c5,9.6,11.6,20.9,20.1,33h0
						c0.9,1.3,1.9,2.7,2.9,4c0,0,0,0.1,0,0.1c12.6,17.4,29.1,36.1,50.2,53.4c0.6,0.5,1.2,1,1.8,1.4c1.3,1.1,2.7,2.1,4,3.2
						c0.9,0.7,1.9,1.5,2.8,2.2c0.2,0.2,0.4,0.3,0.6,0.5c1.4,1.6,7.3,7.8,16.4,16.3c0,0,0,0,0.1,0.1c1.2,1.1,2.4,2.3,3.8,3.5
						c8.3,7.5,18.7,16.5,30.7,25.5c17.7,13.3,35,23.9,51.5,31.5c20.9,9.7,40.5,14.6,58.4,14.6c1.9,0,3.9-0.1,5.8-0.2
						c6.6,2,45.9,13.3,95.2,13.3c28.9,0,55.7-3.9,79.7-11.7c0.8-0.3,1.6-0.5,2.4-0.8c0.3-0.1,0.6-0.2,0.9-0.3
						c1.3-0.4,2.6-0.9,3.8-1.4c0.8-0.3,1.6-0.6,2.4-0.9l0.3-0.1c0.1,0,0.1,0,0.2-0.1c11.3-4.3,22.1-9.6,32-15.7l0.5-0.3l0.4-0.4
						l64-63l16.2-16l1.5-1.5l0.8-0.8v0l1.2-1.2l2.7-2.6v0l0,0l0.8-0.8l12.8-12.6l0,0l0,0c0.3-0.3,4.2-4.3,10.2-11.8
						c0.3-0.4,0.6-0.8,0.9-1.2c2.2-2.8,4.6-6,7.2-9.6c0,0,0,0,0,0c0,0,0,0,0-0.1c1-1.3,2-2.7,3-4.2c5.6-8.1,11.9-18,18.4-29.7
						c12-21.7,22.2-45.1,30.4-69.6c10.1-30.5,17.1-62.9,20.7-96.2l2.6-8.2l1.4-4.2l0.2-0.6l19.5-60.6l0.5-1.5l2.2-6.8l1-3.1
						l6.5-20.2l0.6-1.9l0.1-0.3l0.1-0.3l0.1-0.4c0.1-0.4,0.2-1.1,0.4-1.9c0.7-3.5,2-11,3.7-21.4c3.6-22.9,6.6-46.1,8.5-67l0-0.2v0
						c0.3-3.4,0.6-7,0.9-11l0-0.2v0c0.2-2,0.3-3.9,0.4-5.7c0.2-3.1,0.4-6,0.6-8.8c0.1-2.7,0.3-5.4,0.4-8c0.7-15.8,0.6-30.3-0.1-43.2
						l0-0.6l0-0.5c0-0.4,0-0.8-0.1-1.1c-0.1-1.9-0.2-3.8-0.4-5.6c-0.1-1.1-0.2-2.3-0.3-3.4c-0.1-1-0.2-2-0.3-3l2.5-37.3l0.3-3.8
						l0.9-12.9l5-73.9C1439.5,714.4,1442.3,663.8,1429.9,627z M1434.4,716.2l-5,73.9l-0.9,12.9l-0.3,3.8v0l-2.6,37.7
						c0.3,3.3,0.6,6.6,0.8,10c0.1,0.8,0.1,1.5,0.2,2.3c0,0.4,0.1,0.7,0.1,1.1c0,0.4,0,0.7,0.1,1.1c0.8,15.6,0.6,32.4-0.2,49
						c0,0.6-0.1,1.1-0.1,1.7c-0.2,4.5-0.6,9-0.9,13.4c0,0.4-0.1,0.8-0.1,1.2v0c-0.3,3.7-0.6,7.4-0.9,11c0,0,0,0.1,0,0.2
						c-0.3,3.3-0.6,6.6-0.9,9.8c-2.3,22.2-5.2,42.3-7.5,56.8c-1.6,10.2-3,17.7-3.7,21.3c-0.2,0.9-0.3,1.5-0.4,1.9c0,0.1,0,0.1,0,0.2
						c0,0.2-0.1,0.3-0.1,0.3l-0.6,1.9l-7.4,23.1l-0.1,0.2l-2.6,8l-0.1,0.3l-19.7,61.2v0l-4.1,12.9c-10.1,94.3-44.7,158.8-67.8,192.5
						c-12.5,18.2-21.6,27.4-21.6,27.4l-9.8,9.6l-5.5,5.4l-1,1l-19.7,19.4l-64,63c-10.1,6.2-20.5,11.3-31.1,15.3h0c0,0-0.1,0-0.1,0
						c-3.2,1.2-6.4,2.4-9.7,3.4c-1,0.3-2,0.7-3.1,1c-2.1,0.6-4.2,1.3-6.3,1.8c-1,0.3-2,0.5-3,0.8c-1.5,0.4-2.9,0.7-4.4,1.1
						c-1.2,0.3-2.4,0.6-3.6,0.8c-3.1,0.7-6.3,1.3-9.4,1.9c-10.8,1.9-21.4,3.1-31.8,3.6c-1.6,0.1-3.2,0.2-4.8,0.2
						c-4,0.1-7.9,0.2-11.7,0.2c-36.9,0-68.5-6.5-84.1-10.4c-0.2,0-0.3-0.1-0.5-0.1c-0.5-0.1-0.9-0.2-1.4-0.3c-0.1,0-0.3-0.1-0.4-0.1
						c-0.3-0.1-0.6-0.2-0.9-0.2c-4.7-1.2-7.3-2.1-7.3-2.1c-0.1,0-0.1,0-0.1,0c-2.1,0.1-4.1,0.2-6.2,0.2c-9.1,0-18.4-1.3-27.6-3.7
						c-0.3-0.1-0.6-0.2-1-0.2c-42.7-11.2-84-43.9-107.9-65.7c-1.3-1.2-2.6-2.3-3.8-3.5c0,0,0,0-0.1-0.1c-0.5-0.5-1-0.9-1.4-1.3l0,0
						c-9.9-9.3-15.7-15.7-15.7-15.7c-2.6-2-5.2-4-7.7-6c-0.1-0.1-0.3-0.2-0.4-0.3c-2.5-2-4.9-4-7.2-6.1
						c-17.8-15.4-32.1-31.8-43.5-47.5c0,0,0-0.1-0.1-0.1c-1-1.3-1.9-2.7-2.8-4c-29.4-42-38.2-78.2-38.2-78.2L674.6,1086l-6.6-31.4
						l-3.5-16.5l-29.1-137.4c0.8-3.2,1.5-7.3,2.1-12.1v0c0.1-1.2,0.3-2.5,0.4-3.9c1.9-20.9,1.5-52.5,0.3-83.7
						c-0.1-3.1-0.2-6.2-0.4-9.4c-2-46.6-5.5-89.3-5.5-89.3c-0.4-4.4-0.2-9.4,0.5-14.9c0.3-2.7,0.8-5.6,1.4-8.5
						c0.5-2.4,1-4.9,1.6-7.4c12.2-51,50.3-122.3,50.3-122.3c3.7-41.2,16.6-79.8,33.2-110.5c0,0,0-0.1,0-0.1
						c6.5-12.1,13.6-22.9,21-32.3c0,0,0.1-0.1,0.1-0.1c8.6-10.9,18.2-20.3,28.4-28.5c12.4-10,25.7-18.1,39-24.7h0
						c54.1-26.8,108.9-28.9,108.9-28.9c10-6.4,20.4-11.8,31-16c2-0.8,3.9-1.6,5.9-2.3c1.4-0.5,2.9-1,4.3-1.5c2-0.7,4.1-1.4,6.1-2
						c2-0.6,4-1.2,6.1-1.7c1.7-0.5,3.4-0.9,5.2-1.3c1.9-0.5,3.9-0.9,5.8-1.3c1.6-0.3,3.2-0.7,4.9-1c2-0.4,4-0.7,6-1
						c12.2-1.9,24.7-2.8,37.2-2.8h0c14.1,0,28.3,1.1,42.5,3.2c1.1,0.2,2.2,0.3,3.3,0.5c1.2,0.2,2.4,0.4,3.6,0.6
						c1.5,0.2,3,0.5,4.5,0.8c1.5,0.3,3,0.5,4.5,0.8c1.2,0.2,2.4,0.5,3.6,0.7c1.4,0.3,2.7,0.5,4.1,0.8c0.8,0.2,1.6,0.3,2.4,0.5
						c1.6,0.4,3.2,0.7,4.9,1.1c0.7,0.2,1.4,0.3,2.1,0.5c0.9,0.2,1.8,0.4,2.7,0.7c1,0.2,2,0.5,3,0.7c0.9,0.2,1.8,0.5,2.8,0.7
						c121.8,31.7,230.5,117.2,230.5,117.2c2.1,2.2,4.2,4.6,6.2,7l0,0c20.8,24.8,36.1,58.5,47,90.7c8.2,24.1,14.1,47.3,17.9,65.1
						c4.3,20.2,6.2,33.5,6.2,33.5c1.5,3.2,2.9,6.6,4.1,10.2C1437.3,664.9,1434.4,716.2,1434.4,716.2z"/>
					<path class="st17" d="M1434.4,716.2l-5,73.9l-0.9,12.9l-0.3,3.8c0-2.2-0.3-4.5-0.6-6.9c-0.4-2.9-0.7-5.9-0.6-8.7
						c0.2-5.4-1.4-10.3-5.4-14.7c-1.5-2.6-3-5.3-4.6-7.9c-8.2-13.5-15.5-27.2-21.1-41.5c-1.1-2.9-2.2-5.7-3.1-8.6
						c1.6,2,3.3,4,4.8,6.2l-3.1-9.8c3.7,4.9,7.2,10.2,10.4,16.1c0,0,0-37.2-20.6-69.4c-1.3-11.7-4.3-23-9.7-33.9
						c-0.6-1.2-1.2-2.4-1.9-3.5c-1.2-3-1.9-5.4-2.1-7.3v-0.1l-0.1-1.3l-4.6-94.6l0.4,0.3c-0.7-11.1-1.2-14.2,1.5-28.2
						c1.1-5.6,2.2-11.2,2.5-16.8c0.7-12.3-5.5-22.7-15.4-31.8c-20.8-19.1-46.8-31.9-77.1-39c-12.3-2.9-23-7.9-32.6-14.6
						c-8.2-5.8-16.3-11.7-24.4-17.5c-10.2-7-20.6-13.7-34-16.6c-8.2-3.2-17-4.3-26.1-4.2c-7.1-1.3-14.3-2.5-21.3-4
						c-23.6-5.1-47.1-10.3-70.7-15.5c-14.1-3.1-28.2-6.3-42.3-9.3c-19.9-4.1-40.1-5.3-60.5-2.9c-12.2,1.1-24.4,1.9-36.5,3.5
						c-15.9,2.1-17.5,1.5-32.6,6.1c-2.2,1.3-18.7,5.3-20.9,6.5c-6.9,3.9-14.3,7.3-20.8,11.6c-9,5.9-17.8,12-25.9,18.6
						c-9.6,7.9-10.6,12.2-10.1,28.1c0,0,3.5,22.3-22.3,41.7c-52,22.6-57.4,153.5-58.2,155.6c0,0,0,0,0,0c-2,4-3.4,8.3-4.4,12.9
						c-1.7,8.1-3,16.2-3.8,24.4c-12.3,14.5-23.6,36-24.9,66.6v0c0,0,0,0.1,0,0.1c0,0,0.1-0.1,0.2-0.3c0,0,0,0,0,0c0,0,0,0,0,0
						c0.3-0.3,0.6-0.5,0.8-0.8c0.1-0.1,0.2-0.2,0.3-0.3c0.4-0.3,0.8-0.5,1.3-0.7c0.2-0.1,0.5-0.1,0.8-0.2c0,0,0,0,0,0h0
						c0.1,0,0.2,0,0.4,0c0.2,0,0.4,0,0.6,0c-0.2-0.1-0.4-0.2-0.6-0.3c1-0.8,2-1.5,3-2.3c5.4-4.4,9.9-9.5,12.7-15.5
						c21.3-17.2,60.3-37.2,119-24.7c0,0,77.9,18.2,94.5,30.4c0,0,21.2-11.3,25.8-26.7c3.7,6.4,4.1,11.8-1.5,17.3
						c-2.8,2.8-6.4,5.2-10.1,7.3c-4.3,2.4-10.5,10.2-15.7,8.8c-5.9-1.5-9.2-5-15.1-6.5c-33.5-11-56-21.4-92-20.1
						c-4.1,0-8.2-0.2-12.3,0.1c-23.8,1.5-32.8,1.3-55.8,5.9c5.4-1-2.8,0.9-9.4,3.8c-8.1,3.5-16,7.4-21.3,13.5l0,0
						c0,0-0.1,0.1-0.1,0.2c-0.2,0.2-0.6,0.6-1.1,1.2c0-0.5-13,2.9-15.1,10c-8.3,9-37,6.7-39.6,41.7c0,0-17.1,92.8-37.6,146.5
						c1.9-20.9,1.5-52.5,0.3-83.7c-0.1-3.1-0.2-6.2-0.4-9.4c-2-46.6-5.5-89.3-5.5-89.3c-0.4-4.4-0.2-9.4,0.5-14.9
						c0.3-2.7,0.8-5.6,1.4-8.5c13.8-50.9,69.3-128.5,69.3-128.5c-4.5-45.9,2.2-82.5,15.8-111.7c0,0,0-0.1,0-0.1
						c6.5-12.1,13.6-22.9,21-32.3c0,0,0.1-0.1,0.1-0.1c8.6-10.9,18.2-20.3,28.4-28.5c12.4-10,25.7-18.1,39-24.7h0
						c54.1-26.8,108.9-28.9,108.9-28.9c10-6.4,20.4-11.8,31-16c2-0.8,3.9-1.6,5.9-2.3c1.4-0.5,2.9-1,4.3-1.5c2-0.7,4.1-1.4,6.1-2
						c2-0.6,4-1.2,6.1-1.7c1.7-0.5,3.4-0.9,5.2-1.3c1.9-0.5,3.9-0.9,5.8-1.3c1.6-0.3,3.2-0.7,4.9-1c2-0.4,4-0.7,6-1
						c12.2-1.9,24.7-2.8,37.2-2.8h0c14.1,0,28.3,1.1,42.5,3.2c1.1,0.2,2.2,0.3,3.3,0.5c1.2,0.2,2.4,0.4,3.6,0.6
						c1.5,0.2,3,0.5,4.5,0.8c1.5,0.3,3,0.5,4.5,0.8c1.2,0.2,2.4,0.5,3.6,0.7c1.4,0.3,2.7,0.5,4.1,0.8c0.8,0.2,1.6,0.3,2.4,0.5
						c1.6,0.4,3.2,0.7,4.9,1.1c0.7,0.2,1.4,0.3,2.1,0.5c0.9,0.2,1.8,0.4,2.7,0.7c1,0.2,2,0.5,3,0.7c0.9,0.2,1.8,0.5,2.8,0.7
						c121.4,31.9,229.4,117,229.4,117c2.2,2.4,4.7,4.8,7.3,7.3l0,0c20.8,24.8,36.1,58.5,47,90.7c8.2,24.1,14.1,47.3,17.9,65.1
						c4.3,20.2,6.2,33.5,6.2,33.5c1.5,3.2,2.9,6.6,4.1,10.2C1437.3,664.9,1434.4,716.2,1434.4,716.2z"/>
				</g>
			</g>
			<g>
				<g>
					<path class="st17" d="M801.9,1453.3C801.9,1453.3,801.9,1453.3,801.9,1453.3C801.6,1453.3,801.8,1453.3,801.9,1453.3z"/>
				</g>
			</g>
			<g>
				<g>
					<path class="st17" d="M1282.2,1476.4c0,0-64.1,109.2-171.7,140.4l-125.6,27.7l7.2,48.2c0,0-27.2-3.9-64.5-10.9
						c-76.2-27.6-107.2-112.3-107.2-112.3c-1.9-13.4-20-62.3-18.4-116.1c0.4-0.1,0.2-0.1,0-0.1c0.2-2.1,5.5-55.7,1.1-78.4
						c0,0,0,0,0,0l2.2,3.1c0.8,0.6,2.8,2.7,3.6,3.3c0,0,85.3,96.7,162.2,91.3c0,0,127.6,40.2,218.3-15.9l84.6-84.6L1282.2,1476.4z"
						/>
				</g>
			</g>
			<g class="st19">
				<g>
					<g>
						<path class="st14" d="M1274,1372.1c-116.1,247-294.3,172.7-294.3,172.7C876,1529.6,804.2,1377.3,803,1374.9c0,0,0,0,0,0
							l2.2,3.1c0.8,0.6,2.8,2.7,3.6,3.3c0,0,85.3,96.7,162.2,91.3c0,0,127.6,40.2,218.3-15.9L1274,1372.1z"/>
					</g>
				</g>
			</g>
			<g>
				<g>
					<path class="st6" d="M279.5,2045.4l-9.7,0.1H269l-7.8,0.1l-14.1,0.1l-204.9-0.3V1787c0.7-8.2,49-47.7,49-47.7
						c0.1,0,0.3,0,0.4,0c5.1,0.2,13,12.8,16,12.3c35.4,6.7,35.4,65.1,35.4,65.1c4.6,17.1,28.3,52.2,47.9,79.5
						c15.1,21,27.9,37.4,27.9,37.4c0.1,0.1,0.2,0.2,0.3,0.3c0.1,0.2,0.3,0.3,0.4,0.5c0.1,0.1,0.3,0.3,0.4,0.4
						c0.2,0.2,0.4,0.5,0.6,0.7c0.2,0.3,0.4,0.5,0.6,0.8c0.4,0.6,0.9,1.1,1.3,1.8c0.2,0.3,0.4,0.6,0.7,0.9c0.7,1,1.5,2.1,2.2,3.3
						c0.2,0.3,0.4,0.6,0.6,0.9c0.6,1,1.2,2,1.9,3c0,0,0,0,0,0c6.4,10.4,14.4,25.2,22.2,40.2v0c0.5,0.9,0.9,1.8,1.4,2.7
						c0.5,0.9,0.9,1.8,1.4,2.7c0.9,1.8,1.9,3.6,2.8,5.4c0.5,0.9,0.9,1.8,1.4,2.7c1.6,3.1,3.1,6.2,4.6,9.2c0.4,0.7,0.7,1.4,1.1,2.2
						c2.5,5,4.8,9.6,6.8,13.9c0.2,0.4,0.3,0.7,0.5,1c0.4,0.9,0.9,1.7,1.3,2.5c0.2,0.3,0.3,0.7,0.5,1c0.8,1.7,1.6,3.3,2.3,4.7
						c0.2,0.5,0.5,1,0.7,1.4c0.3,0.6,0.6,1.2,0.9,1.8c0.2,0.5,0.5,0.9,0.7,1.4c0.3,0.6,0.6,1.2,0.8,1.7c0.1,0.2,0.2,0.4,0.3,0.6
						c0.3,0.6,0.5,1.1,0.8,1.6c0.1,0.3,0.2,0.5,0.3,0.7c0.1,0.3,0.2,0.5,0.3,0.7c0.2,0.4,0.3,0.7,0.4,0.8
						C279.4,2045.2,279.4,2045.3,279.5,2045.4C279.5,2045.3,279.5,2045.4,279.5,2045.4z"/>
				</g>
			</g>
			<g>
				<g>
					<path class="st20" d="M261.3,2045.5l18.2-0.2c0,0-14.2-29.8-29.2-58.8v0c15.1-0.6,42.1,20.4,42.1,20.4
						c17.1,5,64.3,37.9,67,38.5L261.3,2045.5L261.3,2045.5z"/>
				</g>
			</g>
			<g>
				<g>
					<path class="st20" d="M545.2,2045.4c-16.6-25.1-28.7-32.8-50.5-39.2c-32-9.4-64.4-5.1-64.4-5.1s-91.9,2.8-108.3-14.5
						c-16.4-17.3-43.4-23.8-43.4-23.8c-12.9-5.2-49.8-16.2-50.6-16.4c0,0,0,0,0,0c-3.6-5.9-6.7-10.4-9-12.7c0,0-12.8-16.4-27.9-37.4
						c13-7.9,84.7,2.1,84.7,2.1c61.1,21.5,124.2,3.8,124.2,3.8c73.8-8.8,103,36.2,103,36.2L545.2,2045.4z"/>
				</g>
			</g>
			<g>
				<g>
					<path class="st20" d="M462.9,1836.5l-36.9-92.6c0,0-10.4-24.6-51.9-10.4c0,0-28.8,4.2-41.9,26.5c0,0-10.8,18.8-57.7,17.3
						c0,0-48,3.8-78,30c0,0-20.4,12.3-28.4,10.4c0,0,16.9,9.6,36.1-5c0,0,52.7-13.1,108,3.5c0,0,33.4,5.8,47.1-5
						C359.3,1811.1,431.4,1792.7,462.9,1836.5z"/>
				</g>
			</g>
			<g class="st21">
				<g>
					<path d="M426,1743.8l119.2,301.5h21.1C566.3,2045.4,439.1,1787.3,426,1743.8z"/>
				</g>
			</g>
			<g>
				<g>
					<path class="st9" d="M624.8,1567.8c-7.3,20-71.9-2.7-71.9-2.7c-123.8-56.1-179.9-5-179.9-5c51.8-3,81.6,7.4,96.4,15.2
						c-14.9-4.1-37.9-1.8-37.9-1.8c6.9,1.2,12.3,10,14.3,13.6c0,0,0,0,0,0c0.2,0.5,0.3,0.9,0.5,1.4c-86-45.2-157.5,39.6-157.5,39.6
						c-5.7,3.6-11.3,8.6-16.8,14.6c-1.8,2-3.7,4.2-5.5,6.4c0,0,0,0,0,0c-22.4,27.8-41.6,70.1-51,92.8c-4,9.6-6.2,15.7-6.2,15.7
						c-2.5,21.7-39.9,58.8-41.1,59.9c27.6-34.9,35.7-61.9,35.7-61.9c2.7-10.9,6.6-22.8,11.2-34.8c16.3-42.8,40.4-86.3,40.8-87.2
						c0,0,0,0,0,0c40.2-67.1,145-106.1,146.7-106.7c0,0,0,0,0,0c70.7-17.7,158,25.4,158,25.4
						C571.7,1571.3,624.8,1567.8,624.8,1567.8z"/>
				</g>
			</g>
			<g class="st22">
				<g>
					<path class="st4" d="M446.5,1588.7c-0.1-0.1-0.2-0.1-0.3-0.2c-0.1-0.4-0.3-0.9-0.5-1.4C446.3,1588.1,446.5,1588.7,446.5,1588.7
						z"/>
				</g>
			</g>
			<g>
				<g>
					<path class="st9" d="M580.6,1598.9c0,0,36.9,163.9,153,196.9C733.5,1795.8,614.4,1694.3,580.6,1598.9z"/>
				</g>
			</g>
			<g>
				<g>
					<path class="st6" d="M888.1,2045.4l-4.9,0.1l-80.8,0c0,0,0.4,1.3,0,0c-5.3-16.9-44.4-139.4-70.2-157.3c0,0-11-2-2.8-14.5
						c0,0,43.6-59.2,47.9-61.8l8.6,9.7l2,2.2c0,0,0,0.1,0.1,0.3C791,1833,858.7,2034.6,888.1,2045.4z"/>
				</g>
			</g>
			<g>
				<g>
					<path class="st9" d="M2097.9,1922.3v26.6c0,0-56.4,81-68.2,96.4h-26.1L2097.9,1922.3z"/>
				</g>
			</g>
			<g class="st23">
				<g>
					<path class="st9" d="M1792.1,1550.5c0,0-31.5,217.1-167.6,494.8L1792.1,1550.5z"/>
				</g>
			</g>
			<g class="st23">
				<g>
					<path class="st9" d="M1480,2017.9c0,0,16.1-255.2,100.7-352.1C1580.7,1665.8,1506.2,1863.4,1480,2017.9z"/>
				</g>
			</g>
			<g class="st23">
				<g>
					<path class="st9" d="M1631.5,1682c0,0,46.6-81.5,79.9-93.3c0,0,42.3-13.1,84.1-108.5c0,0-49.2,25.5-82,75.2
						c0,0-8.7,16.9-38.4,30.2c0,0-30.8,1.5-43.6,98.9V1682z"/>
				</g>
			</g>
			<g class="st24">
				<g>
					<path class="st10" d="M2011.2,1646.6c0,0,26.1,19.5,0,74.3c0,0-31.3,39.5-34.3,63.6C1976.9,1784.5,1998.9,1658.9,2011.2,1646.6
						z"/>
				</g>
			</g>
			<g>
				<g>
					<path class="st9" d="M2042.5,1885.9c0,0-34.9,141.5-57.9,159.4H1939C1939,2045.4,2028.7,1929,2042.5,1885.9z"/>
				</g>
			</g>
			<g>
				<g>
					<path class="st9" d="M1843.6,1660.4l-13.5,384.9h38.4C1868.6,2045.4,1844.4,1871.1,1843.6,1660.4z"/>
				</g>
			</g>
			<g>
				<g>
					<path class="st9" d="M1959.6,1763.5l-39.6,281.8h-48.7C1871.3,2045.4,1915,1971.6,1959.6,1763.5z"/>
				</g>
			</g>
			<g>
				<g>
					<path class="st9" d="M1287.1,1855.8l-3.8,189.5h-48.7C1234.6,2045.4,1242.5,2063.9,1287.1,1855.8z"/>
				</g>
			</g>
			<g>
				<g>
					<path class="st9" d="M1377.8,1532.4c0,0,50,228.5-143.2,306.4C1234.6,1838.8,1377.8,1780.4,1377.8,1532.4z"/>
				</g>
			</g>
			<g>
				<g>
					<path class="st6" d="M1155.9,1782.4c0,0-2.6,97.9-72.9,108.7c0,0-3.3,9.2-42.6,7.1l-14.4,4.8l-10.2,5.8l-29.2,24.2
						c0,0-2.3,0.9-6.7,2c-21.5,5.3-91.7,13.4-163.4-77.8c-0.1-0.1-0.2-0.2-0.3-0.3c-9.5-10.4-19-21.4-28.3-32.7
						c0.1,0.3,0.3,0.9,0.5,1.6c-31.5-37.3-85-106.7-137.3-203c0,0-17.3-17.8,6.7-146.9c0,0,1.2,106.5,66,136.8
						c25.2,30.9,132.6,55.7,203.5,69c37.3,7,64.5,10.9,64.5,10.9S1170.8,1719.9,1155.9,1782.4z"/>
				</g>
			</g>
			<g>
				<g>
					<path class="st6" d="M816.4,1856.8c-1.7-1.7-11.9-12.3-27.8-31.1c-0.3-0.8-0.4-1.3-0.5-1.6
						C797.4,1835.5,806.8,1846.5,816.4,1856.8z"/>
				</g>
			</g>
			<g>
				<g>
					<path class="st25" d="M1028.8,1812.7c0,0,7.3,33,54.5,25.7c0,0,35.4-5.8,31.5-36.1c0,0-9.1-26.4-43.3-23.6
						C1071.6,1778.7,1023.2,1772.3,1028.8,1812.7z"/>
				</g>
			</g>
			<g class="st8">
				<g>
					<path d="M1011.3,2045.5l-103.3,0l-1.9-0.1c-1.5-58.6-110.5-198.5-117.6-219.6c-0.3-0.8-0.4-1.3-0.5-1.6
						c9.3,11.4,18.8,22.4,28.3,32.7c0.1,0.1,0.2,0.2,0.3,0.3c71.7,91.2,141.9,83.1,163.4,77.8c3.5-0.4,5.9-1,6.7-2
						C986.7,1933,1017.5,2023.7,1011.3,2045.5z"/>
				</g>
			</g>
			<g>
				<g>
					<path class="st26" d="M1006.2,1307c0,0,39.7-9.8,75.5,6.2c0,0,4.4,1.2,11,0c20.7-3.8,66.4-17,93.2-46.9
						c5.6-6.3,21.5-14.3,23.5-22.6c0,0,8.4,3.5-61.8-38.6c-15-9-34.8-20.5-59-27.8c0,0-32.2,22.3-57.3,1.1c0,0-46.8-8.9-88.7,23.6
						c0,0-10.9,6.8-25.4,10.9c-9,2.5-22.1-0.1-26.6,6.1c0,0-1.1,1.5,8.6,8.6c0,0,3.2,3.4,5.1,5.6c2,2.2,5.2,5.6,5.2,5.6
						C934.6,1264.1,976.2,1315,1006.2,1307L1006.2,1307z"/>
				</g>
			</g>
			<g>
				<g>
					<path class="st27" d="M890.6,1219.1c0,0,20.1,10.5,48.9,17.5c19.2,4.6,36.4,2.3,55.7,4.5c17.2,2,36.8,8.9,50.4,7.9
						c0,0,37.8-6.4,79.8-6.8c11-0.1,62.4,11.4,77.4,7.6c-1-0.6-57.5-1.1-86.3-16.2c0,0-45.5,19.4-68.4,2.9c0,0-24.4,12.7-55.3-1
						C992.8,1235.5,929.4,1234.9,890.6,1219.1z"/>
				</g>
			</g>
			<g>
				<g>
					<path class="st28" d="M1085.2,1312.5"/>
				</g>
			</g>
			<g>
				<g>
					<path class="st29" d="M995.9,1349.6c0,0,56.6-24.6,107.4-1.3C1103.3,1348.3,1052.6,1300.6,995.9,1349.6z"/>
				</g>
			</g>
			<g class="st13">
				<g>
					<g>
						<path class="st14" d="M1173.4,1084.1c-11.8,5.3-23.8,5.5-34.7,3.4c-4.5-0.9-8.8-2.1-12.8-3.6c-3.8-1.4-7.4-3-10.5-4.6
							c0,0,0,0-0.1,0c-0.8-0.5-1.6-0.9-2.6-1.3c-8.7-4.6-14.1-9-14.1-9c-3.5,2-6.9,3.4-10.3,4.4c-11.8,3.4-22.5,1.2-30.4-1.7
							c0,0,0,0,0,0c-4.6-1.7-8.3-3.6-10.8-4.8c-1.9-0.9-4.2,0.9-4.3,1l-0.9,0.8c-5.6,4.1-10.8,7-15.4,9.2
							c-6.4,2.2-11.2,4.1-11.6,4.3h0c0,0,0,0,0,0c-3.9,1-7,1.4-9.2,1.5c-2.4,0.1-3.7-0.1-3.7-0.1c-14.1,0.8-23.7-2.6-30-8.5
							c-0.1-0.1-0.1-0.1-0.1-0.1c-3.2-3-5.5-6.7-7.2-10.8c-0.2-0.4-0.4-0.9-0.5-1.3c-9.3-25.4,5.6-64.9,5.6-64.9
							c6.5,17.9,28.7,19.3,28.7,19.3c1.8,0.1,3.9,0.2,5.2-0.3c16.3-7.1,15.8-19.9,15.8-24.7c0-1.3,1.3-2.9,1.3-2.9
							c8-9,19.6,17.5,19.6,17.5c19.4,23.6,46.8,15.4,46.8,15.4c23.8-7.9,24.5-23.7,24.5-23.7c0.3-3,3-7,5.1-9.3
							c12.5-13.1,45.7,0.9,45.7,0.9c18.4,8.3,21.2,23.9,21.4,31.7c0.1,2.9-0.2,4.7-0.2,4.7c-0.1,0.7,0,1,0.1,1.4
							c2.5,7.8,8.2,7.9,10.8-0.8c2-6.8,0.7-13.8-0.9-18.4c0,0,0,0,0,0c-0.9-1.7-1.5-3.3-2.9-5.3c2.8,2.7,9.4,14.4,9.8,16.3
							c0.1,0.4,0.2,0.7,0.2,1.1C1207,1051.6,1186.2,1078.3,1173.4,1084.1z"/>
					</g>
				</g>
			</g>
			<g>
				<g>
					<path class="st12" d="M1107.1,1070.9c-0.9-0.4-1.7-0.9-2.6-1.3C1105.4,1070,1106.3,1070.5,1107.1,1070.9z"/>
				</g>
			</g>
			<g>
				<g>
					<path class="st30" d="M1006.7,1073.7L1006.7,1073.7C1006.7,1073.8,1006.7,1073.8,1006.7,1073.7
						C1006.7,1073.8,1006.7,1073.8,1006.7,1073.7z"/>
				</g>
			</g>
			<g>
				<g>
					<path class="st30" d="M1018.3,1069.5c-4.4,2.1-8.3,3.4-11.6,4.3C1007,1073.6,1011.9,1071.7,1018.3,1069.5z"/>
				</g>
			</g>
			<g class="st31">
				<g>
					<path class="st32" d="M1122.2,941.8c0,0,22.8,11.3,18.5,25.3c0,0-20.5,10.6-21-7.6C1119.7,959.4,1128,945,1122.2,941.8z"/>
				</g>
			</g>
			<g>
				<g>
					<path class="st14" d="M990.7,1037.5c0,0,8.4-21.5,35.6-11.5c0,0,24.6,8.3,0,15.1C1026.3,1041,989.6,1048.6,990.7,1037.5z"/>
				</g>
			</g>
			<g>
				<g>
					<path class="st14" d="M1104.6,1043.4c0,0,23.5-0.7,26.7,8.5c0,0,23.9,6,24.7-11.1c0,0-19.1-22.2-45.8-8.5
						C1110.2,1032.2,1097,1035,1104.6,1043.4z"/>
				</g>
			</g>
			<g class="st13">
				<g>
					<g>
						<path class="st14" d="M980.2,974.2c0,0,66.4-103,42.9-171.9c0,0-28.9,24.6-25,69.3C998.1,871.6,1003.8,922.3,980.2,974.2z"/>
					</g>
				</g>
			</g>
			<g>
				<g>
					<path class="st14" d="M1192.7,1071.6c0,0-18.6,27.7-55.4,16.2c10.9,2.1,23,1.9,34.7-3.4c12.7-5.7,33.6-32.4,27.5-63.6
						c-0.1-0.4-0.1-0.7-0.2-1.1c-0.4-1.9-6.4-13.9-9.2-16.6v0C1190.9,1003.7,1222.7,1026,1192.7,1071.6z"/>
				</g>
			</g>
			<g>
				<g>
					<path class="st17" d="M1416.1,1002.1c-2.3,14.6-4.1,23.7-4.1,23.7l-34.6,107.6c-15.6,145.3-89.4,219.9-89.4,219.9l-16.3,16
						l-19.7,19.4c28-33.1,103.2-116.5,103.2-258.5c0,0,4.7-24,7.7-32.4C1370.8,1075.4,1386.1,1047,1416.1,1002.1z"/>
				</g>
			</g>
			<g>
				<g>
					<path class="st17" d="M1155.9,1467c0,0-0.1,0-0.1,0c-3.4,1.2-6.6,2.3-9.7,3.4c-82.8,26.8-172.7-1.9-172.7-1.9
						c-76.9,5.4-163.7-89.9-163.7-89.9c-2.4-1.8-4.8-3.7-7.2-5.6c-0.2-0.2-0.4-0.3-0.6-0.4c-40.7-32.8-64.6-71-77.8-98.6
						c-10.7-22.3-14.4-37.6-14.4-37.6l-36.1-150.7l-10.1-47.8c27.9,105.8,75.5,239.6,143.6,276.6c0,0,3.2,9.3,13.9,26.6
						c10.7,17.4,28.9,42.8,58.9,75.3C879.8,1416.4,959.8,1497.1,1155.9,1467z"/>
				</g>
			</g>
			<g class="st31">
				<g>
					<path class="st32" d="M1190.6,1110.2c0,0,66.8-29.3,71.3-77.8c0,0,66.2,68.7,52.1,140.6C1314,1173,1211.8,1143.2,1190.6,1110.2
						z"/>
				</g>
			</g>
			<g id="lng_00000059272796538159148650000006706914914691798917_">
				<g>
					<path class="st14" d="M964.6,655.2c-4.6,15.4-25.8,26.7-25.8,26.7c-16.6-12.1-94.5-30.4-94.5-30.4
						c-58.7-12.5-97.7,7.5-119,24.7c-8.6,6.9-14.3,13.4-17.2,17.1c-1.1,1.4-1.8,2.3-2.1,2.8c0,0,0,0,0,0c0,0,0,0,0,0
						c-0.1,0.2-0.2,0.3-0.2,0.3c0,0,0-0.1,0-0.1v0c1.3-30.6,12.6-52.1,24.9-66.6c15.7-18.5,32.9-25.6,32.9-25.6
						c95.3-45,186.4,22.3,186.4,22.3C964.5,636.6,967.2,646.6,964.6,655.2z"/>
				</g>
			</g>
			<g>
				<g>
					<g>
						<path class="st17" d="M1394.6,715.1l-4-12.7c0.1,1.1-0.1,2.2-0.3,3.9c0,0,0,0,0,0c-49.1-78-187.3-17.3-215.9-53
							c-0.5,0.3-1.1,0.6-2.4,1.3l-1.4-15.4c-0.2,0.1-0.4,0.2-0.6,0.4c-0.1,0.1-0.3,0.2-0.4,0.3c-20.2,14-21.5,38.2,2,51
							c7.9,4.3,17.3-5.1,29.8-9.1c65-20.9,144.6-19.6,191.4,36.9c1.6,2,3.3,4,4.8,6.2L1394.6,715.1z"/>
					</g>
				</g>
				<g>
					<g>
						<path class="st14" d="M1405,731.2c-3.2-5.8-6.7-11.2-10.4-16.1c-1.2-1.6-2.5-3.2-3.8-4.8c0,0,0,0,0,0
							c-70.6-83.7-218.8-23-218.8-23c-20.7-21.7-17.2-36.8-2.4-47.4c0.1-0.1,0.3-0.2,0.4-0.3c0.2-0.1,0.4-0.3,0.6-0.4l0,0
							c35.3-23.8,129.5-23.9,129.5-23.9c43.9,2.4,69.4,23.1,84.3,46.3C1405,694,1405,731.2,1405,731.2z"/>
					</g>
				</g>
			</g>
			<g class="st24">
				<g>
					<path class="st32" d="M714.6,869.6c0,0-0.9,139.2,102,149.5c0,0,157,14.7,131.6-105.9c0,0-34-74.6-128.7-26.1
						c0,0-42.4,12.9-87.3-21.2C732.1,865.8,721.4,856.1,714.6,869.6z"/>
				</g>
			</g>
			<g>
				<g>
					<path class="st14" d="M966.7,1069.5c0,0,10.3,18.5,35.3,14c-2.5,0.5-12.6-0.4-21.7-4.6c-9.8-4.5-20.6-29.7-16.3-60.9
						c0-0.4,0.5-2.2,0.6-2.6c0.3-1.9,3.1-14.9,5.2-17.7l-2.6,2C966.7,1000.4,945.3,1023.9,966.7,1069.5z"/>
				</g>
			</g>
			<g>
				<g class="st13">
					<g>
						<g>
							<path class="st14" d="M1355.4,809.2c0,0,5.3-1-32.9,11.6l0,0c-2.8,0.8-4.5,1.2-4.5,1.2c-113.2,31.1-153-20.7-153.9-22
								c55.2,41.5,139.8,19.3,156.4,14.4c0.2-0.1,0.4-0.1,0.5-0.2c0.2-0.1,0.4-0.1,0.7-0.2c0.1,0,0.2,0,0.2-0.1
								c2.3-0.8,5.9-2.6,2.7-5l-35.6-35.9l-3.8-1.9C1286.7,771.5,1317.7,780.1,1355.4,809.2z"/>
						</g>
					</g>
				</g>
				<g>
					<g>
						<path class="st33" d="M1171.2,800c0,0,22.6-46.2,114-28.8c0,0,33,12.2,41.7,38.3c0,0,3.1,5.5-28.2,8.7c-8.3,0.9-20,2.7-31,2.6
							c-12.7-0.1-25.4-1.2-38.2-2.6C1203,815.3,1185.7,812.2,1171.2,800z"/>
					</g>
				</g>
				<g>
					<g>
						<path class="st34" d="M1224.3,815.3c0,0-14.9-1.5-37.4-8.8c-5.3-1.7-10.1-3.8-14-6.5c0,0,7.1-9.5,20.8-18.1c0,0,0,0,0,0
							c11-7,6.7-4.4,14-6.5C1207.8,775.3,1203.9,804,1224.3,815.3z"/>
					</g>
				</g>
				<g>
					<g>
						<path class="st34" d="M1319.4,812.3L1319.4,812.3c-2,0.9-5,1.4-6.6,1.8c-7.3,2.1-11.5,2.4-18.5,3.4c-6.2,0.9-12.8,1-12.8,1
							c13-8.8,16.9-37.3,13-39.8c12.7,6.9,15.7,10.8,22.5,17.5h0c0,0,0,0,0,0c0,0,0.1,0,0.1,0.1c1.2,1.1,2.3,2.3,3.2,3.5
							C1321.5,801.7,1321.6,808.9,1319.4,812.3z"/>
					</g>
				</g>
				<g>
					<g>
						<path class="st35" d="M1321.8,814c-0.3,0.1-0.5,0.2-0.7,0.2C1321.3,814.2,1321.5,814.1,1321.8,814z"/>
					</g>
				</g>
				<g>
					<g>
						<path class="st33" d="M1175.7,762.1c0,0,77.9-42.9,165,2.9C1340.7,765,1254.9,706.2,1175.7,762.1z"/>
					</g>
				</g>
				<g>
					<g>
						<path class="st12" d="M1186.9,806.5c-5.3-1.7-10.1-3.8-14-6.5c0,0,7.1-9.5,20.8-18.1C1192.9,782.6,1175.6,796.6,1186.9,806.5z
							"/>
					</g>
				</g>
				<g>
					<g>
						<path class="st11" d="M1348.1,805.2C1348.1,805.2,1348.1,805.2,1348.1,805.2L1348.1,805.2
							C1348.1,805.2,1348.1,805.2,1348.1,805.2z"/>
					</g>
				</g>
				<g>
					<g>
						<path class="st11" d="M1325.7,809.2c-0.6,0.9-4.3,2.2-6.3,3.1c2.2-3.4,2.1-10.5,0.9-12.5
							C1322.9,802.8,1325.7,809.2,1325.7,809.2z"/>
					</g>
				</g>
				<g>
					<g>
						<path class="st36" d="M1214.5,831c-4.3-2.5-8.7-4.9-13-7.4c0.2-0.5,0.4-0.9,0.6-1.4c2.4,0.6,4.8,1.1,7.3,1.7
							c16.7,3.6,33.3,7.3,50,10.8c2.8,0.6,5.6,0.6,8.5,0.9c3,0.2,6,0.4,9,0.6c3.7,0.3,7.5,0.6,11.2,1c2.8,0.1,5.6,0.3,8.4,0.4
							c0.1,0.5,0.1,1,0.2,1.4c-2.9,0.6-5.7,1.3-8.6,1.7c-22.6,2.9-44.6-0.4-66.1-7.4C1219.5,832.3,1217,831.7,1214.5,831z"/>
					</g>
				</g>
			</g>
			<g>
				<g>
					<path class="st36" d="M1023.4,838.9c-0.1-1.4-0.3-2.8-0.4-4.2c0.5-0.9,1-1.8,1.5-2.7c1.3,5.3,2.7,10.6,3.8,16
						c1.4,7.5,2.6,15.1,3.8,22.7c0.8,8.8,2.2,17.7,0.2,26.5c-0.9,4.2-2.2,8.3-3.3,12.5c-0.6-2.3-1.5-4.6-1.6-6.9
						c-0.5-10.1-0.6-20.1-1.2-30.2C1025.4,861.3,1024.3,850.1,1023.4,838.9z"/>
				</g>
			</g>
			<g>
				<g class="st13">
					<g>
						<g>
							<path class="st14" d="M904.6,829.3c-73.9,32.4-160.4-12.2-160.4-12.2v0c-7.3,1.9-14.9,4.6-21.5,8.3c0,0,3.7-31,40.3-55.2
								c0,0,101.4-46.4,162.9-9.6c0,0,27.1,21.1,21.6,29.2c0,0-33.6,25.5-82.3,30.6c0,0,0,0,0,0c-26.6,5.6-49.7,6.6-49.7,6.6
								C849.6,840.6,904.6,829.3,904.6,829.3z"/>
						</g>
					</g>
				</g>
				<g>
					<g>
						<path class="st33" d="M948.5,787.3c0,0-0.1-1.3-0.6-3c-1.6-5.2-14.1-11.7-32.3-18.2c0,0-76.3-32.2-148.4,25.9
							c0,0,26.7,16.9,76.9,16.2C872.9,807.8,948.5,799.9,948.5,787.3z"/>
					</g>
				</g>
				<g>
					<g>
						<path class="st34" d="M834.3,804.9c0,0-20.7,0.9-40.1-5l0,0c-10.3-3.1-18.4-6.6-19.1-9.9c0,0,10.7-8,24.7-14.5c0,0,0,0,0,0
							c0,0,0,0,0,0c13.6-6.4,10.1-4.9,18.7-7.4C818.4,768,813.9,790.8,834.3,804.9z"/>
					</g>
				</g>
				<g>
					<g>
						<path class="st33" d="M766.1,753.1c0,0,87.8-48.7,165.2-5.3C931.4,747.8,854.8,686.9,766.1,753.1z"/>
					</g>
				</g>
				<g>
					<g>
						<path class="st12" d="M794.2,799.9c-10.3-3.1-18.4-6.6-19.1-9.9c0,0,10.7-8,24.7-14.5C798.6,776.1,779.2,788.2,794.2,799.9z"
							/>
					</g>
				</g>
				<g>
					<g>
						<path class="st34" d="M947,785.8c-0.2,0.8-0.7,1.5-1.5,2.2c0,0-0.1,0.1-0.1,0.1c-2.6,2.1-8.1,3.9-15.8,6.2l0,0l-3.2,0.9
							c-19.3,5.9-36.9,6.5-36.9,6.5c20.4-14.1,14.2-37.8,14.2-37.8c8.6,2.5,5.1,1,18.7,7.4c0,0,0,0,0,0c0,0,0,0,0,0
							C936.3,777.8,947,785.8,947,785.8z"/>
					</g>
				</g>
				<g>
					<g>
						<path class="st12" d="M947,785.8c-0.2,0.7-0.7,1.4-1.5,2.2c0,0-0.1,0.1-0.1,0.1c-2.6,2.1-8.1,3.9-15.8,6.2l0,0
							c11.8-11.2-6.1-22.4-7.2-23C936.3,777.8,947,785.8,947,785.8z"/>
					</g>
				</g>
				<g>
					<g>
						<path class="st37" d="M885,841c-15.2,4.4-30.5,8.5-46.3,10.4c-6.9,0.9-13.8,1.4-20.7,2.1c-1-0.2-2-0.5-3.1-0.7
							c30.9-9.5,62.5-15.2,93.4-24.2c0.2,0.4,0.4,0.9,0.5,1.3c-3.6,1.9-7.2,3.8-10.9,5.5C893.7,837.4,889.3,839.2,885,841z"/>
					</g>
				</g>
			</g>
		</g>
		<polygon class="st2" points="829.6,2045.6 802.8,2046.7 577.7,2045.6 		"/>
		<path class="st2" d="M1235.9,2045.6c-0.3,0.2-0.5,0.3-0.7,0.3c-0.3,0-0.4-0.2-0.5-0.3H1235.9z"/>
	</g>
</g>
<g id="Layer_5">
</g>
</svg>
